#N canvas 827 239 527 327 12;
#X msg 433 376 resize \$1;
#X obj 283 210 pow, f 11;
#X msg 283 182 2;
#X floatatom 444 255 6 0 0 0 - - - 12;
#X obj 329 149 count 6 24;
#X floatatom 283 256 7 0 0 0 - - - 12;
#X obj 329 179 t b i;
#X floatatom 444 316 6 0 0 0 - - - 12;
#X obj 433 346 i;
#X obj 283 377 >, f 10;
#X obj 329 346 - 64;
#X obj 283 409 route 0 1, f 12;
#X obj 313 441 t b b;
#X obj 444 285 - 6;
#X obj 548 349 inlet~;
#X obj 548 485 outlet~;
#X msg 368 116 reset;
#X obj 329 65 t b b, f 15;
#X obj 548 279 t b s s, f 17;
#X obj 329 316 array size;
#X msg 648 320 all set \$1;
#X obj 548 246 args;
#X text 253 484 Compute the number of instances needed \; Each new instance is a power of 2 greater in size;
#X obj 548 216 loadbang;
#X obj 548 320 s \$0-bang;
#X obj 329 33 r \$0-bang;
#X obj 650 193 bng 25 250 50 0 empty empty empty 17 7 0 10 #e4e4e4 #4d4d4d #373737;
#X obj 548 454 snake_out~;
#X obj 548 423 clone -d conv.kernel~ 1;
#X connect 0 0 28 0;
#X connect 1 0 5 0;
#X connect 2 0 1 0;
#X connect 3 0 13 0;
#X connect 4 0 3 0;
#X connect 4 0 6 0;
#X connect 5 0 9 0;
#X connect 6 0 2 0;
#X connect 6 1 1 1;
#X connect 7 0 8 1;
#X connect 8 0 0 0;
#X connect 9 0 11 0;
#X connect 10 0 9 1;
#X connect 11 0 4 0 48.................K....v9++++B....r++++6s+++uK....d6+++6B...P59+++;
#X connect 11 1 12 0;
#X connect 12 0 16 0 48.................N....L7+++uC....C++++Cp++++M....f5+++eC....p9+++;
#X connect 12 1 8 0 48.................O....7D...vC....OA...X3+++eZ....F9+++mF...fi++++;
#X connect 13 0 7 0;
#X connect 14 0 28 0;
#X connect 16 0 4 0;
#X connect 17 0 4 0;
#X connect 17 1 19 0 32.................ZB...v5+++ul....r9+++eN....;
#X connect 18 0 24 0;
#X connect 18 1 20 0;
#X connect 18 2 19 1;
#X connect 19 0 10 0;
#X connect 20 0 28 0 32.................v....z4+++OL....c9+++OE....;
#X connect 21 0 18 0;
#X connect 23 0 21 0;
#X connect 25 0 17 0;
#X connect 26 0 21 0;
#X connect 27 0 15 0;
#X connect 28 0 27 0;
