#N canvas 827 239 527 327 12;
#X obj 449 394 conv~ 64 \$0-impulse;
#N canvas 0 0 450 250 (subpatch) 0;
#X array \$0-impulse 64 float 2;
#X coords 0 1 64 -1 113 57 1;
#X restore 455 209 graph;
#X obj 441 547 array size \$0-impulse;
#X obj 342 337 pow, f 10;
#X msg 342 301 2;
#X obj 385 301 t b i;
#X obj 342 209 t b b, f 9;
#X floatatom 342 368 5 0 0 0 - - - 0;
#X obj 385 240 float \$1;
#X obj 342 605 array set \$0-impulse;
#X obj 397 574 loadmess 0;
#X obj 342 394 t b i i i i;
#X obj 515 320 inlet~, f 16;
#X obj 449 424 outlet~;
#X msg 449 357 size \$1;
#X obj 385 269 + 6;
#X obj 342 547 array get, f 12;
#X obj 620 484 any2symbol;
#X obj 606 357 route set;
#X obj 444 133 array size;
#X obj 606 453 t b a;
#X obj 536 484 s \$0-bang;
#X obj 342 174 r \$0-bang;
#X obj 270 607 print;
#X connect 0 0 13 0;
#X connect 3 0 7 0;
#X connect 4 0 3 0;
#X connect 5 0 3 0;
#X connect 5 1 3 1;
#X connect 6 0 4 0;
#X connect 6 1 8 0;
#X connect 7 0 11 0;
#X connect 8 0 15 0;
#X connect 10 0 9 1;
#X connect 11 0 16 0;
#X connect 11 1 16 0;
#X connect 11 2 16 1;
#X connect 11 3 2 0;
#X connect 11 4 14 0 48.................G....TA...vA....U.....7+++uJ.....++++qB....x++++;
#X connect 12 0 0 0 32.................t....76+++uK....+9+++aC....;
#X connect 12 1 18 0;
#X connect 14 0 0 0;
#X connect 15 0 5 0;
#X connect 16 0 9 0;
#X connect 16 0 23 0;
#X connect 17 0 16 2;
#X connect 18 0 20 0;
#X connect 20 0 21 0;
#X connect 20 1 17 0;
#X connect 22 0 6 0;
