#N canvas 827 239 527 327 12;
#N canvas 0 0 450 250 (subpatch) 0;
#X array \$0-ir-start 64 float 2;
#X coords 0 1 64 -1 200 140 1;
#X restore 104 480 graph;
#N canvas 0 0 450 250 (subpatch) 0;
#X array \$0-ir-residue 960 float 2;
#X coords 0 1 960 -1 200 140 1;
#X restore 389 480 graph;
#X obj 599 198 inlet~;
#X obj 599 315 +~, f 8;
#X obj 104 293 count 0 63;
#X floatatom 104 317 5 0 0 0 - - - 0;
#X obj 104 265 uzi 64;
#X floatatom 246 344 7 0 0 0 - - - 12;
#X obj 246 256 uzi 960;
#X obj 246 310 count 64 1023, f 16;
#X obj 364 376 - 64;
#X obj 389 256 array size \$1;
#X obj 104 176 loadbang;
#X msg 389 310 64 \$1;
#X obj 389 284 - 1;
#X obj 104 209 t b b b, f 44;
#X obj 104 409 tabwrite \$0-ir-start;
#X obj 104 376 tabread \$1;
#X obj 104 344 t f f, f 18;
#X obj 246 376 tabread \$1;
#X obj 246 409 tabwrite \$0-ir-residue;
#X obj 599 253 buffir~ \$0-ir-start 0 64;
#X obj 599 354 outlet~;
#X obj 437 112 route set;
#X obj 621 226 s \$0-ctrl1-in;
#X obj 437 81 r \$0-ctrl1-in;
#X obj 437 145 any2symbol;
#X obj 437 176 t b s;
#X obj 571 112 args;
#X obj 571 81 loadbang;
#X text 104 80 NOT FINISHED \; INIT ISSUE;
#X obj 632 281 conv.non-uniform~ \$0-ir-residue;
#X connect 2 0 21 0;
#X connect 2 0 31 0;
#X connect 2 1 24 0;
#X connect 3 0 22 0;
#X connect 4 0 5 0;
#X connect 5 0 18 0;
#X connect 6 0 4 0;
#X connect 7 0 10 0;
#X connect 7 0 19 0;
#X connect 8 0 9 0;
#X connect 9 0 7 0;
#X connect 10 0 20 1;
#X connect 11 0 14 0;
#X connect 12 0 15 0;
#X connect 13 0 9 1;
#X connect 14 0 13 0;
#X connect 15 0 6 0;
#X connect 15 1 8 0;
#X connect 15 2 11 0;
#X connect 17 0 16 0;
#X connect 18 0 17 0;
#X connect 18 1 16 1;
#X connect 19 0 20 0;
#X connect 21 0 3 0;
#X connect 23 0 26 0;
#X connect 25 0 23 0;
#X connect 26 0 27 0;
#X connect 27 0 15 0;
#X connect 27 1 11 1;
#X connect 28 0 26 0;
#X connect 29 0 28 0;
#X connect 31 0 3 1;
