#N canvas 827 239 527 327 12;
#X obj 745 244 biquad~;
#X obj 817 110 loadbang;
#X obj 817 244 biquad~;
#X obj 745 286 outlet~;
#X obj 685 212 inlet~;
#X obj 817 286 outlet~;
#X obj 710 110 inlet;
#X obj 745 165 bicoeff2 lowpass \$1 0.5;
#X obj 817 203 bicoeff2 highpass \$1 0.5;
#X connect 0 0 3 0;
#X connect 1 0 7 0;
#X connect 1 0 8 0;
#X connect 2 0 5 0;
#X connect 4 0 0 0;
#X connect 4 0 2 0;
#X connect 6 0 7 0 32.................O....LB...vC....i....LB....;
#X connect 6 0 8 0 32..................A...rF....P....qA...jD....;
#X connect 7 0 0 0;
#X connect 8 0 2 0;
