#N canvas 827 239 527 327 12;
#X obj 280 294 inlet~;
#X obj 399 40 inlet;
#X obj 399 111 * 1, f 10;
#X obj 445 79 pi;
#X obj 445 40 loadbang;
#X obj 490 79 samplerate~;
#X obj 399 156 /, f 16;
#X obj 399 191 tan;
#X obj 399 227 f;
#X text 439 226 g;
#X obj 649 40 inlet;
#X text 399 21 frequency input;
#X text 649 21 Q input;
#X obj 649 79 !/ 1;
#X obj 649 120 f;
#X text 689 123 k;
#X obj 399 259 s \$0-g;
#X obj 649 156 s \$0-k;
#X obj 280 354 fexpr~ $x[-1];
#X obj 280 417 fexpr~ $x[-1];
#X obj 205 461 expr~ $v1-$v3;
#X obj 512 361 expr 1/(1+$f1*($f1+$f2));
#X obj 512 295 r \$0-g;
#X obj 630 295 r \$0-k;
#X obj 630 323 t b f;
#X text 482 360 a1;
#X text 0 6 DOES NOT WORK \; NOT IMPLEMENTED YET;
#X connect 0 0 18 0;
#X connect 0 0 20 0;
#X connect 1 0 2 0;
#X connect 2 0 6 0;
#X connect 3 0 2 1;
#X connect 4 0 3 0;
#X connect 4 0 5 0;
#X connect 5 0 6 1;
#X connect 6 0 7 0;
#X connect 7 0 8 0;
#X connect 8 0 16 0;
#X connect 10 0 13 0;
#X connect 13 0 14 0;
#X connect 14 0 17 0;
#X connect 18 0 19 0;
#X connect 19 0 20 2;
#X connect 22 0 21 0;
#X connect 23 0 24 0;
#X connect 24 0 21 0;
#X connect 24 1 21 1;
