#N canvas 827 239 527 327 12;
#X obj 217 198 hilbert~;
#X obj 217 150 inlet~;
#X obj 217 318 outlet~;
#X obj 330 150 inlet;
#X obj 217 238 utility/blend.angular~;
#X connect 0 0 4 0;
#X connect 0 1 4 1;
#X connect 1 0 0 0;
#X connect 3 0 4 2;
#X connect 4 0 2 0;
