#N canvas 827 239 527 327 12;
#X obj 304 186 inlet~;
#X obj 304 405 outlet~;
#X obj 340 257 lop~;
#X obj 395 257 hip~;
#X obj 379 161 loadbang;
#X obj 304 363 +~;
#X obj 340 334 *~;
#X obj 395 334 *~;
#X obj 537 257 dbtoa;
#X obj 537 285 - 1;
#X obj 482 218 * -1;
#X obj 482 257 dbtoa;
#X obj 482 285 - 1;
#X obj 537 186 inlet;
#X obj 411 186 inlet;
#X text 304 65 Simple tilt filter \; First inlet is audio \; Second inlet is center frequency (default is 600 Hz) \; Third inlet is gain (dB);
#X obj 411 218 f \$1;
#X connect 0 0 2 0;
#X connect 0 0 3 0;
#X connect 0 0 5 0;
#X connect 2 0 6 0;
#X connect 3 0 7 0;
#X connect 4 0 16 0;
#X connect 5 0 1 0;
#X connect 6 0 5 1;
#X connect 7 0 5 1;
#X connect 8 0 9 0;
#X connect 9 0 7 1;
#X connect 10 0 11 0;
#X connect 11 0 12 0;
#X connect 12 0 6 1;
#X connect 13 0 8 0;
#X connect 13 0 10 0;
#X connect 14 0 16 0;
#X connect 16 0 2 1;
#X connect 16 0 3 1;
