#N canvas 827 239 527 327 12;
#X obj 385 261 inlet;
#X obj 265 335 outlet~;
#X text 428 51 list of gain \, prepend by the \; number of the row to set;
#X obj 12 193 inlet~;
#X obj 265 95 loadbang;
#X obj 265 261 prepend all;
#X obj 265 192 f \$0;
#X msg 265 224 \$1-matrix-rows-input;
#X msg 599 224 resize \$1;
#X obj 505 192 f \$2;
#X obj 505 261 prepend all;
#X obj 265 131 t b b b;
#X obj 599 192 f \$1;
#X obj 12 290 s~ \$0-matrix-rows-input \$2;
#X obj 34 224 route resize;
#X obj 34 256 s \$0-resize;
#X obj 599 131 r \$0-resize;
#X obj 265 296 clone -do matrix/row~ 8 8, f 37;
#X connect 0 0 17 1;
#X connect 3 0 13 0;
#X connect 3 1 14 0;
#X connect 4 0 11 0;
#X connect 5 0 17 0;
#X connect 6 0 7 0;
#X connect 7 0 5 0;
#X connect 8 0 17 0 32.................t....nu+++uK....56+++SC....;
#X connect 9 0 10 0;
#X connect 10 0 17 2;
#X connect 11 0 6 0;
#X connect 11 1 12 0;
#X connect 11 2 9 0;
#X connect 12 0 8 0;
#X connect 14 0 15 0;
#X connect 16 0 12 0;
#X connect 16 0 9 0;
#X connect 17 0 1 0;
