#N canvas 827 239 527 327 12;
#X obj 368 122 inlet;
#X text 376 62 list of gain;
#X obj 368 270 outlet~;
#X text 368 294 sum of the row;
#X obj 368 153 listfunnel;
#X obj 440 122 inlet;
#X obj 440 153 prepend resize;
#X obj 281 183 r~;
#X obj 281 122 inlet;
#X obj 281 153 prepend set;
#X obj 368 227 clone -di matrix/cell~ 8;
#X connect 0 0 4 0;
#X connect 4 0 10 1 32.................X....HG....F....xA...XC....;
#X connect 5 0 6 0;
#X connect 6 0 10 0 32.................l....j6+++uI....49+++aC....;
#X connect 7 0 10 0;
#X connect 8 0 9 0;
#X connect 9 0 7 0;
#X connect 10 0 2 0;
