#N canvas 827 239 527 327 12;
#X obj 29 44 inlet~;
#X obj 29 223 outlet~;
#X obj 29 143 *~, f 13;
#X obj 195 44 inlet;
#X text 195 20 Attack (ms);
#X obj 280 44 inlet;
#X text 280 20 Release (ms);
#X obj 374 44 inlet;
#X text 374 20 Seuil (dB);
#X obj 447 44 inlet;
#X text 447 20 Ratio (n:1);
#X obj 123 44 inlet;
#X text 112 20 RMS (ms);
#X obj 29 180 *~, f 20;
#X obj 145 143 dbtoa;
#X obj 523 44 inlet;
#X text 523 20 Output gain (dB);
#X obj 96 105 dynamic/gain-computer~;
#X connect 0 0 2 0;
#X connect 0 0 17 0;
#X connect 2 0 13 0;
#X connect 3 0 17 2 32.................H....76+++OB....+9+++mB....;
#X connect 5 0 17 3 32.................N....r2+++uC....68+++mB....;
#X connect 7 0 17 4 32.................U....3x+++eE....t7+++mB....;
#X connect 9 0 17 5 32.................b....Xu+++OG....16+++mB....;
#X connect 11 0 17 1;
#X connect 13 0 1 0;
#X connect 14 0 13 1;
#X connect 15 0 14 0 32.................EA...Hm+++eQ....x4++++D....;
#X connect 17 0 2 1;
