#N canvas 827 239 527 327 12;
#X obj 770 374 dbtoa;
#X obj 269 193 / 1000;
#X obj 269 229 * 1;
#X obj 335 193 samplerate~;
#X obj 335 158 loadbang;
#X floatatom 269 334 16 0 0 0 - - - 12;
#X obj 269 262 i;
#X obj 269 369 average~ 48000 rms;
#X obj 269 299 clip 1 48000;
#X obj 269 476 max~ 1;
#X obj 269 443 *~;
#X obj 770 404 !/ 1;
#X obj 190 334 inlet~;
#X obj 269 158 inlet;
#X text 269 129 RMS Size (smpl);
#X obj 462 334 inlet;
#X text 462 310 Attack (ms);
#X obj 655 334 inlet;
#X text 655 310 Release (ms);
#X obj 770 334 inlet;
#X text 770 310 Seuil (dB);
#X obj 269 516 outlet~;
#X obj 269 404 filter/ar-filter~, f 58;
#X obj 462 369 utility/tau2pole;
#X obj 655 369 utility/tau2pole;
#X connect 0 0 11 0;
#X connect 1 0 2 0;
#X connect 2 0 6 0;
#X connect 3 0 2 1;
#X connect 4 0 3 0;
#X connect 5 0 7 0;
#X connect 6 0 8 0;
#X connect 7 0 22 0;
#X connect 8 0 5 0;
#X connect 9 0 21 0;
#X connect 10 0 9 0;
#X connect 11 0 10 1;
#X connect 12 0 7 0;
#X connect 13 0 1 0;
#X connect 15 0 23 0;
#X connect 17 0 24 0;
#X connect 19 0 0 0;
#X connect 22 0 10 0;
#X connect 23 0 22 1;
#X connect 24 0 22 2;
