#N canvas 827 239 527 327 12;
#X obj 269 193 / 1000;
#X obj 269 229 * 1;
#X obj 335 193 samplerate~;
#X obj 335 158 loadbang;
#X floatatom 269 334 16 0 0 0 - - - 12;
#X obj 269 262 i;
#X obj 269 369 average~ 48000 rms;
#X obj 269 299 clip 1 48000;
#X obj 190 334 inlet~;
#X obj 269 158 inlet;
#X text 269 129 RMS Size (smpl);
#X obj 416 332 inlet;
#X text 416 308 Attack (ms);
#X obj 563 332 inlet;
#X text 563 308 Release (ms);
#X obj 695 334 inlet;
#X text 695 310 Seuil (dB);
#X obj 269 625 outlet~;
#X obj 695 369 !- 0;
#X obj 269 473 +~;
#X obj 269 399 atodb~;
#X obj 269 506 max~ 0;
#X obj 822 369 expr 1-(1/$f1);
#X obj 822 334 inlet;
#X obj 269 541 *~;
#X obj 269 575 dbtoa~;
#X obj 822 405 * -1;
#X text 822 310 Ratio (n:1);
#X obj 269 434 filter/ar-filter~, f 45;
#X obj 416 369 utility/tau2pole;
#X obj 563 369 utility/tau2pole;
#X connect 0 0 1 0;
#X connect 1 0 5 0;
#X connect 2 0 1 1;
#X connect 3 0 2 0;
#X connect 4 0 6 0;
#X connect 5 0 7 0;
#X connect 6 0 20 0;
#X connect 7 0 4 0;
#X connect 8 0 6 0;
#X connect 9 0 0 0;
#X connect 11 0 29 0;
#X connect 13 0 30 0;
#X connect 15 0 18 0;
#X connect 18 0 19 1 32.................NA...Ti+++uS....03+++SE....;
#X connect 19 0 21 0;
#X connect 20 0 28 0;
#X connect 21 0 24 0;
#X connect 22 0 26 0;
#X connect 23 0 22 0;
#X connect 24 0 25 0;
#X connect 25 0 17 0;
#X connect 26 0 24 1 32.................rA...Pc+++Oa....T2+++SG....;
#X connect 28 0 19 0;
#X connect 29 0 28 1;
#X connect 30 0 28 2;
