#N canvas 827 239 527 327 12;
#N canvas 733 172 450 300 DiffusorChain 0;
#X obj 254 44 f;
#X obj 29 22 inlet~;
#X obj 254 14 inlet;
#X obj 29 321 outlet~;
#X obj 112 0 inlet;
#X obj 112 22 unpack f f f f f;
#X obj 29 89 reverb/diffusor~ 3 0.7 6000 0.05 1;
#X obj 29 135 reverb/diffusor~ 7 0.7 5000 0.05 1;
#X obj 29 184 reverb/diffusor~ 9 0.7 6000 0.05 1;
#X obj 29 230 reverb/diffusor~ 11 0.7 5000 0.05 1;
#X obj 29 274 reverb/diffusor~ 13 0.7 5000 0.05 1;
#X connect 0 0 6 2 32.................M....P3+++eC....D9+++mA....;
#X connect 0 0 7 2 32.................6....P3++++N....D9+++eD....;
#X connect 0 0 8 2 32.................uA...T3++++a....E9+++iG....;
#X connect 0 0 9 2 32.................VB...X3+++uk....F9+++aJ....;
#X connect 0 0 10 2 32.................CC...f3++++v....H9+++KM....;
#X connect 1 0 6 0;
#X connect 2 0 0 0;
#X connect 4 0 5 0;
#X connect 5 0 6 1;
#X connect 5 1 7 1;
#X connect 5 2 8 1;
#X connect 5 3 9 1;
#X connect 5 4 10 1;
#X connect 6 0 7 0;
#X connect 7 0 8 0;
#X connect 8 0 9 0;
#X connect 9 0 10 0;
#X connect 10 0 3 0;
#X restore 359 288 pd DiffusorChain;
#X obj 359 224 inlet~;
#X obj 359 553 outlet~;
#X obj 447 224 inlet;
#X obj 570 224 inlet;
#X text 447 199 diffusor amount;
#X text 570 199 diffusor coefficient;
#X obj 693 224 inlet;
#X text 693 199 tone/color;
#X obj 840 224 inlet;
#X text 838 201 drive (dB);
#X obj 359 478 lop~ 10000;
#X obj 359 326 hip~ 200;
#X obj 359 370 fexpr~ $x1/(abs($x1)+2);
#X obj 359 445 *~ 2;
#X obj 359 403 lop~ 6000;
#X connect 0 0 12 0;
#X connect 1 0 0 0;
#X connect 3 0 0 2;
#X connect 4 0 0 1 32.................i....rk++++H....a4+++6B....;
#X connect 7 0 11 1;
#X connect 11 0 2 0;
#X connect 12 0 13 0;
#X connect 13 0 15 0;
#X connect 14 0 11 0;
#X connect 15 0 14 0;
