#N canvas 827 239 527 327 12;
#X obj 359 386 hip~ 200;
#X obj 359 357 lop~ 3000;
#X obj 553 253 - 50;
#X obj 553 283 / 50;
#X obj 553 311 * 6;
#X obj 359 455 tanh~;
#X obj 359 421 *~ 1;
#X obj 460 386 dbtoa;
#N canvas 733 172 450 300 DiffusorChain 0;
#X obj 29 135 reverb/diffusor~ 7 0.7 5000;
#X obj 29 184 reverb/diffusor~ 9 0.7 6000;
#X obj 29 274 reverb/diffusor~ 13 0.7 5000;
#X obj 29 230 reverb/diffusor~ 11 0.7 5000;
#X obj 29 89 reverb/diffusor~ 3 0.7 6000;
#X obj 254 44 f;
#X obj 29 22 inlet~;
#X obj 254 14 inlet;
#X obj 29 321 outlet~;
#X obj 112 22 inlet;
#X obj 112 44 unpack f f f f f;
#X connect 0 0 1 0;
#X connect 1 0 3 0;
#X connect 2 0 8 0;
#X connect 3 0 2 0;
#X connect 4 0 0 0;
#X connect 5 0 2 2 32.................CC...f3++++v....H9+++KM....;
#X connect 5 0 4 2 32.................M....P3+++eC....D9+++mA....;
#X connect 5 0 3 2 32.................VB...X3+++uk....F9+++aJ....;
#X connect 5 0 1 2 32.................uA...T3++++a....E9+++iG....;
#X connect 5 0 0 2 32.................6....P3++++N....D9+++eD....;
#X connect 6 0 4 0;
#X connect 7 0 5 0;
#X connect 9 0 10 0;
#X connect 10 0 4 1;
#X connect 10 1 0 1;
#X connect 10 2 1 1;
#X connect 10 3 3 1;
#X connect 10 4 2 1;
#X restore 359 290 pd DiffusorChain;
#X obj 460 480 !/ 1;
#X obj 359 491 *~ 1;
#X obj 359 224 inlet~;
#X obj 359 553 outlet~;
#X obj 447 224 inlet;
#X obj 553 224 inlet;
#X obj 617 224 inlet;
#X obj 460 421 tanh;
#X obj 460 448 * 2;
#X obj 690 224 inlet;
#X text 447 199 diffusor amount;
#X text 553 199 tilt filter;
#X text 617 199 saturation;
#X text 690 199 diffusor coefficient;
#X obj 817 461 * 800;
#X obj 987 461 * 800;
#X obj 817 427 pow;
#X msg 818 397 2;
#X obj 817 361 t b f;
#X obj 987 427 pow;
#X msg 988 397 2;
#X obj 987 361 t b f;
#X obj 817 331 expr 1+pow($f1/100 \, 2)*3.7;
#X obj 987 331 expr -1-pow($f1/100 \, 2)*4;
#X obj 817 224 inlet;
#X text 817 199 bandwidth (%);
#X obj 359 323 filter/tilt~ 800;
#X connect 0 0 6 0;
#X connect 1 0 0 0;
#X connect 2 0 3 0;
#X connect 3 0 4 0;
#X connect 4 0 35 2;
#X connect 5 0 10 0;
#X connect 6 0 5 0;
#X connect 7 0 6 1;
#X connect 7 0 16 0;
#X connect 8 0 35 0;
#X connect 9 0 10 1;
#X connect 10 0 12 0;
#X connect 11 0 8 0;
#X connect 13 0 8 2;
#X connect 14 0 2 0;
#X connect 15 0 7 0 48.................0A...L1+++ec....i8+++SG....69+++zA...vt+++ui....;
#X connect 16 0 17 0;
#X connect 17 0 9 0;
#X connect 18 0 8 1 32.................i....rk++++H....a4+++6B....;
#X connect 23 0 1 1;
#X connect 24 0 0 1;
#X connect 25 0 23 0;
#X connect 26 0 25 0;
#X connect 27 0 26 0;
#X connect 27 1 25 1;
#X connect 28 0 24 0;
#X connect 29 0 28 0;
#X connect 30 0 29 0;
#X connect 30 1 28 1;
#X connect 31 0 27 0;
#X connect 32 0 30 0;
#X connect 33 0 32 0;
#X connect 33 0 31 0;
#X connect 35 0 1 0;
