#N canvas 827 239 527 327 12;
#X obj 201 192 *~ -1;
#X obj 29 150 *~;
#X obj 133 127 sig~ 1;
#X obj 201 260 fexpr~ $x1/(abs($x1)+1);
#X floatatom 133 93 5 1 10 2 Phase\ splitter\ gain - - 12;
#X obj 29 269 fexpr~ $x1/(abs($x1)+1);
#X obj 29 44 inlet~;
#X obj 133 44 inlet;
#X obj 29 338 outlet~;
#X obj 201 338 outlet~;
#X obj 201 225 fexpr~ $x1*(1-$x2)+pow($x1 \, 3)*$x2;
#X obj 405 127 inlet~;
#X obj 314 84 osc~ 110;
#X obj 460 338 oscope~ 132 121 7 3 114 -1 1 0 0 0 0 77 77 77 228 228 228 183 183 183 0 empty;
#X obj 201 297 +~;
#X connect 0 0 10 0;
#X connect 1 0 0 0;
#X connect 1 0 5 0;
#X connect 2 0 1 1;
#X connect 3 0 14 0;
#X connect 4 0 2 0;
#X connect 5 0 8 0;
#X connect 6 0 1 0;
#X connect 7 0 4 0;
#X connect 10 0 3 0;
#X connect 11 0 10 1;
#X connect 11 0 14 1;
#X connect 14 0 13 0;
#X connect 14 0 9 0;
