#N canvas 827 239 527 327 12;
#X obj 17 68 hsl 128 20 1 10 1 0 \$0-param-gain empty gain -2 -8 0 10 #e4e4e4 #4d4d4d #373737 0 1;
#X obj 350 22 adc~;
#X obj 224 189 dac~;
#X obj 17 109 hsl 128 17 0 1 0 0 \$0-param-bias empty bias -2 -8 0 10 #e4e4e4 #4d4d4d #373737 0 1;
#X obj 17 29 hsl 128 20 1 50 1 0 \$0-param-trim empty input\ trim -2 -8 0 10 #e4e4e4 #4d4d4d #373737 0 1;
#X obj 17 150 hsl 128 17 -2 2 0 0 \$0-param-presence empty presence -2 -8 0 10 #e4e4e4 #4d4d4d #373737 0 1;
#X obj 17 189 hsl 128 17 -80 0 0 0 \$0-param-volume empty volume -2 -8 0 10 #e4e4e4 #4d4d4d #373737 0 1;
#X obj 359 -16 osc~ 110;
#X obj 479 613 dac~;
#X obj 469 189 +~;
#N canvas 733 172 450 300 main2 1;
#X obj 479 361 +~;
#X obj 479 407 max~ 0.1;
#X obj 642 407 max~ 0.1;
#X obj 642 361 +~;
#X obj 479 508 -~, f 26;
#X obj 894 332 sig~ 0.1;
#X floatatom 894 305 9 0 10 2 bias - - 16;
#X obj 479 456 fexpr~ $x1/(abs($x1)+1);
#X obj 642 456 fexpr~ $x1/(abs($x1)+1);
#X obj 479 307 *~;
#X obj 642 307 *~;
#X obj 823 254 sig~ 0.1;
#X floatatom 823 227 5 0 10 2 gain\ staging - - 12;
#X obj 479 254 saturation/phase-splitter~ 0.5;
#X floatatom 560 201 5 0.1 10 2 gain\ staging - - 12;
#X obj 369 553 tanh~;
#X obj 499 177 abs~;
#X obj 499 201 lop~ 7;
#X obj 642 201 numbox~ 8 25 100 #e4e4e4 #4d4d4d 10 0 0 0;
#X msg 823 177 0.5;
#X msg 562 141 1;
#X msg 894 254 0.2;
#X obj 479 88 *~;
#X floatatom 550 15 5 0.1 10 2 gain\ staging - - 12;
#X obj 550 40 sig~;
#X obj 499 227 tanh~;
#X obj 479 7 inlet~;
#X obj 479 672 outlet~;
#X obj 396 674 s~ \$0-nfl;
#X obj 479 600 *~ 0.5;
#X obj 479 141 +~;
#X obj 674 65 *~;
#X floatatom 754 30 5 0 10 2 gain\ staging - - 12;
#X obj 674 29 r~ \$0-nfl;
#X obj 754 55 sig~ 2;
#X obj 396 641 *~ -1;
#X obj 754 141 *~;
#X floatatom 922 105 5 -1 1 2 presence - - 12;
#X obj 674 141 +~;
#X obj 479 641 *~ 2;
#X obj 479 553 fexpr~ $x1/(abs($x1)+1);
#X obj 754 103 allpass.filt~ 2 5000 0.5;
#X obj 374 30 osc~ 10000;
#X obj 280 320 block~ 1 1 4;
#X connect 0 0 1 0;
#X connect 1 0 7 0;
#X connect 2 0 8 0;
#X connect 3 0 2 0;
#X connect 4 0 40 0;
#X connect 5 0 3 1;
#X connect 5 0 0 1;
#X connect 6 0 5 0;
#X connect 7 0 4 0;
#X connect 8 0 4 1;
#X connect 9 0 0 0;
#X connect 10 0 3 0;
#X connect 11 0 10 1;
#X connect 11 0 9 1;
#X connect 12 0 11 0;
#X connect 13 0 9 0;
#X connect 13 1 10 0;
#X connect 14 0 13 1;
#X connect 16 0 17 0;
#X connect 17 0 25 0;
#X connect 18 0 13 2;
#X connect 19 0 12 0;
#X connect 20 0 14 0;
#X connect 21 0 6 0;
#X connect 22 0 30 0;
#X connect 23 0 24 0;
#X connect 24 0 22 1;
#X connect 25 0 18 0;
#X connect 26 0 22 0;
#X connect 29 0 35 0;
#X connect 29 0 39 0;
#X connect 30 0 16 0;
#X connect 30 0 13 0;
#X connect 31 0 38 0;
#X connect 31 0 41 0;
#X connect 32 0 34 0;
#X connect 33 0 31 0;
#X connect 34 0 31 1;
#X connect 35 0 28 0;
#X connect 36 0 38 1;
#X connect 37 0 36 1;
#X connect 38 0 30 1;
#X connect 39 0 27 0;
#X connect 40 0 29 0;
#X connect 41 0 36 0;
#X restore 479 338 pd main2;
#X obj 354 358 *~ 20;
#X obj 359 455 lop~ 7;
#X connect 1 0 9 0;
#X connect 1 1 9 1;
#X connect 9 0 10 0;
#X connect 10 0 8 0;
#X connect 10 0 12 0;
#X connect 10 0 8 1;
