#N canvas 827 239 527 327 12;
#X obj 347 198 poweramp-pushpull~;
#X obj 462 86 inlet~;
#X obj 538 128 inlet;
#X obj 616 128 inlet;
#X msg 538 158 bias \$1;
#X msg 616 158 presence \$1;
#X obj 462 240 outlet~;
#X obj 347 136 route compile;
#X msg 347 168 compile;
#X connect 0 1 6 0;
#X connect 1 0 0 1;
#X connect 1 1 7 0;
#X connect 2 0 4 0;
#X connect 3 0 5 0;
#X connect 4 0 0 0;
#X connect 5 0 0 0;
#X connect 7 0 8 0;
#X connect 8 0 0 0;
