#N canvas 827 239 527 327 12;
#X obj 17 68 hsl 128 20 1 10 1 0 \$0-param-gain empty gain -2 -8 0 10 #e4e4e4 #4d4d4d #373737 0 1;
#X obj 224 29 adc~;
#X obj 224 150 dac~;
#X obj 389 189 oscope~ 132 121 35 3 192 -2 2 0 0 0 0 77 77 77 228 228 228 183 183 183 0 empty;
#X obj 17 109 hsl 128 17 0 1 0 0 \$0-param-bias empty bias -2 -8 0 10 #e4e4e4 #4d4d4d #373737 0 1;
#X obj 17 29 hsl 128 20 1 50 1 0 \$0-param-trim empty input\ trim -2 -8 0 10 #e4e4e4 #4d4d4d #373737 0 1;
#N canvas 733 172 450 300 main 0;
#N canvas 733 172 450 300 transientFollower 0;
#X obj 299 328 abs~;
#X obj 299 363 max~, f 15;
#X obj 299 395 /~, f 19;
#X obj 384 328 average~ 480 rms;
#X obj 299 607 +~ 1;
#X obj 452 395 tau2pole;
#X msg 454 370 1;
#X obj 608 395 tau2pole;
#X obj 299 545 lop~ 20;
#X msg 608 370 500;
#X obj 299 510 max~ 0;
#X obj 299 577 *~ 0.5;
#X obj 608 328 loadbang;
#X obj 299 292 inlet~;
#X obj 299 643 outlet~;
#X obj 103 409 block~ 64;
#X obj 299 434 ar-filter~, f 47;
#X obj 299 476 fexpr~ $x1[0]-$x1[-1]+0.99999*$y1[-1];
#X connect 0 0 1 0;
#X connect 1 0 2 0;
#X connect 2 0 16 0;
#X connect 3 0 1 1;
#X connect 3 0 2 1;
#X connect 4 0 14 0;
#X connect 5 0 16 1;
#X connect 6 0 5 0;
#X connect 7 0 16 2;
#X connect 8 0 11 0;
#X connect 9 0 7 0;
#X connect 10 0 8 0;
#X connect 11 0 4 0;
#X connect 12 0 9 0;
#X connect 12 0 6 0;
#X connect 13 0 3 0;
#X connect 13 0 0 0;
#X connect 16 0 17 0;
#X connect 17 0 10 0;
#X restore 258 432 pd transientFollower;
#X obj 209 468 max~ 0;
#X obj 476 468 min~ 0;
#X obj 209 508 -~ 0.5;
#X obj 476 508 +~ 0.5;
#N canvas 733 172 450 300 clipper 0;
#X obj 86 530 tanh~;
#X obj 86 496 *~;
#X obj 149 434 sig~;
#X obj 149 530 tanh~;
#X obj 149 465 *~;
#X obj 86 564 /~;
#X obj 86 348 inlet~;
#X obj 149 403 inlet;
#X obj 299 428 inlet~;
#X obj 86 606 outlet~;
#X connect 0 0 5 0;
#X connect 1 0 0 0;
#X connect 2 0 4 0;
#X connect 3 0 5 1;
#X connect 4 0 3 0;
#X connect 4 0 1 1;
#X connect 5 0 9 0;
#X connect 6 0 1 0;
#X connect 7 0 2 0;
#X connect 8 0 4 1;
#X restore 209 554 pd clipper;
#N canvas 733 172 450 300 clipper 0;
#X obj 86 530 tanh~;
#X obj 86 496 *~;
#X obj 149 434 sig~;
#X obj 149 530 tanh~;
#X obj 149 465 *~;
#X obj 86 564 /~;
#X obj 86 348 inlet~;
#X obj 149 403 inlet;
#X obj 299 428 inlet~;
#X obj 86 606 outlet~;
#X connect 0 0 5 0;
#X connect 1 0 0 0;
#X connect 2 0 4 0;
#X connect 3 0 5 1;
#X connect 4 0 3 0;
#X connect 4 0 1 1;
#X connect 5 0 9 0;
#X connect 6 0 1 0;
#X connect 7 0 2 0;
#X connect 8 0 4 1;
#X restore 476 554 pd clipper;
#X obj 227 628 tanh;
#X obj 209 688 +~ 0;
#X obj 277 628 tanh;
#X obj 227 657 /, f 11;
#X obj 227 596 * 0.5;
#X obj 494 622 tanh;
#X obj 540 622 tanh;
#X obj 494 657 /, f 10;
#X obj 476 688 -~ 0;
#X obj 494 587 * 0.5;
#X obj 209 729 +~, f 41;
#X obj 555 520 r \$0-param-gain;
#X obj 296 520 r \$0-param-gain;
#X obj 540 468 r \$0-param-bias;
#X obj 279 468 r \$0-param-bias;
#X obj 209 388 *~;
#X obj 258 351 r \$0-param-trim;
#X obj 209 305 inlet~;
#X obj 209 874 outlet~;
#X obj 134 824 s~ \$0-del;
#X obj 270 100 r~ \$0-del;
#X obj 270 272 +~;
#X obj 320 236 *~, f 7;
#X obj 345 203 r \$0-param-presence;
#X obj 10 554 block~ 1 1 4;
#X obj 209 351 -~;
#X obj 270 132 lop~ 800;
#X obj 270 305 *~ 0.1;
#X obj 320 173 allpass.2nd~ 16000 0.1;
#X obj 209 824 *~ 1;
#X obj 221 766 r \$0-param-volume;
#X obj 221 796 dbtoa;
#X connect 0 0 5 2;
#X connect 0 0 6 2 48.................H.....I....B....PB...PE...fBA...TA...nP...fY....;
#X connect 1 0 3 0;
#X connect 2 0 4 0;
#X connect 3 0 5 0;
#X connect 4 0 6 0;
#X connect 5 0 8 0;
#X connect 6 0 15 0;
#X connect 7 0 10 0;
#X connect 8 0 17 0;
#X connect 9 0 10 1;
#X connect 10 0 8 1;
#X connect 11 0 7 0;
#X connect 12 0 14 0;
#X connect 13 0 14 1;
#X connect 14 0 15 1;
#X connect 15 0 17 1;
#X connect 16 0 12 0;
#X connect 17 0 26 0;
#X connect 17 0 36 0;
#X connect 18 0 6 1 32.................G....77++++A....O++++6.....;
#X connect 18 0 13 0 32.................FA...b++++uQ....2++++KE....;
#X connect 18 0 16 0 32.................p....j7+++uJ....I+++++B....;
#X connect 19 0 5 1 32.................G....L8++++A....S++++6.....;
#X connect 19 0 11 0 32.................u....z7++++K....M++++iC....;
#X connect 19 0 9 0 32.................EA...X++++eQ....1++++KE....;
#X connect 20 0 4 1 32.................J....z8+++uB....c++++SA....;
#X connect 20 0 16 1 32.................ZA...T9+++uV....k++++OF....;
#X connect 21 0 3 1 32.................J....P8+++uB....T++++SA....;
#X connect 21 0 11 1 32.................bA...78+++OW....e++++yF....;
#X connect 22 0 0 0;
#X connect 22 0 1 0;
#X connect 22 0 2 0 48.................J....7M...fB....eC...n....vBA...J....rP....O....;
#X connect 23 0 22 1;
#X connect 24 0 32 0;
#X connect 27 0 33 0;
#X connect 28 0 34 0;
#X connect 29 0 28 1;
#X connect 30 0 29 1;
#X connect 32 0 22 0;
#X connect 33 0 28 0;
#X connect 33 0 35 0;
#X connect 34 0 32 1;
#X connect 35 0 29 0;
#X connect 36 0 25 0;
#X connect 37 0 38 0;
#X connect 38 0 36 1;
#X restore 224 89 pd main;
#X obj 17 150 hsl 128 17 -2 2 0 0 \$0-param-presence empty presence -2 -8 0 10 #e4e4e4 #4d4d4d #373737 0 1;
#X obj 17 189 hsl 128 17 -80 0 0 0 \$0-param-volume empty volume -2 -8 0 10 #e4e4e4 #4d4d4d #373737 0 1;
#X connect 1 0 6 0;
#X connect 1 1 6 0;
#X connect 6 0 2 1;
#X connect 6 0 2 0;
#X connect 6 0 3 0;
