#N canvas 827 239 527 327 12;
#X obj 314 166 sig~;
#X obj 489 47 inlet;
#X obj 314 47 inlet;
#X obj 314 135 expr $f1*(1+$f2), f 15;
#X obj 399 47 inlet;
#X obj 399 75 * \$1;
#X obj 314 232 delread4~ \$2;
#X text 314 27 delay time;
#X text 397 27 tap spread;
#X text 489 27 random depth;
#X obj 647 47 inlet;
#X text 647 27 random freq;
#X obj 314 268 outlet~;
#X obj 387 105 t b f;
#X obj 314 196 +~, f 28;
#X obj 489 105 random/noise.normalized~ 3;
#X connect 0 0 14 0;
#X connect 1 0 15 0;
#X connect 2 0 3 0;
#X connect 3 0 0 0;
#X connect 4 0 5 0;
#X connect 5 0 13 0;
#X connect 6 0 12 0;
#X connect 10 0 15 1;
#X connect 13 0 3 0;
#X connect 13 1 3 1;
#X connect 14 0 6 0;
#X connect 15 0 14 1;
