#N canvas 827 239 645 527 12;
#X obj -1 -1 cnv 15 555 514 empty empty Multi-tap\ Delay 21 35 0 42 #ecf8ff #373737 0;
#X obj 292 261 cnv 15 256 252 empty empty Feedback\ Level 56 12 0 24 #e6b8d6 #373737 0;
#X obj 292 3 cnv 15 256 252 empty empty Playback\ Level 56 12 0 24 #bce6ab #373737 0;
#X floatatom 12 464 10 0 4 2 Depth \$0-r-param-rnd-strength \$0-s-param-rnd-strength 24;
#X floatatom 5 322 10 0 1000 2 Time\ (ms) \$0-r-param-delaytime \$0-s-param-delaytime 24;
#X floatatom 5 126 10 0.1 2 2 Tap\ Spread \$0-r-param-tap-spread \$0-s-param-tap-spread 24;
#X obj 308 87 vsl 39 117 0 1 0 0 \$0-sparam-plevel1 \$0-rparam-plevel1 empty 0 -9 0 10 #e4e4e4 #4d4d4d #373737 0 1;
#X text 367 -39 Playback Levels;
#X obj 753 614 delwrite~ \$0-delayline1 8000;
#X obj 1067 248 prepend all;
#X obj 1241 248 prepend all;
#X obj 1415 248 prepend all;
#X obj 1589 248 prepend all;
#X obj 1067 358 *~, f 7;
#X obj 1293 358 *~, f 7;
#X obj 1293 424 throw~ \$0-feedback-bus;
#X obj 753 82 catch~ \$0-feedback-bus;
#X obj 18 1085 sigs~ 0 0 0 0, f 81;
#X obj 1091 325 r~ \$0-param-playback-levels;
#X obj 1317 325 r~ \$0-param-feedback-levels;
#X obj 18 1118 s~ \$0-param-playback-levels 4;
#X obj 753 311 *~;
#X obj 753 455 *~;
#X floatatom 5 196 10 -20 20 2 Saturation \$0-r-param-saturation \$0-s-param-saturation 24;
#X obj 764 424 !/ 1;
#X obj 753 392 hip~ 200;
#X obj 753 188 +~;
#X msg 48 858 200, f 7;
#X msg 713 858 1, f 7;
#X obj 18 798 loadbang;
#X obj 371 87 vsl 39 117 0 1 0 0 \$0-sparam-plevel2 \$0-rparam-plevel2 empty 0 -9 0 10 #e4e4e4 #4d4d4d #373737 0 1;
#X obj 432 87 vsl 39 117 0 1 0 0 \$0-sparam-plevel3 \$0-rparam-plevel3 empty 0 -9 0 10 #e4e4e4 #4d4d4d #373737 0 1;
#X obj 495 87 vsl 39 117 0 1 0 0 \$0-sparam-plevel4 \$0-rparam-plevel4 empty 0 -9 0 10 #e4e4e4 #4d4d4d #373737 0 1;
#X obj 305 230 atodb;
#X floatatom 305 211 6 0 0 0 - - - 0;
#X obj 368 230 atodb;
#X floatatom 368 211 6 0 0 0 - - - 12;
#X obj 429 230 atodb;
#X floatatom 429 211 6 0 0 0 - - - 12;
#X obj 492 230 atodb;
#X floatatom 492 211 6 0 0 0 - - - 12;
#X obj 565 1054 *, f 9;
#X obj 492 34 tgl 43 0 \$0-sparam-ptoggle4 \$0-rparam-ptoggle4 empty 17 7 0 10 #e4e4e4 #4d4d4d #373737 0 1;
#X obj 429 34 tgl 43 0 \$0-sparam-ptoggle3 \$0-rparam-ptoggle3 empty 17 7 0 10 #e4e4e4 #4d4d4d #373737 0 1;
#X obj 367 34 tgl 43 0 \$0-sparam-ptoggle2 \$0-rparam-ptoggle2 empty 17 7 0 10 #e4e4e4 #4d4d4d #373737 0 1;
#X obj 305 34 tgl 43 0 \$0-sparam-ptoggle1 \$0-rparam-ptoggle1 empty 17 7 0 10 #e4e4e4 #4d4d4d #373737 0 1;
#X obj 382 1054 *, f 9;
#X obj 200 1054 *, f 9;
#X obj 18 1054 *, f 9;
#X obj 597 1012 t b f;
#X obj 414 1012 t b f;
#X obj 232 1012 t b f;
#X obj 50 1012 t b f;
#X obj 307 341 vsl 38 122 0 1 0 0 \$0-sparam-flevel1 \$0-rparam-flevel1 empty 0 -9 0 10 #e4e4e4 #4d4d4d #373737 0 1;
#X obj 370 341 vsl 38 122 0 1 0 0 \$0-sparam-flevel2 \$0-rparam-flevel2 empty 0 -9 0 10 #e4e4e4 #4d4d4d #373737 0 1;
#X obj 431 341 vsl 38 122 0 1 0 0 \$0-sparam-flevel3 \$0-rparam-flevel3 empty 0 -9 0 10 #e4e4e4 #4d4d4d #373737 0 1;
#X obj 494 341 vsl 38 122 0 1 0 0 \$0-sparam-flevel4 \$0-rparam-flevel4 empty 0 -9 0 10 #e4e4e4 #4d4d4d #373737 0 1;
#X obj 304 493 atodb;
#X floatatom 304 470 6 0 0 0 - - - 0;
#X obj 367 493 atodb;
#X floatatom 367 470 6 0 0 0 - - - 12;
#X obj 428 493 atodb;
#X floatatom 428 470 6 0 0 0 - - - 12;
#X obj 491 493 atodb;
#X floatatom 491 470 6 0 0 0 - - - 12;
#X obj 491 288 tgl 43 0 \$0-sparam-ftoggle4 \$0-rparam-ftoggle4 empty 17 7 0 10 #e4e4e4 #4d4d4d #373737 0 1;
#X obj 428 288 tgl 43 0 \$0-sparam-ftoggle3 \$0-rparam-ftoggle3 empty 17 7 0 10 #e4e4e4 #4d4d4d #373737 0 1;
#X obj 366 288 tgl 43 0 \$0-sparam-ftoggle2 \$0-rparam-ftoggle2 empty 17 7 0 10 #e4e4e4 #4d4d4d #373737 0 1;
#X obj 304 288 tgl 43 0 \$0-sparam-ftoggle1 \$0-rparam-ftoggle1 empty 17 7 0 10 #e4e4e4 #4d4d4d #373737 0 1;
#X obj 18 628 loadmess 1;
#X obj 753 363 lop~ 3000;
#X floatatom 98 464 10 0.1 6 2 Rate \$0-r-param-rnd-spped \$0-s-param-rnd-spped 24;
#X msg 551 858 1, f 7;
#X msg 374 858 1, f 7;
#X floatatom 5 261 10 0 100 2 Tone \$0-r-param-tone \$0-s-param-tone 24;
#X obj 1067 212 r \$0-s-param-delaytime;
#X obj 161 540 s \$0-r-param-delaytime;
#X obj 48 886 s \$0-r-param-delaytime;
#X obj 1241 212 r \$0-s-param-tap-spread;
#X obj 207 886 s \$0-r-param-tap-spread;
#X obj 374 886 s \$0-r-param-rnd-strength;
#X obj 1415 212 r \$0-s-param-rnd-strength;
#X obj 551 886 s \$0-r-param-rnd-spped;
#X obj 1589 212 r \$0-s-param-rnd-spped;
#X obj 713 886 s \$0-s-param-saturation;
#X obj 848 278 r \$0-s-param-saturation;
#X obj 1067 424 outlet~;
#X obj 18 669 s \$0-rparam-plevel1;
#X obj 154 669 s \$0-rparam-plevel2;
#X obj 290 669 s \$0-rparam-plevel3;
#X obj 428 669 s \$0-rparam-plevel4;
#X obj 18 960 r \$0-sparam-plevel1;
#X obj 382 960 r \$0-sparam-plevel3;
#X obj 200 958 r \$0-sparam-plevel2;
#X obj 565 960 r \$0-sparam-plevel4;
#X obj 597 985 r \$0-sparam-ptoggle4;
#X obj 414 985 r \$0-sparam-ptoggle3;
#X obj 50 985 r \$0-sparam-ptoggle1;
#X obj 232 985 r \$0-sparam-ptoggle2;
#X obj 17 743 s \$0-rparam-flevel1;
#X obj 18 1307 sigs~ 0 0 0 0, f 81;
#X obj 565 1276 *, f 9;
#X obj 382 1276 *, f 9;
#X obj 200 1276 *, f 9;
#X obj 18 1276 *, f 9;
#X obj 597 1234 t b f;
#X obj 414 1234 t b f;
#X obj 232 1234 t b f;
#X obj 50 1234 t b f;
#X obj 18 1340 s~ \$0-param-feedback-levels 4;
#X obj 18 1182 r \$0-sparam-flevel1;
#X obj 50 1207 r \$0-sparam-ftoggle1;
#X obj 200 1180 r \$0-sparam-flevel2;
#X obj 232 1207 r \$0-sparam-ftoggle2;
#X obj 382 1182 r \$0-sparam-flevel3;
#X obj 414 1207 r \$0-sparam-ftoggle3;
#X obj 565 1182 r \$0-sparam-flevel4;
#X obj 597 1207 r \$0-sparam-ftoggle4;
#X obj 875 886 s \$0-s-param-tone;
#X obj 153 743 s \$0-rparam-flevel2;
#X obj 289 743 s \$0-rparam-flevel3;
#X obj 427 743 s \$0-rparam-flevel4;
#X obj 17 703 loadmess 0.4;
#X obj 872 309 r \$0-s-param-tone;
#X obj 764 112 inlet~;
#X obj 1293 389 sum~;
#X obj 872 338 - 50;
#X obj 872 368 / 50;
#X msg 875 858 50, f 7;
#X obj 673 278 loadbang;
#X obj 872 396 * 6;
#X msg 673 309 1200;
#X obj 753 524 tanh~;
#X obj 753 490 *~ 1;
#X obj 753 560 /~ 1;
#X obj 822 455 dbtoa;
#X obj 822 425 r \$0-s-param-saturation;
#X floatatom 822 484 5 0 0 0 - - - 12;
#X obj 1067 278 clone -do memory/cursor~ 4 \$0-delayline1, f 78;
#X obj 161 102 utility/tap-tempo;
#X obj 841 211 r \$0-param-diffusion;
#X floatatom 7 387 18 0 0.5 2 Diffusion - \$0-param-diffusion 24;
#N canvas 733 172 450 300 DiffusorChain 0;
#X obj 29 135 reverb/diffusor~ 7 0.7 5000;
#X obj 29 184 reverb/diffusor~ 9 0.7 6000;
#X obj 29 274 reverb/diffusor~ 13 0.7 5000;
#X obj 29 230 reverb/diffusor~ 11 0.7 5000;
#X obj 29 89 reverb/diffusor~ 3 0.7 6000;
#X obj 254 44 f;
#X obj 29 22 inlet~;
#X obj 254 14 inlet;
#X obj 29 321 outlet~;
#X connect 0 0 1 0;
#X connect 1 0 3 0;
#X connect 2 0 8 0;
#X connect 3 0 2 0;
#X connect 4 0 0 0;
#X connect 5 0 2 2 32.................CC...f3++++v....H9+++KM....;
#X connect 5 0 4 2 32.................M....P3+++eC....D9+++mA....;
#X connect 5 0 3 2 32.................VB...X3+++uk....F9+++aJ....;
#X connect 5 0 1 2 32.................uA...T3++++a....E9+++iG....;
#X connect 5 0 0 2 32.................6....P3++++N....D9+++eD....;
#X connect 6 0 4 0;
#X connect 7 0 5 0;
#X restore 753 248 pd DiffusorChain;
#X obj 753 338 filter/tilt~;
#X msg 207 858 0.25, f 7;
#X obj 683 177 click~;
#X obj 700 127 bng 25 250 50 0 empty empty empty 17 7 0 10 #e4e4e4 #4d4d4d #373737;
#X obj 1130 424 dac~ 1;
#X obj 696 253 dac~;
#X obj 822 136 osc~ 1000;
#X connect 6 0 33 0;
#X connect 9 0 138 0;
#X connect 10 0 138 1;
#X connect 11 0 138 2;
#X connect 12 0 138 3;
#X connect 13 0 86 0;
#X connect 13 0 147 0;
#X connect 14 0 125 0;
#X connect 16 0 26 0;
#X connect 17 0 20 0;
#X connect 18 0 13 1;
#X connect 19 0 14 1;
#X connect 21 0 143 0;
#X connect 22 0 133 0;
#X connect 24 0 22 1;
#X connect 25 0 22 0;
#X connect 26 0 142 0;
#X connect 27 0 77 0;
#X connect 28 0 84 0;
#X connect 29 0 27 0 32.................D....jA....A....Y....rA....;
#X connect 29 0 144 0 32.................H....fK....B....3B...XA....;
#X connect 29 0 73 0 32.................L....DV....C....gE...rA....;
#X connect 29 0 72 0 32.................P....Dg....D....QH...rA....;
#X connect 29 0 28 0 32.................T....Hq....E....xJ...nA....;
#X connect 29 0 128 0 32.................X....L0....F....SM...fB....;
#X connect 30 0 35 0;
#X connect 31 0 37 0;
#X connect 32 0 39 0;
#X connect 33 0 34 0;
#X connect 35 0 36 0;
#X connect 37 0 38 0;
#X connect 39 0 40 0;
#X connect 41 0 17 3;
#X connect 46 0 17 2;
#X connect 47 0 17 1;
#X connect 48 0 17 0;
#X connect 49 0 41 0;
#X connect 49 1 41 1;
#X connect 50 0 46 0;
#X connect 50 1 46 1;
#X connect 51 0 47 0;
#X connect 51 1 47 1;
#X connect 52 0 48 0;
#X connect 52 1 48 1;
#X connect 53 0 57 0;
#X connect 54 0 59 0;
#X connect 55 0 61 0;
#X connect 56 0 63 0;
#X connect 57 0 58 0;
#X connect 59 0 60 0;
#X connect 61 0 62 0;
#X connect 63 0 64 0;
#X connect 69 0 87 0;
#X connect 69 0 88 0;
#X connect 69 0 89 0;
#X connect 69 0 90 0;
#X connect 70 0 25 0;
#X connect 72 0 82 0;
#X connect 73 0 80 0;
#X connect 75 0 9 0;
#X connect 78 0 10 0;
#X connect 81 0 11 0;
#X connect 83 0 12 0;
#X connect 85 0 24 0 32.................2A...j8++++c....Y++++6G....;
#X connect 85 0 21 1 32.................F....r7+++uA....K++++u.....;
#X connect 91 0 48 0;
#X connect 92 0 46 0;
#X connect 93 0 47 0;
#X connect 94 0 41 0;
#X connect 95 0 49 0;
#X connect 96 0 50 0;
#X connect 97 0 52 0;
#X connect 98 0 51 0;
#X connect 100 0 109 0;
#X connect 101 0 100 3;
#X connect 102 0 100 2;
#X connect 103 0 100 1;
#X connect 104 0 100 0;
#X connect 105 0 101 0;
#X connect 105 1 101 1;
#X connect 106 0 102 0;
#X connect 106 1 102 1;
#X connect 107 0 103 0;
#X connect 107 1 103 1;
#X connect 108 0 104 0;
#X connect 108 1 104 1;
#X connect 110 0 104 0;
#X connect 111 0 108 0;
#X connect 112 0 103 0;
#X connect 113 0 107 0;
#X connect 114 0 102 0;
#X connect 115 0 106 0;
#X connect 116 0 101 0;
#X connect 117 0 105 0;
#X connect 122 0 99 0;
#X connect 122 0 119 0;
#X connect 122 0 120 0;
#X connect 122 0 121 0;
#X connect 123 0 126 0;
#X connect 124 0 26 1;
#X connect 125 0 15 0;
#X connect 126 0 127 0;
#X connect 127 0 130 0;
#X connect 128 0 118 0;
#X connect 129 0 131 0;
#X connect 130 0 143 2;
#X connect 131 0 143 1;
#X connect 132 0 134 0;
#X connect 133 0 132 0;
#X connect 134 0 8 0;
#X connect 135 0 133 1;
#X connect 135 0 134 1;
#X connect 135 0 137 0;
#X connect 136 0 135 0;
#X connect 138 0 13 0;
#X connect 138 0 14 0 32.................I....HN...PB....hC...rD....;
#X connect 139 0 76 0;
#X connect 140 0 142 1;
#X connect 142 0 21 0;
#X connect 143 0 70 0;
#X connect 144 0 79 0;
#X connect 145 0 26 1;
#X connect 146 0 145 0;
#X coords 0 0 1 1 550 512 1 0 0;
