#N canvas 827 239 527 327 12;
#X obj -1 -1 cnv 15 458 402 empty empty empty 7 13 0 22 #d5e1eb #f1f0e8 0;
#X obj 14 50 cnv 15 62 231 empty empty In 7 13 0 22 #34373c #f1f0e8 0;
#X obj 10 44 cnv 15 62 231 empty empty In 7 13 0 22 #b5c0d0 #f1f0e8 0;
#X obj 14 294 cnv 15 432 97 empty empty empty 7 13 0 22 #34373c #f1f0e8 0;
#X obj 10 288 cnv 15 432 98 empty empty Parameters 7 13 0 22 #b5c0d0 #f1f0e8 0;
#X obj 85 48 cnv 15 289 233 empty empty empty 67 13 0 22 #34373c #f1f0e8 0;
#X obj 80 44 cnv 15 289 231 empty empty Feedback\ Matrix 7 13 0 22 #b5c0d0 #f1f0e8 0;
#X obj 880 530 matrix/matrix~ 4 4;
#X obj 880 458 snake_in~ 4, f 95;
#X obj 869 772 snake_out~ 4, f 94;
#X obj 978 490 r \$0-matrix-coefficients;
#X msg 1062 700 all \$1;
#X msg 1453 700 all \$1;
#X msg 1643 700 all \$1;
#X obj 745 614 utility/splitter~ 4 -do;
#X obj 869 700 +~;
#X obj 1453 521 r \$0-get.tone;
#X obj 1643 672 r \$0-get.saturation;
#X obj 1172 160 * 2;
#X obj 1026 160 * 3;
#X obj 1026 220 *, f 5;
#X obj 1026 189 t b f;
#X obj 1172 220 *, f 5;
#X obj 1172 189 t b f;
#X obj 1318 220 *, f 5;
#X obj 1318 189 t b f;
#N canvas 733 172 450 300 playback-levels 0;
#X obj 14 172 s~ \$0-playback-levels 4;
#X obj 14 14 r \$0-get.outl0;
#X obj 14 52 sig~;
#X obj 14 87 lop~ 7;
#X obj 14 129 snake_in~ 4, f 62;
#X obj 150 52 sig~;
#X obj 150 87 lop~ 7;
#X obj 287 52 sig~;
#X obj 287 87 lop~ 7;
#X obj 424 52 sig~;
#X obj 424 87 lop~ 7;
#X obj 150 14 r \$0-get.outl1;
#X obj 287 14 r \$0-get.outl2;
#X obj 424 14 r \$0-get.outl3;
#X connect 1 0 2 0;
#X connect 2 0 3 0;
#X connect 3 0 4 0;
#X connect 4 0 0 0;
#X connect 5 0 6 0;
#X connect 6 0 4 1;
#X connect 7 0 8 0;
#X connect 8 0 4 2;
#X connect 9 0 10 0;
#X connect 10 0 4 3;
#X connect 11 0 5 0;
#X connect 12 0 7 0;
#X connect 13 0 9 0;
#X restore 570 125 pd playback-levels;
#X obj 536 150 bng 25 250 50 0 empty empty Reset -3 34 0 10 #e4e4e4 #4d4d4d #373737;
#N canvas 733 172 450 300 init 0;
#X obj 26 440 loadbang;
#X obj -928 582 s \$0-set.delaytime;
#X obj -745 582 s \$0-set.saturation;
#X obj -612 582 s \$0-set.tone;
#X obj -390 582 s \$0-set.depth;
#X obj -277 582 s \$0-set.rate;
#X msg -928 554 300;
#X obj 28 484 b;
#X msg -615 554 50;
#X msg -512 554 0;
#X obj -44 440 inlet;
#X obj 26 574 s \$0-set.inl0;
#X obj 152 574 s \$0-set.inl1;
#X obj 268 574 s \$0-set.inl2;
#X obj 387 574 s \$0-set.inl3;
#X msg 28 539 1;
#X msg 153 539 0;
#X msg 269 539 0;
#X msg 388 539 0;
#X msg 541 539 1;
#X msg 666 539 1;
#X msg 782 539 1;
#X msg 901 539 1;
#X obj 539 574 s \$0-set.outl0;
#X obj 665 574 s \$0-set.outl1;
#X obj 781 574 s \$0-set.outl2;
#X obj 900 574 s \$0-set.outl3;
#X obj -513 582 s \$0-set.density;
#X msg -744 554 3;
#X obj 26 694 s \$0-set.mtrx.l0;
#X obj 153 694 s \$0-set.mtrx.l1;
#X obj 269 694 s \$0-set.mtrx.l2;
#X obj 387 694 s \$0-set.mtrx.l3;
#X msg 28 667 0;
#X obj 530 694 s \$0-set.mtrx.l0.t;
#X obj 657 694 s \$0-set.mtrx.l0.t;
#X obj 787 694 s \$0-set.mtrx.l0.t;
#X obj 913 694 s \$0-set.mtrx.l0.t;
#X msg 532 667 1;
#X msg 659 667 1;
#X msg 789 667 1;
#X msg 915 667 1;
#X obj 28 838 s \$0-set.fbrow;
#X obj 206 838 s \$0-set.fbcol;
#X msg 29 807 0;
#X msg 207 807 0;
#X msg -389 554 4;
#X msg -276 554 0.1;
#X obj -136 580 s \$0-set.feedback;
#X msg -136 554 0.3;
#X msg 153 667 1;
#X msg 269 667 2;
#X msg 388 667 3;
#X obj 26 760 s \$0-set.mtrx.l0.t;
#X obj 153 760 s \$0-set.mtrx.l1.t;
#X obj 287 760 s \$0-set.mtrx.l2.t;
#X obj 415 760 s \$0-set.mtrx.l3.t;
#X msg 28 727 1;
#X msg 155 727 1;
#X msg 289 727 1;
#X msg 417 727 1;
#X connect 0 0 7 0;
#X connect 6 0 1 0;
#X connect 7 0 6 0;
#X connect 7 0 28 0;
#X connect 7 0 8 0;
#X connect 7 0 9 0;
#X connect 7 0 46 0;
#X connect 7 0 47 0;
#X connect 7 0 15 0;
#X connect 7 0 16 0;
#X connect 7 0 17 0;
#X connect 7 0 18 0;
#X connect 7 0 19 0;
#X connect 7 0 21 0;
#X connect 7 0 20 0;
#X connect 7 0 22 0;
#X connect 7 0 33 0;
#X connect 7 0 50 0;
#X connect 7 0 51 0;
#X connect 7 0 52 0;
#X connect 7 0 38 0;
#X connect 7 0 39 0;
#X connect 7 0 40 0;
#X connect 7 0 41 0;
#X connect 7 0 44 0;
#X connect 7 0 45 0;
#X connect 7 0 49 0;
#X connect 7 0 57 0;
#X connect 7 0 58 0;
#X connect 7 0 59 0;
#X connect 7 0 60 0;
#X connect 8 0 3 0;
#X connect 9 0 27 0;
#X connect 10 0 7 0;
#X connect 15 0 11 0;
#X connect 16 0 12 0;
#X connect 17 0 13 0;
#X connect 18 0 14 0;
#X connect 19 0 23 0;
#X connect 20 0 24 0;
#X connect 21 0 25 0;
#X connect 22 0 26 0;
#X connect 28 0 2 0;
#X connect 33 0 29 0;
#X connect 38 0 34 0;
#X connect 39 0 35 0;
#X connect 40 0 36 0;
#X connect 41 0 37 0;
#X connect 44 0 42 0;
#X connect 45 0 43 0;
#X connect 46 0 4 0;
#X connect 47 0 5 0;
#X connect 49 0 48 0;
#X connect 50 0 30 0;
#X connect 51 0 31 0;
#X connect 52 0 32 0;
#X connect 57 0 53 0;
#X connect 58 0 54 0;
#X connect 59 0 55 0;
#X connect 60 0 56 0;
#X restore 570 150 pd init;
#X msg 1383 255 all \$1;
#X msg 1612 257 all \$1;
#X obj 1383 285 clone -do random/noise.normalized~ 4 3;
#X obj 880 356 +~, f 75;
#X obj 880 390 snake_out~ 4, f 95;
#X obj 1383 226 r \$0-get.depth;
#X obj 1612 226 r \$0-get.rate;
#X obj 880 128 r \$0-get.delaytime;
#X floatatom 930 160 5 0 0 0 - - - 12;
#X obj 880 248 sig~;
#X obj 1026 248 sig~;
#X obj 1172 248 sig~;
#X obj 1318 248 sig~;
#X obj 880 323 snake_in~ 4, f 66;
#X obj 745 673 *~;
#X obj 756 641 r~ \$0-input-matrix;
#X obj 1256 672 r \$0-diffusor-coefficients;
#N canvas 733 172 450 300 diffusor-coefficients 0;
#X obj 31 63 b;
#X obj 29 97 t b b b b, f 53;
#X obj 29 25 bng 25 250 50 0 empty empty empty 17 7 0 10 #e4e4e4 #4d4d4d #373737;
#X msg 29 125 0 2 11 23 41 59, f 14;
#X msg 144 125 1 3 13 29 43 61, f 14;
#X msg 259 125 2 5 17 31 47 67, f 14;
#X msg 375 125 3 7 19 37 53 71, f 14;
#X obj 63 31 loadbang;
#X obj 29 164 s \$0-diffusor-coefficients;
#X connect 0 0 1 0;
#X connect 1 0 3 0;
#X connect 1 1 4 0;
#X connect 1 2 5 0;
#X connect 1 3 6 0;
#X connect 2 0 0 0;
#X connect 3 0 8 0;
#X connect 4 0 8 0;
#X connect 5 0 8 0;
#X connect 6 0 8 0;
#X connect 7 0 0 0;
#X restore 570 98 pd diffusor-coefficients;
#X obj 874 926 r~ \$0-playback-levels 4;
#X obj 874 961 *~, f 31;
#X obj 1067 926 r~ \$0-output.real;
#N canvas 733 172 450 300 input-matrix 0;
#X obj 14 62 sig~;
#X obj 122 62 sig~;
#X obj 231 62 sig~;
#X obj 340 62 sig~;
#X obj 14 140 snake_in~ 4, f 50;
#X obj 14 174 s~ \$0-input-matrix 4;
#X obj 14 29 r \$0-get.inl0;
#X obj 122 29 r \$0-get.inl1;
#X obj 231 29 r \$0-get.inl2;
#X obj 340 29 r \$0-get.inl3;
#X obj 14 99 lop~ 7;
#X obj 122 99 lop~ 7;
#X obj 231 99 lop~ 7;
#X obj 340 99 lop~ 7;
#X connect 0 0 10 0;
#X connect 1 0 11 0;
#X connect 2 0 12 0;
#X connect 3 0 13 0;
#X connect 4 0 5 0;
#X connect 6 0 0 0;
#X connect 7 0 1 0;
#X connect 8 0 2 0;
#X connect 9 0 3 0;
#X connect 10 0 4 0;
#X connect 11 0 4 1;
#X connect 12 0 4 2;
#X connect 13 0 4 3;
#X restore 570 69 pd input-matrix;
#X obj 745 502 s~ \$0-output.real 4;
#X obj 162 126 hradio 33 1 0 4 \$0-get.mtrx.l1 \$0-set.mtrx.l1 empty 0 -8 0 10 #fcfcfc #fc2828 #404040 0;
#X obj 162 91 hradio 33 1 0 4 \$0-get.mtrx.l0 \$0-set.mtrx.l0 empty 0 -8 0 10 #fcfcfc #fc2828 #404040 0;
#X obj 162 161 hradio 33 1 0 4 \$0-get.mtrx.l2 \$0-set.mtrx.l2 empty 0 -8 0 10 #fcfcfc #fc2828 #404040 0;
#X obj 162 196 hradio 33 1 0 4 \$0-get.mtrx.l3 \$0-set.mtrx.l3 empty 0 -8 0 10 #fcfcfc #fc2828 #404040 0;
#X obj 301 91 tgl 33 0 \$0-get.mtrx.l0.t \$0-set.mtrx.l0.t empty 17 7 0 10 #f1f0e8 #4d4941 #373737 0 1;
#X obj 301 126 tgl 33 0 \$0-get.mtrx.l1.t \$0-set.mtrx.l1.t empty 17 7 0 10 #f1f0e8 #4d4941 #373737 0 1;
#X obj 301 161 tgl 34 0 \$0-get.mtrx.l2.t \$0-set.mtrx.l2.t empty 17 7 0 10 #f1f0e8 #4d4941 #373737 0 1;
#X obj 301 196 tgl 34 0 \$0-get.mtrx.l3.t \$0-set.mtrx.l3.t empty 17 7 0 10 #f1f0e8 #4d4941 #373737 0 1;
#X text 198 67 fb1;
#X text 232 68 fb2;
#X text 265 67 fb3;
#X obj 125 91 vradio 34 1 0 4 \$0-get.fbrow \$0-set.fbrow empty 0 -8 0 10 #f1f0e8 #ee3219 #373737 0;
#X obj 163 232 hradio 33 1 0 4 \$0-get.fbcol \$0-set.fbcol empty 0 -8 0 10 #f1f0e8 #ee3219 #373737 0;
#X obj 99 91 vsl 22 139 0 1 0 0 \$0-get.feedback \$0-set.feedback Fdbck -4 -11 0 15 #f1f0e8 #e73118 #f1f0e8 0 1;
#X obj 23 89 tgl 34 0 \$0-get.inl0 \$0-set.inl0 dl0 17 7 0 10 #f1f0e8 #4d4941 #373737 0 1;
#X obj 23 124 tgl 34 0 \$0-get.inl1 \$0-set.inl1 dl1 17 7 0 10 #f1f0e8 #4d4941 #373737 0 1;
#X obj 23 159 tgl 34 0 \$0-get.inl2 \$0-set.inl2 dl2 17 7 0 10 #f1f0e8 #4d4941 #373737 0 1;
#X obj 23 194 tgl 34 0 \$0-get.inl3 \$0-set.inl3 dl3 17 7 0 10 #f1f0e8 #4d4941 #373737 0 1;
#X obj 249 357 nbx 5 22 0 10 0 0 \$0-get.saturation \$0-set.saturation Drive\ (dB) -5 -8 0 13 #f1f0e8 #4d4941 #f1f0e8 0 256;
#X obj 145 309 nbx 5 22 0 2000 0 0 \$0-get.delaytime \$0-set.delaytime Time\ (ms) -5 -8 0 13 #f1f0e8 #4d4941 #f1f0e8 0 256;
#X obj 249 309 nbx 5 22 0 100 0 0 \$0-get.tone \$0-set.tone Tone -5 -8 0 13 #f1f0e8 #4d4941 #f1f0e8 0 256;
#X obj 350 309 nbx 5 22 0 4 0 0 \$0-get.depth \$0-set.depth Depth -5 -8 0 13 #f1f0e8 #4d4941 #f1f0e8 0 256;
#X obj 350 357 nbx 5 22 0.01 6 1 0 \$0-get.rate \$0-set.rate Rate -5 -8 0 13 #f1f0e8 #4d4941 #f1f0e8 0 256;
#X obj 45 329 bng 49 250 50 0 \$0-get.taptempo \$0-set.taptempo Tap\ Tempo -6 -10 0 13 #f1f0e8 #4d4941 #f1f0e8;
#X obj 384 50 cnv 15 62 231 empty empty Out 7 13 0 22 #34373c #f1f0e8 0;
#X obj 380 44 cnv 15 62 231 empty empty Out 7 13 0 22 #b5c0d0 #f1f0e8 0;
#X obj 395 91 tgl 34 0 \$0-get.outl0 \$0-set.outl0 dl0 17 7 0 10 #f1f0e8 #4d4941 #373737 0 1;
#X obj 395 126 tgl 34 0 \$0-get.outl1 \$0-set.outl1 dl1 17 7 0 10 #f1f0e8 #4d4941 #373737 0 1;
#X obj 395 161 tgl 34 0 \$0-get.outl2 \$0-set.outl2 dl2 17 7 0 10 #f1f0e8 #4d4941 #373737 0 1;
#X obj 395 196 tgl 34 0 \$0-get.outl3 \$0-set.outl3 dl3 17 7 0 10 #f1f0e8 #4d4941 #373737 0 1;
#X text 330 166 dl2;
#X text 331 133 dl1;
#X text 330 96 dl0;
#X obj 145 357 nbx 5 22 0 100 0 0 \$0-get.density \$0-set.density Density -5 -8 0 13 #f1f0e8 #4d4941 #f1f0e8 0 256;
#X obj 14 11 cnv 15 434 26 empty empty empty 7 13 0 22 #43474d #f1f0e8 0;
#X obj 10 7 cnv 15 434 26 empty empty 4x4\ Tap\ Delay 7 13 0 22 #b5c0d0 #f1f0e8 0;
#X text 330 202 dl3;
#X text 163 67 fb0;
#X obj 3246 220 * 4;
#X obj 3128 283 +, f 22;
#X obj 3246 250 t b f;
#X obj 3128 250 r \$0-get.fbcol;
#X obj 3246 188 r \$0-get.fbrow;
#X obj 3172 30 array define \$0-matrix 16;
#X obj 2996 310 r \$0-get.feedback;
#X obj 3185 421 uzi 4, f 17;
#X msg 3233 452 0;
#X floatatom 3232 481 5 0 0 0 - - - 12;
#X msg 3187 452 1;
#X obj 3185 481 + 0;
#X obj 3185 513 - 1;
#X obj 3128 385 t b f;
#X obj 3130 604 f;
#X text 3174 162 Control matrix cell selected;
#X obj 3108 977 array set \$0-matrix, f 23;
#X obj 3267 774 r \$0-get.mtrx.l0.t;
#X obj 3108 856 spigot;
#X obj 3108 774 r \$0-get.mtrx.l0;
#X msg 3177 945 0;
#X obj 3176 913 loadbang;
#X obj 3538 947 array set \$0-matrix, f 23;
#X obj 3538 823 spigot;
#X obj 3606 883 loadbang;
#X obj 3940 947 array set \$0-matrix, f 23;
#X obj 3940 823 spigot;
#X obj 4008 883 loadbang;
#X obj 4361 947 array set \$0-matrix, f 23;
#X obj 4361 823 spigot;
#X obj 4429 883 loadbang;
#X obj 3538 789 r \$0-get.mtrx.l1;
#X obj 3940 789 r \$0-get.mtrx.l2;
#X obj 4361 789 r \$0-get.mtrx.l3;
#X msg 3607 915 4;
#X msg 4009 915 8;
#X obj 3128 349 f;
#X msg 4428 915 12;
#X obj 3185 539 * 5;
#X obj 3172 63 array define \$0-feedback 16;
#X obj 3128 665 array set \$0-feedback;
#X obj 3168 385 array set \$0-feedback, f 23;
#X obj 3185 569 t b f;
#X obj 3128 310 t b f b, f 14;
#X msg 3203 349 1;
#X obj 3722 271 loadbang;
#X obj 3722 300 uzi 16;
#X msg 3770 333 0;
#X floatatom 3769 362 5 0 0 0 - - - 12;
#X msg 3724 333 1;
#X obj 3722 362 + 0;
#X obj 3722 394 - 1;
#X obj 3736 486 array set \$0-feedback;
#X msg 3738 454 1;
#X floatatom 3191 1398 5 0 15 0 - - - 0;
#X obj 3191 1425 i;
#X obj 3252 1381 loadbang;
#X obj 3252 1416 symbol \$0-matrix;
#X obj 3385 1416 symbol \$0-feedback;
#X msg 3151 1270 0;
#X floatatom 3150 1299 5 0 0 0 - - - 12;
#X obj 3103 1299 + 0;
#X obj 3101 1112 bng 25 250 50 0 empty empty empty 17 7 0 10 #e4e4e4 #4d4d4d #373737;
#X obj 3103 1239 uzi 16, f 17;
#X obj 3146 1425 % 4;
#X obj 3103 1425 / 4;
#X obj 3092 1584 i;
#X obj 3103 1363 t f f f, f 16;
#X msg 3103 1270 -1;
#X obj 3103 1331 + 16;
#X obj 3146 1584 pack f f f f, f 26;
#X obj 3146 1542 route 0 1 2 3, f 34;
#X obj 3146 1512 pack f f;
#X obj 3135 1614 t b l;
#X obj 3092 1645 list append;
#X obj 3092 1682 s \$0-matrix-coefficients, f 23;
#X text 3676 240 Init feedback matrix to all ones;
#X obj 3093 1005 s \$0-update-mtrx-dsp;
#X obj 3517 975 s \$0-update-mtrx-dsp;
#X obj 3920 975 s \$0-update-mtrx-dsp;
#X obj 4341 975 s \$0-update-mtrx-dsp;
#X obj 3104 692 s \$0-update-mtrx-dsp;
#X obj 3093 913 t b l;
#X obj 3538 883 t b l;
#X obj 3940 883 t b l;
#X obj 4361 883 t b l;
#X obj 3133 1112 r \$0-update-mtrx-dsp;
#X obj 3115 635 t b f;
#X obj 3722 511 s \$0-update-mtrx-dsp;
#X obj 3722 424 t b b f;
#X obj 3172 100 array define \$0-hadamard 16;
#X f 26;
#X obj 3471 34 loadbang;
#X obj 3471 154 array set \$0-hadamard;
#X obj 3471 93 t l b;
#X msg 3533 125 0;
#X obj 3531 1416 symbol \$0-hadamard;
#X obj 3692 1416 r \$0-get.feedback;
#X obj 3826 1363 r \$0-get.density;
#X obj 3826 1443 t b f;
#X obj 3327 1376 bng 25 250 50 0 empty empty empty 17 7 0 10 #e4e4e4 #4d4d4d #373737;
#X obj 3101 1175 limit 100;
#X obj 3827 1510 s \$0-update-mtrx-dsp;
#X msg 3471 63 1 1 1 1 1 -1 1 -1 1 1 -1 -1 1 -1 -1 1;
#X msg 3267 886 0 0 0 0;
#X obj 869 803 delwrite~ \$0-delay0 2000;
#X obj 1080 803 delwrite~ \$0-delay1 2000;
#X obj 1292 803 delwrite~ \$0-delay2 2000;
#X obj 1504 803 delwrite~ \$0-delay3 2000;
#X obj 880 424 delread4~ \$0-delay0;
#X obj 1094 424 delread4~ \$0-delay1;
#X obj 1308 424 delread4~ \$0-delay2;
#X obj 1522 424 delread4~ \$0-delay3;
#X obj 880 285 lop~ 7;
#X obj 1026 285 lop~ 7;
#X obj 1172 285 lop~ 7;
#X obj 1318 285 lop~ 7;
#X obj 570 286 utility/tap-tempo 1 4;
#X obj 570 315 s \$0-set.delaytime;
#X obj 1172 68 loadbang;
#X obj 869 735 clone -d saturation/character2~ 4, f 114;
#X obj 1062 583 r \$0-get.density;
#X obj 1062 614 / 100;
#X obj 1062 641 sqrt;
#X obj 1062 672 * 0.5;
#X obj 3267 831 moses 0.5, f 15;
#X obj 3267 802 t f f;
#X obj 3269 857 b;
#X obj 3354 860 b;
#X obj 3352 886 s \$0-set.mtrx.l0;
#X msg 3704 901 0 0 0 0;
#X obj 3704 846 moses 0.5, f 15;
#X obj 3704 817 t f f;
#X obj 3706 872 b;
#X obj 3791 875 b;
#X obj 3704 789 r \$0-get.mtrx.l1.t;
#X obj 3789 901 s \$0-set.mtrx.l1;
#X msg 4102 901 0 0 0 0;
#X obj 4102 846 moses 0.5, f 15;
#X obj 4102 817 t f f;
#X obj 4104 872 b;
#X obj 4189 875 b;
#X obj 4102 789 r \$0-get.mtrx.l2.t;
#X obj 4187 901 s \$0-set.mtrx.l2;
#X msg 4524 907 0 0 0 0;
#X obj 4524 852 moses 0.5, f 15;
#X obj 4524 823 t f f;
#X obj 4526 878 b;
#X obj 4611 883 b;
#X obj 4524 789 r \$0-get.mtrx.l3.t;
#X obj 4609 909 s \$0-set.mtrx.l3;
#X obj 3191 1484 expr $s4[$f1]*($s2[$f1]*$s3[$f1]*(1-$f6*0.01)+$f6*0.01*$f5), f 96;
#X obj 3826 1398 expr sqrt($f1/100)*100;
#X text 3226 538 Always control feedback on diagonal of the matrix;
#X obj 570 259 r \$0-get.taptempo;
#N canvas 733 172 450 300 matrix.color 0;
#X obj 59 1226 s \$0-set.mtrx.l0;
#X msg 260 1151 color 10 1 2;
#X msg 59 1151 color 0 13 2;
#X msg 161 1151 color 0 2 2;
#X text 59 1128 Feedback;
#X text 161 1128 On;
#X text 262 1128 Deactivate;
#X obj 59 1038 r \$0-get.mtrx.l0;
#X obj 130 1102 route 0;
#X obj 350 1003 r \$0-get.mtrx.l0.t;
#X obj 59 1187 spigot;
#X obj 260 1187 spigot;
#X obj 364 1151 !- 1;
#X obj 350 1094 t b f;
#X obj 402 1038 route 1;
#X obj 404 1067 b;
#X msg 260 1405 color 10 1 2;
#X msg 59 1405 color 0 13 2;
#X msg 161 1405 color 0 2 2;
#X text 59 1382 Feedback;
#X text 161 1382 On;
#X text 262 1382 Deactivate;
#X obj 59 1441 spigot;
#X obj 260 1441 spigot;
#X obj 364 1405 !- 1;
#X obj 350 1348 t b f;
#X obj 402 1292 route 1;
#X obj 404 1321 b;
#X obj 59 1326 r \$0-get.mtrx.l1;
#X obj 350 1257 r \$0-get.mtrx.l1.t;
#X obj 59 1480 s \$0-set.mtrx.l1;
#X obj 130 1356 route 1;
#X msg 258 1667 color 10 1 2;
#X msg 57 1667 color 0 13 2;
#X msg 159 1667 color 0 2 2;
#X text 57 1644 Feedback;
#X text 159 1644 On;
#X text 260 1644 Deactivate;
#X obj 57 1703 spigot;
#X obj 258 1703 spigot;
#X obj 362 1667 !- 1;
#X obj 348 1610 t b f;
#X obj 400 1554 route 1;
#X obj 402 1583 b;
#X obj 57 1588 r \$0-get.mtrx.l2;
#X obj 348 1519 r \$0-get.mtrx.l2.t;
#X obj 57 1742 s \$0-set.mtrx.l2;
#X obj 128 1618 route 2;
#X msg 260 1919 color 10 1 2;
#X msg 59 1919 color 0 13 2;
#X msg 161 1919 color 0 2 2;
#X text 59 1896 Feedback;
#X text 161 1896 On;
#X text 262 1896 Deactivate;
#X obj 59 1955 spigot;
#X obj 260 1955 spigot;
#X obj 364 1919 !- 1;
#X obj 350 1862 t b f;
#X obj 402 1806 route 1;
#X obj 404 1835 b;
#X obj 59 1840 r \$0-get.mtrx.l3;
#X obj 130 1870 route 3;
#X obj 350 1771 r \$0-get.mtrx.l3.t;
#X obj 59 1994 s \$0-set.mtrx.l3;
#X connect 1 0 11 0;
#X connect 2 0 10 0;
#X connect 3 0 10 0;
#X connect 7 0 2 0;
#X connect 7 0 8 0;
#X connect 8 0 2 0;
#X connect 8 1 3 0;
#X connect 9 0 13 0;
#X connect 9 0 14 0;
#X connect 10 0 0 0;
#X connect 11 0 0 0;
#X connect 12 0 11 1;
#X connect 13 0 1 0;
#X connect 13 1 12 0;
#X connect 13 1 10 1 32.................9....rt+++uO....q6+++mD....;
#X connect 14 0 15 0;
#X connect 15 0 0 0 64.................LB...74+++Oi....e9+++uH...fa++++KB...31++++h....p5+++uH...fp9+++KB....;
#X connect 16 0 23 0;
#X connect 17 0 22 0;
#X connect 18 0 22 0;
#X connect 22 0 30 0;
#X connect 23 0 30 0;
#X connect 24 0 23 1;
#X connect 25 0 16 0;
#X connect 25 1 24 0;
#X connect 25 1 22 1 32.................9....rt+++uO....q6+++mD....;
#X connect 26 0 27 0;
#X connect 27 0 30 0 64.................LB...74+++Oi....e9+++yH...fa++++LB...31++++h....p5+++uH...fp9+++KB....;
#X connect 28 0 17 0;
#X connect 28 0 31 0;
#X connect 29 0 25 0;
#X connect 29 0 26 0;
#X connect 31 0 17 0;
#X connect 31 1 18 0;
#X connect 32 0 39 0;
#X connect 33 0 38 0;
#X connect 34 0 38 0;
#X connect 38 0 46 0;
#X connect 39 0 46 0;
#X connect 40 0 39 1;
#X connect 41 0 32 0;
#X connect 41 1 40 0;
#X connect 41 1 38 1 32.................9....rt+++uO....q6+++mD....;
#X connect 42 0 43 0;
#X connect 43 0 46 0 64.................LB...74+++Oi....e9+++yH...fa++++LB...31++++h....p5+++uH...fp9+++KB....;
#X connect 44 0 33 0;
#X connect 44 0 47 0;
#X connect 45 0 41 0;
#X connect 45 0 42 0;
#X connect 47 0 33 0;
#X connect 47 1 34 0;
#X connect 48 0 55 0;
#X connect 49 0 54 0;
#X connect 50 0 54 0;
#X connect 54 0 63 0;
#X connect 55 0 63 0;
#X connect 56 0 55 1;
#X connect 57 0 48 0;
#X connect 57 1 56 0;
#X connect 57 1 54 1 32.................9....rt+++uO....q6+++mD....;
#X connect 58 0 59 0;
#X connect 59 0 63 0 64.................LB...74+++Oi....e9+++yH...fa++++LB...31++++h....p5+++uH...fp9+++KB....;
#X connect 60 0 49 0;
#X connect 60 0 61 0;
#X connect 61 0 49 0;
#X connect 61 1 50 0;
#X connect 62 0 57 0;
#X connect 62 0 58 0;
#X restore 571 40 pd matrix.color;
#X obj 745 543 inlet~;
#X obj 874 997 outlet~;
#X obj 1870 381 route in fbmtrx out param, f 111;
#X obj 2435 423 route tap time tone depth density drive rate;
#X obj 2435 452 s \$0-set.taptempo;
#X obj 2469 552 s \$0-set.delaytime;
#X obj 2504 609 s \$0-set.tone;
#X obj 2538 662 s \$0-set.depth;
#X obj 2573 721 s \$0-set.density;
#X obj 2607 773 s \$0-set.saturation;
#X obj 2642 829 s \$0-set.rate;
#X obj 2247 456 s \$0-set.outl0;
#X obj 2266 489 s \$0-set.outl1;
#X obj 2286 518 s \$0-set.outl2;
#X obj 2305 551 s \$0-set.outl3;
#X obj 1870 456 s \$0-set.inl0;
#X obj 1889 489 s \$0-set.inl1;
#X obj 1909 518 s \$0-set.inl2;
#X obj 1928 551 s \$0-set.inl3;
#X obj 2058 641 s \$0-set.feedback;
#X obj 2093 671 s \$0-set.fbrow;
#X obj 2129 700 s \$0-set.fbcol;
#X obj 2165 729 s \$0-set.mtrx.l0;
#X obj 2201 754 s \$0-set.mtrx.l1;
#X obj 2237 782 s \$0-set.mtrx.l2;
#X obj 2272 811 s \$0-set.mtrx.l3;
#X obj 2308 840 s \$0-set.mtrx.l0.t;
#X obj 2344 868 s \$0-set.mtrx.l1.t;
#X obj 2380 896 s \$0-set.mtrx.l2.t;
#X obj 2416 923 s \$0-set.mtrx.l3.t;
#X obj 1870 423 route t1 t2 t3 t4;
#X obj 2247 423 route t1 t2 t3 t4;
#X obj 2058 610 route fdback fbrow fbcol mtrxl0 mtrxl1 mtrxl2 mtrxl3 on0 on1 on2 on3;
#X obj 2469 523 scale 0 1 0 2000;
#X obj 2504 581 scale 0 1 0 100;
#X obj 2538 634 scale 0 1 0 4;
#X obj 2573 694 scale 0 1 0 100;
#X obj 2607 748 scale 0 1 0 10;
#X obj 2642 801 scale 0 1 0 6;
#X obj 2469 489 pow 1.5;
#X obj 1870 264 inlet;
#X obj 3108 886 utility/radio2switch.4, f 21;
#X obj 3538 856 utility/radio2switch.4, f 21;
#X obj 3940 856 utility/radio2switch.4, f 21;
#X obj 4361 856 utility/radio2switch.4, f 21;
#X obj 1453 664 + 600;
#X obj 1453 632 * 19400;
#X obj 1453 590 pow 4;
#X obj 1453 554 expr $f1/100;
#X obj 627 605 adc~;
#X obj 722 997 snake_out~ 4;
#X obj 722 1074 dac~, f 13;
#X obj 619 502 click~;
#X obj 598 448 bng 25 250 50 0 empty empty empty 17 7 0 10 #e4e4e4 #4d4d4d #373737;
#X msg 1172 108 0.25;
#X connect 7 0 15 1;
#X connect 8 0 51 0;
#X connect 8 0 7 0;
#X connect 9 0 194 0;
#X connect 9 1 195 0;
#X connect 9 2 196 0;
#X connect 9 3 197 0;
#X connect 10 0 7 1;
#X connect 11 0 209 1;
#X connect 12 0 209 3;
#X connect 13 0 209 4;
#X connect 14 0 43 0;
#X connect 15 0 209 0;
#X connect 16 0 293 0;
#X connect 17 0 13 0;
#X connect 18 0 23 0;
#X connect 19 0 21 0;
#X connect 20 0 39 0;
#X connect 21 0 20 0;
#X connect 21 1 20 1;
#X connect 22 0 40 0;
#X connect 23 0 22 0;
#X connect 23 1 22 1;
#X connect 24 0 41 0;
#X connect 25 0 24 0;
#X connect 25 1 24 1;
#X connect 27 0 28 0;
#X connect 29 0 31 0;
#X connect 30 0 31 1;
#X connect 31 0 32 1;
#X connect 32 0 33 0;
#X connect 33 0 198 0;
#X connect 33 1 199 0;
#X connect 33 2 200 0;
#X connect 33 3 201 0;
#X connect 34 0 29 0;
#X connect 35 0 30 0;
#X connect 36 0 20 0 32.................hA...HI...fX....RB...XF....;
#X connect 36 0 22 0 48.................gA...bK...PX....2B....F....IA...fA...PR...fY....;
#X connect 36 0 24 0 48.................dA...zV...fW....sE...3E...fsA...dA...Xa...fY....;
#X connect 36 0 37 0;
#X connect 36 0 38 0;
#X connect 38 0 202 0;
#X connect 39 0 203 0;
#X connect 40 0 204 0;
#X connect 41 0 205 0;
#X connect 42 0 32 0;
#X connect 43 0 15 0;
#X connect 44 0 43 1;
#X connect 45 0 209 2;
#X connect 47 0 48 0;
#X connect 48 0 246 0;
#X connect 48 0 295 0;
#X connect 49 0 48 1;
#X connect 90 0 92 0;
#X connect 91 0 133 0;
#X connect 92 0 91 0;
#X connect 92 1 91 1;
#X connect 93 0 91 0;
#X connect 94 0 90 0;
#X connect 96 0 126 0;
#X connect 97 0 100 0;
#X connect 97 1 98 0;
#X connect 98 0 99 0;
#X connect 99 0 101 1;
#X connect 100 0 101 0;
#X connect 101 0 99 0;
#X connect 101 0 102 0;
#X connect 102 0 128 0;
#X connect 103 0 97 0;
#X connect 103 1 104 1;
#X connect 104 0 177 0;
#X connect 107 0 215 0;
#X connect 108 0 286 0;
#X connect 109 0 108 0;
#X connect 110 0 106 1;
#X connect 111 0 110 0;
#X connect 113 0 287 0;
#X connect 114 0 124 0;
#X connect 116 0 288 0;
#X connect 117 0 125 0;
#X connect 119 0 289 0;
#X connect 120 0 127 0;
#X connect 121 0 113 0;
#X connect 122 0 116 0;
#X connect 123 0 119 0;
#X connect 124 0 112 1;
#X connect 125 0 115 1;
#X connect 126 0 103 0;
#X connect 126 0 131 0;
#X connect 127 0 118 1;
#X connect 128 0 132 0;
#X connect 132 0 104 0;
#X connect 132 1 130 1;
#X connect 133 0 126 0;
#X connect 133 1 131 1 32.................w....rD...PL....KA...bC....;
#X connect 133 2 134 0;
#X connect 134 0 131 0;
#X connect 135 0 136 0;
#X connect 136 0 139 0;
#X connect 136 1 137 0;
#X connect 137 0 138 0;
#X connect 138 0 140 1;
#X connect 139 0 140 0;
#X connect 140 0 138 0;
#X connect 140 0 141 0;
#X connect 141 0 179 0;
#X connect 143 0 142 0;
#X connect 144 0 145 0;
#X connect 145 0 240 0;
#X connect 146 0 147 0;
#X connect 146 0 148 0;
#X connect 146 0 185 0;
#X connect 147 0 240 1;
#X connect 148 0 240 2;
#X connect 149 0 150 0;
#X connect 150 0 151 1;
#X connect 151 0 150 0;
#X connect 151 0 159 0;
#X connect 152 0 190 0;
#X connect 153 0 158 0;
#X connect 153 1 149 0;
#X connect 154 0 162 0;
#X connect 155 0 156 1;
#X connect 156 0 164 0;
#X connect 157 0 155 0;
#X connect 157 1 154 0;
#X connect 157 2 144 0;
#X connect 158 0 151 0;
#X connect 159 0 157 0;
#X connect 160 0 163 0;
#X connect 161 0 160 0;
#X connect 161 1 160 1;
#X connect 161 2 160 2;
#X connect 161 3 160 3;
#X connect 162 0 161 0;
#X connect 163 0 156 0;
#X connect 163 1 164 1;
#X connect 164 0 165 0;
#X connect 172 0 167 0;
#X connect 172 1 106 0;
#X connect 173 0 168 0;
#X connect 173 1 112 0;
#X connect 174 0 169 0;
#X connect 174 1 115 0;
#X connect 175 0 170 0;
#X connect 175 1 118 0;
#X connect 176 0 190 0;
#X connect 177 0 171 0;
#X connect 177 1 130 0;
#X connect 179 0 178 0;
#X connect 179 1 143 0;
#X connect 179 2 142 1;
#X connect 181 0 192 0;
#X connect 183 0 182 0;
#X connect 183 1 184 0;
#X connect 184 0 182 1;
#X connect 185 0 240 3;
#X connect 186 0 240 4;
#X connect 187 0 241 0;
#X connect 188 0 191 0;
#X connect 188 1 240 5;
#X connect 189 0 185 0;
#X connect 189 0 148 0;
#X connect 189 0 147 0;
#X connect 190 0 153 0;
#X connect 192 0 183 0;
#X connect 193 0 172 0;
#X connect 198 0 8 0;
#X connect 199 0 8 1;
#X connect 200 0 8 2;
#X connect 201 0 8 3;
#X connect 202 0 42 0;
#X connect 203 0 42 1;
#X connect 204 0 42 2;
#X connect 205 0 42 3;
#X connect 206 0 207 0;
#X connect 208 0 299 0;
#X connect 209 0 9 0;
#X connect 210 0 211 0;
#X connect 211 0 212 0;
#X connect 212 0 213 0;
#X connect 213 0 11 0;
#X connect 214 0 216 0;
#X connect 214 1 217 0;
#X connect 215 0 214 0;
#X connect 215 1 108 1;
#X connect 216 0 193 0;
#X connect 217 0 218 0;
#X connect 219 0 173 0;
#X connect 220 0 222 0;
#X connect 220 1 223 0;
#X connect 221 0 220 0;
#X connect 221 1 113 1;
#X connect 222 0 219 0;
#X connect 223 0 225 0;
#X connect 224 0 221 0;
#X connect 226 0 174 0;
#X connect 227 0 229 0;
#X connect 227 1 230 0;
#X connect 228 0 227 0;
#X connect 228 1 116 1;
#X connect 229 0 226 0;
#X connect 230 0 232 0;
#X connect 231 0 228 0;
#X connect 233 0 175 0;
#X connect 234 0 236 0;
#X connect 234 1 237 0;
#X connect 235 0 234 0;
#X connect 235 1 119 1;
#X connect 236 0 233 0;
#X connect 237 0 239 0;
#X connect 238 0 235 0;
#X connect 240 0 162 1;
#X connect 241 0 188 0;
#X connect 243 0 206 0;
#X connect 245 0 14 0;
#X connect 247 0 275 0;
#X connect 247 1 277 0;
#X connect 247 2 276 0;
#X connect 247 3 248 0;
#X connect 248 0 249 0;
#X connect 248 1 284 0;
#X connect 248 2 279 0;
#X connect 248 3 280 0;
#X connect 248 4 281 0;
#X connect 248 5 282 0;
#X connect 248 6 283 0;
#X connect 275 0 260 0;
#X connect 275 1 261 0;
#X connect 275 2 262 0;
#X connect 275 3 263 0;
#X connect 276 0 256 0;
#X connect 276 1 257 0;
#X connect 276 2 258 0;
#X connect 276 3 259 0;
#X connect 277 0 264 0;
#X connect 277 1 265 0;
#X connect 277 2 266 0;
#X connect 277 3 267 0;
#X connect 277 4 268 0;
#X connect 277 5 269 0;
#X connect 277 6 270 0;
#X connect 277 7 271 0;
#X connect 277 8 272 0;
#X connect 277 9 273 0;
#X connect 277 10 274 0;
#X connect 278 0 250 0;
#X connect 279 0 251 0;
#X connect 280 0 252 0;
#X connect 281 0 253 0;
#X connect 282 0 254 0;
#X connect 283 0 255 0;
#X connect 284 0 278 0;
#X connect 285 0 247 0;
#X connect 286 0 172 0;
#X connect 287 0 173 0;
#X connect 288 0 174 0;
#X connect 289 0 175 0;
#X connect 290 0 12 0;
#X connect 291 0 290 0;
#X connect 292 0 291 0;
#X connect 293 0 292 0;
#X connect 294 0 14 0;
#X connect 294 0 296 0;
#X connect 294 1 14 0;
#X connect 294 1 296 1;
#X connect 295 0 296 0;
#X connect 295 1 296 0;
#X connect 295 2 296 1;
#X connect 295 3 296 1;
#X connect 297 0 14 0;
#X connect 297 0 296 0;
#X connect 297 0 296 1;
#X connect 298 0 297 0;
#X connect 299 0 25 0;
#X connect 299 0 18 0;
#X connect 299 0 19 0;
#X coords 0 0 1 1 457 401 1 0 0;
