#N canvas 827 239 527 327 12;
#X obj 291 80 adc~ 1 3 4;
#X obj 326 362 dac~ 1 2, f 11;
#X obj 291 156 hilbert~;
#X obj 381 156 hilbert~;
#X obj 467 156 hilbert~;
#X obj 381 240 *~ -1;
#X obj 464 239 +~;
#X connect 0 0 2 0;
#X connect 0 1 3 0;
#X connect 0 2 4 0;
#X connect 2 1 1 0;
#X connect 2 1 5 0;
#X connect 3 0 6 0;
#X connect 4 0 6 1;
#X connect 5 0 1 1;
#X connect 6 0 1 0;
