#N canvas 827 239 527 327 12;
#X obj 238 307 osc~;
#X obj 238 404 dac~;
#X obj 238 339 *~ 0.2;
#X obj 238 55 lfo 0.1 -saw;
#X obj 238 84 / 127;
#X obj 348 84 expr $f1/127*2-1;
#X obj 348 55 lfo 5 -sine;
#X obj 238 118 expr $f1+($f2*0.1+1);
#X obj 238 154 * 200;
#X obj 238 186 + 200;
#X obj 238 230 sig~;
#X obj 238 271 lop~ 7;
#X connect 0 0 2 0;
#X connect 2 0 1 0;
#X connect 2 0 1 1;
#X connect 3 0 4 0;
#X connect 4 0 7 0;
#X connect 5 0 7 1;
#X connect 6 0 5 0;
#X connect 7 0 8 0;
#X connect 8 0 9 0;
#X connect 9 0 10 0;
#X connect 10 0 11 0;
#X connect 11 0 0 0;
