#N canvas 827 239 527 327 12;
#X obj 299 74 pink~;
#X obj 299 206 reson~;
#X obj 299 324 dac~;
#X floatatom 314 98 4 0 0 0 - - - 16;
#X floatatom 513 134 12 0 0 0 - - - 24;
#X obj 428 86 / 127;
#X obj 335 166 + 354;
#X obj 428 47 lfo 0.1 -saw;
#X obj 335 134 * 354;
#X obj 345 11 loadbang;
#X connect 0 0 1 0;
#X connect 1 0 2 0;
#X connect 1 0 2 1;
#X connect 3 0 1 1;
#X connect 4 0 1 3;
#X connect 5 0 8 0;
#X connect 6 0 1 2;
#X connect 7 0 5 0;
#X connect 8 0 6 0;
#X connect 9 0 3 0;
#X connect 9 0 4 0;
