#N canvas 827 239 527 327 12;
#X obj 29 433 *~;
#X obj 40 397 inlet;
#X obj 29 368 *~;
#X obj 190 244 average~ rms 48000;
#X obj 40 244 average~ rms 48000;
#X obj 40 317 !/~;
#X obj 29 469 outlet~;
#X obj 29 93 noise~;
#X obj 58 148 inlet;
#X obj 29 195 lop.bw~ 7 4;
#X text 29 28 Random number generator at each DSP tick \; Based on a filtred noise normalized by some RMS averaging;
#X connect 0 0 6 0;
#X connect 1 0 0 1;
#X connect 2 0 0 0;
#X connect 3 0 5 1 32.................E....n2+++eA....58+++q.....;
#X connect 4 0 5 0;
#X connect 5 0 2 1;
#X connect 7 0 3 0 48.................G....rC...vA....6....rB...Pm....q....zI...fb....;
#X connect 7 0 9 0;
#X connect 8 0 9 1;
#X connect 9 0 2 0;
#X connect 9 0 4 0;
