#N canvas 827 239 527 327 12;
#X obj 503 186 inlet;
#X obj 693 186 inlet;
#X obj 503 328 +;
#X obj 503 267 * 0.5;
#X obj 693 267 * 0.5;
#X obj 503 377 outlet;
#X connect 0 0 3 0;
#X connect 1 0 4 0;
#X connect 2 0 5 0;
#X connect 3 0 2 0;
#X connect 4 0 2 1;
