#N canvas 827 239 527 327 12;
#X obj 557 124 adc~;
#X obj 29 707 dac~, f 20;
#X obj 601 124 click~;
#X obj 601 83 bng 25 250 50 0 empty empty empty 17 7 0 10 #e4e4e4 #4d4d4d #373737;
#X obj 29 578 snake_out~ 8;
#X obj 29 313 + 1;
#X text 188 57 DIFFUSOR TESTING;
#X text 552 57 Generate an impulse;
#X text 313 104 New seed;
#X obj 319 124 bng 61 250 50 0 empty empty empty 17 7 0 10 #e4e4e4 #4d4d4d #373737;
#X obj 319 208 s global:diffusor:new-seed;
#X obj 220 124 knob 61 0 100 0 0 empty empty #E4E4E4 #B7B7B7 #4D4D4D 1 0 0 0 1 270 0 0 0;
#X text 223 103 Dry/Wet;
#X obj 220 76 loadmess 100;
#X obj 220 208 / 100;
#X obj 220 232 s \$0-dry-wet;
#X obj 254 644 r \$0-dry-wet;
#X obj 557 160 s~ \$0-dry-signal;
#X floatatom 899 202 5 0 0 0 - - - 0;
#X obj 899 166 bng 25 250 50 0 empty empty empty 17 7 0 10 #e4e4e4 #4d4d4d #373737;
#X obj 899 242 s global:diffusor:delays:modulation_speed;
#X obj 814 509 r~ \$0-feedback-path;
#X obj 803 540 +~;
#X obj 803 568 clone -d delay_cell~ 8, f 26;
#X obj 836 599 inlet;
#X obj 961 441 loadbang;
#X obj 961 477 bng 25 250 50 0 empty empty empty 17 7 0 10 #e4e4e4 #4d4d4d #373737;
#X obj 961 540 listfunnel;
#X obj 803 690 s~ \$0-feedback-path 8;
#X obj 803 629 *~ 0.23;
#X obj 29 456 simple_diffusor~ 20;
#X obj 29 484 simple_diffusor~ 40;
#X obj 29 513 simple_diffusor~ 60;
#X obj 29 77 loadmess 1;
#X obj 229 578 snake_out~ 8;
#X text 108 104 Diffusor Length;
#X obj 74 279 s \$0-diff-len;
#X obj 354 426 r \$0-diff-len;
#X obj 108 131 nbx 4 18 5 500 1 0 empty empty empty 0 -8 0 10 #e4e4e4 #4d4d4d #373737 0 256;
#X obj 108 77 loadmess 120;
#X obj 74 254 clip 0 500;
#X obj 450 431 r \$0-n-channels;
#X msg 450 459 resize \$1;
#X obj 29 369 gate~ 3, f 60;
#X obj 552 296 r~ \$0-dry-signal;
#X obj 108 155 hradio 20 1 0 4 empty empty empty 0 -8 0 10 #e4e4e4 #4d4d4d #373737 0;
#X text 105 177 Diffusor Channels \; 4 8 16 32;
#N canvas 0 22 450 300 diff-channels 0;
#X obj 280 301 s \$0-n-channels;
#X obj 280 276 max 4;
#X obj 280 182 route 0 1 2 3, f 22;
#X msg 312 231 8;
#X msg 345 231 16;
#X msg 378 231 32;
#X msg 280 231 4;
#X obj 280 146 inlet;
#X connect 1 0 0 0;
#X connect 2 0 6 0;
#X connect 2 1 3 0;
#X connect 2 2 4 0;
#X connect 2 3 5 0;
#X connect 3 0 1 0;
#X connect 4 0 1 0;
#X connect 5 0 1 0;
#X connect 6 0 1 0;
#X connect 7 0 2 0;
#X restore 108 208 pd diff-channels;
#X obj -9 546 *~, f 9;
#X obj -4 405 vsl 17 128 0 1 0 0 empty empty empty 0 -9 0 10 #e4e4e4 #4d4d4d #373737 0 1;
#X obj 229 540 *~ 4, f 9;
#X obj 803 660 matrix/matrix~ 8 8, f 31;
#X obj 29 417 utility/splitter~ 8;
#X obj 146 676 utility/blend.sqrt~, f 17;
#X obj 29 676 utility/blend.sqrt~, f 16;
#X obj 961 515 random/in_range 0 150 8;
#X obj 996 629 matrix/gen.hadamard 8;
#N canvas 0 22 450 300 stack.diffusor.hilbert 0;
#X obj 44 164 inlet~;
#X obj 44 447 outlet~;
#X obj 44 256 hilbert_diffusor~ \$1 40;
#X obj 44 307 hilbert_diffusor~ \$1 80;
#X obj 44 355 hilbert_diffusor~ \$1 100;
#X obj 164 24 inlet;
#X obj 222 198 listfunnel;
#X obj 44 402 hilbert_diffusor~ \$1 100;
#X obj 222 227 route 0 1 2 3;
#X obj 164 56 route resize;
#X obj 164 85 prepend resize;
#X obj 222 134 f;
#X obj 164 116 t b a;
#X obj 44 210 utility/splitter~ \$1;
#X obj 222 166 utility/up_to 0 \$2 4 1.5;
#X connect 0 0 13 0;
#X connect 2 0 3 0;
#X connect 3 0 4 0;
#X connect 4 0 7 0;
#X connect 5 0 9 0;
#X connect 6 0 8 0;
#X connect 7 0 1 0;
#X connect 8 0 2 1;
#X connect 8 1 3 1 32.................5....D++++uN....w++++2D....;
#X connect 8 2 4 1 32.................nA...X9+++OZ....l++++2G....;
#X connect 8 3 7 1 32.................cB...b8+++em....W++++yJ....;
#X connect 9 0 10 0;
#X connect 9 1 11 0;
#X connect 10 0 12 0;
#X connect 11 0 14 0;
#X connect 12 0 11 0;
#X connect 12 1 3 1;
#X connect 12 1 4 1;
#X connect 12 1 7 1;
#X connect 13 0 2 0;
#X connect 14 0 6 0;
#X restore 228 498 pd stack.diffusor.hilbert;
#X connect 0 0 17 0;
#X connect 2 0 17 0;
#X connect 3 0 2 0;
#X connect 4 0 54 0;
#X connect 4 1 53 0 32.................S.....F...vD....fA...TB....;
#X connect 5 0 43 0;
#X connect 9 0 10 0;
#X connect 11 0 14 0;
#X connect 13 0 11 0;
#X connect 14 0 15 0;
#X connect 16 0 53 2;
#X connect 16 0 54 2;
#X connect 18 0 20 0;
#X connect 19 0 18 0;
#X connect 21 0 22 1;
#X connect 22 0 23 0;
#X connect 23 0 29 0;
#X connect 24 0 29 1;
#X connect 25 0 26 0;
#X connect 26 0 55 0;
#X connect 26 0 56 0 48.................I....fI...PB....XB...fF...vH....nA...LB...ve....;
#X connect 27 0 23 1;
#X connect 29 0 51 0;
#X connect 30 0 31 0;
#X connect 31 0 32 0;
#X connect 32 0 48 1;
#X connect 33 0 45 0;
#X connect 33 0 5 0;
#X connect 34 0 54 0 32.................f....H0+++OH....R8++++C....;
#X connect 34 1 53 0 32.................f....H6+++OH....x9++++C....;
#X connect 37 0 57 1;
#X connect 38 0 40 0;
#X connect 39 0 38 0;
#X connect 40 0 36 0;
#X connect 41 0 42 0;
#X connect 42 0 57 1;
#X connect 43 0 52 0;
#X connect 43 1 57 0;
#X connect 44 0 43 1;
#X connect 44 0 53 1 48..................E...L5+++OPA...i9+++CT...vh9+++.E...rn+++OQA...;
#X connect 44 0 54 1 48.................2D...T5++++MA...k9+++eS...fE9+++2D...Xg+++OQA...;
#X connect 45 0 47 0;
#X connect 48 0 4 0;
#X connect 49 0 48 0;
#X connect 50 0 34 0;
#X connect 51 0 28 0;
#X connect 52 0 30 0;
#X connect 53 0 1 1;
#X connect 54 0 1 0;
#X connect 55 0 27 0;
#X connect 56 0 51 1;
#X connect 57 0 50 0;
