#N canvas 827 239 527 327 12;
#X obj 255 5 sig~ 1;
#X obj 276 31 sig~ 2;
#X obj 298 53 sig~ 3;
#X obj 320 80 sig~ 4;
#X obj 581 231 prepend;
#X msg 509 198 set \$1;
#X obj 255 198 matrix-n~ 8 8;
#X obj 255 124 snake_in~ 8, f 25;
#X obj 255 255 snake_out~ 8;
#X obj 344 5 sig~ 5;
#X obj 366 41 sig~ 6;
#X obj 388 63 sig~ 7;
#X obj 411 98 sig~ 8;
#X obj 323 293 numbox~ 4 15 100 #e4e4e4 #4d4d4d 10 0 0 0;
#X obj 340 322 numbox~ 4 15 100 #e4e4e4 #4d4d4d 10 0 0 0;
#X obj 357 350 numbox~ 4 15 100 #e4e4e4 #4d4d4d 10 0 0 0;
#X obj 374 381 numbox~ 4 15 100 #e4e4e4 #4d4d4d 10 0 0 0;
#X obj 255 293 numbox~ 4 15 100 #e4e4e4 #4d4d4d 10 0 0 0;
#X obj 272 322 numbox~ 4 15 100 #e4e4e4 #4d4d4d 10 0 0 0;
#X obj 289 350 numbox~ 4 15 100 #e4e4e4 #4d4d4d 10 0 0 0;
#X obj 306 381 numbox~ 4 15 100 #e4e4e4 #4d4d4d 10 0 0 0;
#X obj 581 115 pack f f f f f f f f, f 49;
#X obj 509 1 vradio 23 1 0 8 empty empty empty 0 -8 0 10 #e4e4e4 #4d4d4d #373737 0;
#X obj 581 36 tgl 25 0 empty empty empty 17 7 0 10 #e4e4e4 #4d4d4d #373737 0 1;
#X obj 627 36 tgl 25 0 empty empty empty 17 7 0 10 #e4e4e4 #4d4d4d #373737 0 1;
#X obj 673 36 tgl 25 0 empty empty empty 17 7 0 10 #e4e4e4 #4d4d4d #373737 0 1;
#X obj 719 36 tgl 25 0 empty empty empty 17 7 0 10 #e4e4e4 #4d4d4d #373737 0 1;
#X obj 765 36 tgl 25 0 empty empty empty 17 7 0 10 #e4e4e4 #4d4d4d #373737 0 1;
#X obj 811 36 tgl 25 0 empty empty empty 17 7 0 10 #e4e4e4 #4d4d4d #373737 0 1;
#X obj 857 36 tgl 25 0 empty empty empty 17 7 0 10 #e4e4e4 #4d4d4d #373737 0 1;
#X obj 903 36 tgl 25 0 empty empty empty 17 7 0 10 #e4e4e4 #4d4d4d #373737 0 1;
#X obj 562 298 print;
#X obj 673 73 t b f;
#X obj 627 73 t b f;
#X obj 719 73 t b f;
#X obj 765 73 t b f;
#X obj 811 73 t b f;
#X obj 857 73 t b f;
#X obj 903 73 t b f;
#X connect 0 0 7 0;
#X connect 1 0 7 1;
#X connect 2 0 7 2;
#X connect 3 0 7 3;
#X connect 4 0 6 1;
#X connect 4 0 31 0;
#X connect 5 0 4 0;
#X connect 6 0 8 0;
#X connect 7 0 6 0;
#X connect 8 0 17 0;
#X connect 8 1 18 0;
#X connect 8 2 19 0;
#X connect 8 3 20 0;
#X connect 8 4 13 0;
#X connect 8 5 14 0;
#X connect 8 6 15 0;
#X connect 8 7 16 0;
#X connect 9 0 7 4;
#X connect 10 0 7 5;
#X connect 11 0 7 6;
#X connect 12 0 7 7;
#X connect 21 0 4 0;
#X connect 22 0 5 0;
#X connect 23 0 21 0;
#X connect 24 0 33 0;
#X connect 25 0 32 0;
#X connect 26 0 34 0;
#X connect 27 0 35 0;
#X connect 28 0 36 0;
#X connect 29 0 37 0;
#X connect 30 0 38 0;
#X connect 32 0 21 0;
#X connect 32 1 21 2;
#X connect 33 0 21 0;
#X connect 33 1 21 1;
#X connect 34 0 21 0;
#X connect 34 1 21 3;
#X connect 35 0 21 0;
#X connect 35 1 21 4;
#X connect 36 0 21 0;
#X connect 36 1 21 5;
#X connect 37 0 21 0;
#X connect 37 1 21 6;
#X connect 38 0 21 0;
#X connect 38 1 21 7;
