#N canvas 827 239 527 327 12;
#X obj 254 155 inlet~;
#X obj 356 147 inlet;
#X obj 459 147 inlet;
#X text 420 122 Coefficient value;
#X obj 498 244 *~;
#X obj 509 209 * -1;
#X obj 224 383 +~, f 42;
#X obj 224 410 outlet~;
#X obj 447 173 f \$2;
#X obj 299 104 loadbang;
#X obj 130 195 delread~ \$0-del;
#X obj 130 252 *~;
#X obj 104 329 *~;
#X obj 447 252 pow 2;
#X obj 447 280 !- 1;
#X text 14 13 Implementation of the All-pass reverberators discribed by Schroeder in ""Colorless" Artificial Reverberation, f 38;
#X text 324 122 Delay in ms;
#X obj 254 285 delwrite~ \$0-del 2000;
#X obj 356 173 f \$1;
#X connect 0 0 17 0;
#X connect 0 0 4 0 32.................c....HO...PG....xC...DB....;
#X connect 1 0 18 0;
#X connect 2 0 8 0;
#X connect 4 0 6 1;
#X connect 5 0 4 1;
#X connect 6 0 7 0;
#X connect 8 0 13 0;
#X connect 8 0 11 1 32.................t....7r+++uK....O6+++uC....;
#X connect 8 0 5 0;
#X connect 9 0 8 0 32.................W....zG...vE....8A...nA....;
#X connect 9 0 18 0 32.................v....3B....L....t....PC....;
#X connect 10 0 11 0;
#X connect 10 0 12 0 32.................Q....b9+++eD....m++++KG....;
#X connect 11 0 17 0;
#X connect 12 0 6 0 48.................Q.....F...PD....fA...DA....d....Q....fG...fH....;
#X connect 13 0 14 0;
#X connect 14 0 12 1 48.................a....Tq++++F....05+++uA...fo9+++a....Xp+++OK....;
#X connect 18 0 10 0 48.......................4+++O.....P9+++C....vG++++.....7w+++u.....;
