#N canvas 827 239 527 327 12;
#X obj 254 155 inlet~;
#X obj 356 147 inlet;
#X text 310 122 Delay in smpls;
#X obj 459 147 inlet;
#X text 420 122 Coefficient value;
#X obj 130 315 outlet~;
#X obj 356 173 i \$1;
#X obj 447 173 f \$2;
#X obj 299 104 loadbang;
#X obj 254 285 delwrite~ \$0-del 100;
#X obj 130 195 delread~ \$0-del;
#X obj 130 223 fexpr~ $x[-1];
#X obj 130 252 *~;
#X text 14 13 Implementation of the All-pass reverberators discribed by Schroeder in ""Colorless" Artificial Reverberation, f 38;
#X connect 0 0 9 0;
#X connect 1 0 6 0;
#X connect 3 0 7 0;
#X connect 6 0 10 0 48.......................4+++O.....P9+++C....vG++++.....7w+++u.....;
#X connect 7 0 12 1 32.................1....7r+++uM....O6+++uC....;
#X connect 8 0 7 0 32.................W....zG...vE....8A...nA....;
#X connect 8 0 6 0 32.................v....3B....L....t....PC....;
#X connect 10 0 11 0;
#X connect 11 0 12 0;
#X connect 12 0 9 0 48.................G....DE...vA....QA...b.....e....G....vG....B....;
#X connect 12 0 5 0;
