#N canvas 827 239 527 327 12;
#X obj 137 360 +~;
#X obj 201 329 *~;
#X obj 137 391 delwrite~ \$0-delay 1000;
#X obj 201 97 delread~ \$0-delay;
#X obj 201 137 allpass-delay~ 11 0.6, f 23;
#X obj 201 172 allpass-delay~ 7 0.6, f 23;
#X obj 201 210 allpass-delay~ 9 0.6, f 23;
#X obj 201 247 allpass-delay~ 27 0.6, f 23;
#X obj 201 282 allpass-delay~ 13 0.6, f 23;
#X obj 148 282 inlet~;
#X obj 201 51 f \$1;
#X obj 354 51 f \$2;
#X obj 490 51 f \$3;
#X obj 201 15 inlet;
#X obj 354 15 inlet;
#X obj 490 15 inlet;
#X obj 255 329 outlet~;
#X connect 0 0 2 0;
#X connect 1 0 0 0;
#X connect 3 0 4 0;
#X connect 4 0 5 0;
#X connect 5 0 6 0;
#X connect 6 0 7 0;
#X connect 7 0 8 0;
#X connect 8 0 1 0;
#X connect 8 0 16 0;
#X connect 9 0 0 1;
#X connect 10 0 3 0;
#X connect 11 0 1 1 32.................xC...L2+++u7....y8+++KP....;
#X connect 12 0 8 2 32.................JC...b0+++ux....W8+++CM....;
#X connect 12 0 6 2 32.................BB...H0+++uf....R8+++iH....;
#X connect 12 0 5 2 32.................aA...H0++++V....R8+++KF....;
#X connect 12 0 4 2 32.................2....T0++++M....U8++++C....;
#X connect 12 0 7 2 32.................pB...f1+++up....n8+++CK....;
#X connect 13 0 10 0;
#X connect 14 0 11 0;
#X connect 15 0 12 0;
