#N canvas 827 239 527 327 12;
#X obj 328 301 inlet~;
#X obj 328 420 outlet~;
#X obj 425 172 inlet;
#X obj 573 145 r global:diffusor:delays:modulation_speed;
#X obj 644 223 r global:diffusor:delays:modulation_depth;
#X obj 573 255 *~ 0;
#X obj 406 215 sig~;
#X obj 406 301 expr~ $v1*(1+$v2);
#X obj 573 223 sine~;
#X obj 602 182 rand.f~ 0 1 \$0;
#X floatatom 379 172 5 0 0 0 - - - 0;
#X obj 328 359 delay~ 480000;
#X obj 471 180 samplerate~;
#X obj 406 255 *~;
#X obj 471 145 loadbang;
#X obj 543 140 bng 25 250 50 0 empty empty empty 17 7 0 10 #e4e4e4 #4d4d4d #373737;
#X obj 471 215 / 1000;
#X connect 0 0 11 0;
#X connect 2 0 6 0;
#X connect 3 0 8 0;
#X connect 4 0 5 1;
#X connect 5 0 7 1;
#X connect 6 0 13 0;
#X connect 7 0 11 1;
#X connect 8 0 5 0;
#X connect 9 0 8 2;
#X connect 10 0 6 0;
#X connect 11 0 1 0;
#X connect 12 0 16 0;
#X connect 13 0 7 0;
#X connect 14 0 12 0;
#X connect 15 0 12 0;
#X connect 16 0 13 1;
