#N canvas 827 239 527 327 12;
#X obj 254 114 inlet~;
#X obj 356 102 inlet;
#X obj 447 102 inlet;
#X text 447 77 Coefficient value;
#X obj 498 244 *~;
#X obj 509 209 * -1;
#X obj 224 383 +~, f 42;
#X obj 224 410 outlet~;
#X obj 356 164 i \$1;
#X obj 447 164 f \$2;
#X obj 299 59 loadbang;
#X obj 130 269 *~;
#X obj 104 329 *~;
#X obj 447 252 pow 2;
#X obj 447 280 !- 1;
#X text 324 77 Delay in ms;
#X obj 254 299 delwrite~ \$0-del 2000;
#X text 14 13 diffusor~ is an allpass delay with a low pass in the loop, f 38;
#X obj 614 102 inlet;
#X obj 614 173 f \$3;
#X text 614 77 low pass cut off;
#X obj 130 237 lop~ 8000;
#X obj 130 195 delread4~ \$0-del;
#X obj 768 203 rand.f, f 34;
#X obj 874 139 * \$4;
#X obj 874 164 * -1;
#X obj 768 139 \$5;
#X text 767 73 modulation on;
#X text 875 112 offset %;
#X obj 768 231 s \$0-mod;
#X obj 130 58 r \$0-mod;
#X obj 130 113 +, f 13;
#X obj 186 87 t b f;
#X obj 768 164 metro 2000;
#X obj 130 139 sig~;
#X obj 130 164 lop~ 7;
#X connect 0 0 16 0;
#X connect 0 0 4 0 32.................aA...PO...vV....zC...3F....;
#X connect 1 0 8 0;
#X connect 1 0 24 0;
#X connect 2 0 9 0;
#X connect 4 0 6 1;
#X connect 5 0 4 1;
#X connect 6 0 7 0;
#X connect 8 0 32 0;
#X connect 9 0 13 0;
#X connect 9 0 11 1 32.................t....7r+++uK....O6+++uC....;
#X connect 9 0 5 0;
#X connect 10 0 19 0 32.................IA...rS...PR....6D...3E....;
#X connect 10 0 8 0 32.................LA...jC....S....4....3E....;
#X connect 10 0 9 0 32.................EA...PI...PQ....TB...TE....;
#X connect 10 0 24 0 32.................4....7i...PN....+H...vC....;
#X connect 10 0 26 0 32.................5....Tc...fN....UG...vC....;
#X connect 11 0 16 0;
#X connect 12 0 6 0 48.................Q.....F...PD....fA...DA....d....Q....fG...fH....;
#X connect 13 0 14 0;
#X connect 14 0 12 1 48.................a....Tq++++F....05+++uA...fo9+++a....Xp+++OK....;
#X connect 18 0 19 0;
#X connect 19 0 21 1 48.................n....v0+++OJ....b8+++iB...vD9+++n....Lg+++OW....;
#X connect 21 0 11 0;
#X connect 22 0 21 0 32.................O....b9++++C....m++++aD....;
#X connect 22 0 12 0 32.................P....f8+++OD....X++++KG....;
#X connect 23 0 29 0;
#X connect 24 0 25 0;
#X connect 24 0 23 2;
#X connect 25 0 23 1;
#X connect 26 0 33 0;
#X connect 30 0 31 0;
#X connect 31 0 34 0;
#X connect 32 0 31 0;
#X connect 32 1 31 1;
#X connect 33 0 23 0;
#X connect 34 0 35 0;
#X connect 35 0 22 0;
