#N canvas 827 239 527 327 12;
#X obj 588 120 tgl 25 0 empty empty empty 17 7 0 10 #e4e4e4 #4d4d4d #373737 0 1;
#X obj 469 70 inlet~;
#X obj 588 56 inlet;
#X obj 469 214 outlet~;
#X obj 539 56 inlet;
#X obj 469 120 delay~ 48000;
#X obj 539 88 mstosamps~;
#X obj 469 164 utility/polarity~, f 18;
#X connect 0 0 7 1;
#X connect 1 0 5 0;
#X connect 2 0 0 0;
#X connect 4 0 6 0;
#X connect 5 0 7 0;
#X connect 6 0 5 1;
#X connect 7 0 3 0;
