#N canvas 827 239 527 327 12;
#X obj 457 223 inlet~;
#X obj 576 223 inlet;
#X obj 457 447 outlet~;
#X obj 457 314 delay~ 48000;
#X text 576 61 phase distributed from -1 to 1;
#X obj 457 348 allpass.filt~ 2 10 0.707, f 37;
#X obj 607 314 scale -1 1 40 300;
#X obj 527 256 ms2samps~;
#X obj 457 419 *~ 2;
#X obj 527 223 inlet;
#X obj 527 287 lop~ 7;
#X obj 457 389 filter/phase_rotator~;
#X connect 0 0 3 0;
#X connect 1 0 6 0 32.................R....7A...fD....e....bD....;
#X connect 1 0 11 1 32.................DB...f8+++Og....X++++KI....;
#X connect 3 0 5 0;
#X connect 5 0 11 0;
#X connect 6 0 5 1;
#X connect 7 0 10 0;
#X connect 8 0 2 0;
#X connect 9 0 7 0;
#X connect 10 0 3 1;
#X connect 11 0 8 0;
