#N canvas 827 239 527 327 12;
#X obj 205 741 outlet~;
#X msg 1179 305 /Users/jeanlouppecquais/Documents/plugdata/Extra/pdlua/pd.lua;
#X obj 291 67 bng 25 250 50 0 empty empty empty 17 7 0 10 #e4e4e4 #4d4d4d #373737;
#X obj 291 333 listfunnel;
#X obj 291 34 loadbang;
#X obj 473 333 listfunnel;
#X obj 364 34 r global:diffusor:new-seed;
#X obj 205 333 inlet~;
#X text 205 311 MC Input;
#X obj 643 302 f \$1;
#X obj 643 333 prepend resize;
#X obj 205 380 clone -d hilbert_diffusor_cell~ 8, f 28;
#X obj 426 162 inlet;
#X obj 346 229 t b f;
#X obj 426 190 route resize;
#X obj 426 229 f;
#X obj 426 380 prepend resize;
#X obj 426 263 t f b f b f f, f 17;
#X obj 426 411 t a a;
#X obj 291 113 t b b b b b, f 53;
#X obj 235 673 pow 1, f 9;
#X obj 279 612 - 1;
#X obj 263 522 loadbang;
#X msg 235 641 0.707107;
#X obj 205 707 *~ 0.15;
#X obj 279 582 f \$1;
#X obj 263 554 t b b;
#X obj 205 488 matrix/matrix~ \$1 \$1, f 30;
#X obj 473 302 random/in_range -1 1 \$1;
#X obj 291 302 random/in_range 0 \$2 \$1;
#X obj 406 452 matrix/gen.hadamard \$1;
#X connect 2 0 19 0;
#X connect 3 0 11 1;
#X connect 4 0 2 0;
#X connect 5 0 11 2 32.................I....H5+++eB....h9+++aA....;
#X connect 6 0 2 0;
#X connect 7 0 11 0;
#X connect 9 0 10 0;
#X connect 10 0 11 0 32.................N....rj+++uC....K4+++6C....;
#X connect 11 0 27 0;
#X connect 12 0 14 0;
#X connect 13 0 29 0;
#X connect 13 1 29 1;
#X connect 14 0 15 0;
#X connect 14 1 13 0;
#X connect 15 0 17 0;
#X connect 16 0 18 0;
#X connect 17 0 16 0;
#X connect 17 1 29 0;
#X connect 17 2 29 2;
#X connect 17 3 28 0;
#X connect 17 4 28 2;
#X connect 17 5 9 0;
#X connect 18 0 30 0;
#X connect 18 1 27 0 32.................H....Xw+++OB....V7+++mC....;
#X connect 19 0 29 0;
#X connect 19 1 30 0;
#X connect 19 2 28 0 32.................lB...z7+++uo....M++++CK....;
#X connect 19 3 9 0;
#X connect 20 0 24 1;
#X connect 21 0 20 1;
#X connect 22 0 26 0;
#X connect 23 0 20 0;
#X connect 24 0 0 0;
#X connect 25 0 21 0;
#X connect 26 0 23 0;
#X connect 26 1 25 0;
#X connect 27 0 24 0;
#X connect 28 0 5 0;
#X connect 29 0 3 0;
#X connect 30 0 27 1;
