#N canvas 827 239 527 327 12;
#X obj 205 279 inlet~;
#X obj 205 432 outlet~;
#X msg 1179 305 /Users/jeanlouppecquais/Documents/plugdata/Extra/pdlua/pd.lua;
#X obj 370 144 bng 25 250 50 0 empty empty empty 17 7 0 10 #e4e4e4 #4d4d4d #373737;
#X obj 370 279 listfunnel;
#X obj 370 113 loadbang;
#X obj 562 272 listfunnel;
#X obj 444 113 r global:diffusor:new-seed;
#X text 189 256 MC Input;
#X obj 205 398 /~ 7;
#X obj 205 318 clone -d diffusor_cell~ 8, f 23;
#X obj 205 367 matrix/matrix~ 8 8, f 30;
#X obj 370 237 random/in_range 0 \$1 8;
#X obj 562 231 random/sign 8;
#X obj 391 326 matrix/gen.hadamard 8;
#X connect 0 0 10 0;
#X connect 3 0 12 0;
#X connect 3 0 13 0 32.................c.....L...PG.....C...3C....;
#X connect 3 0 14 0 32.................IB...PA...Ph....T....zI....;
#X connect 4 0 10 1;
#X connect 5 0 3 0;
#X connect 6 0 10 2 32.................T....z5+++OE....s9+++OB....;
#X connect 7 0 3 0;
#X connect 9 0 1 0;
#X connect 10 0 11 0;
#X connect 11 0 9 0;
#X connect 12 0 4 0;
#X connect 13 0 6 0;
#X connect 14 0 11 1;
