#N canvas 827 239 527 327 12;
#X obj 410 133 phasor~;
#X obj 410 229 sin~;
#X obj 519 324 expr~ ($v1+1)*0.5;
#X obj 519 395 lop~ 10;
#X obj 299 264 expr~ $v1*2-1;
#X obj 299 292 abs~;
#X obj 450 264 >~;
#X obj 409 264 <~;
#X obj 409 291 *~ -1;
#X obj 409 324 +~, f 9;
#X obj 299 476 outlet~;
#X obj 476 100 inlet;
#X obj 476 133 s \$0-select;
#X obj 229 395 r \$0-select;
#X obj 410 100 inlet~;
#X obj 559 100 inlet;
#X obj 627 100 inlet;
#X obj 409 360 expr~ ($v1+1)*0.5*1;
#X obj 409 395 lop~ 20;
#X obj 299 434 select~ 4 1, f 51;
#X obj 410 175 utility/bender~;
#X connect 0 0 19 3 48.................L....nC....C....5....3E...P2....dA...zM...PFA...;
#X connect 0 0 20 0;
#X connect 1 0 7 0;
#X connect 1 0 6 0;
#X connect 1 0 2 0 48.................H....7B....B....u....f....Pa....H....zF...Pk....;
#X connect 2 0 3 0;
#X connect 3 0 19 2;
#X connect 4 0 5 0;
#X connect 5 0 19 0;
#X connect 6 0 9 1;
#X connect 7 0 8 0;
#X connect 8 0 9 0;
#X connect 9 0 17 0;
#X connect 11 0 12 0;
#X connect 13 0 19 0;
#X connect 14 0 0 0;
#X connect 15 0 20 1 48.................x....P5+++uL....j9+++GC...fj++++w....H4+++uR....;
#X connect 16 0 0 1;
#X connect 17 0 18 0;
#X connect 18 0 19 1;
#X connect 19 0 10 0;
#X connect 20 0 4 0;
#X connect 20 0 1 0;
