#N canvas 827 239 527 327 12;
#X obj 420 243 hilbert~, f 11;
#X obj 420 317 *~;
#X obj 475 317 *~;
#X obj 431 282 sin~;
#X obj 486 282 cos~;
#X obj 359 149 rotor~, f 12;
#X obj 420 367 +~;
#X obj 420 481 +~;
#X obj 475 403 hip~ 2000;
#X obj 475 439 *~, f 13;
#X obj 541 368 cos~;
#X obj 420 177 /~ 0.34;
#X obj 419 114 inlet;
#X obj 359 114 inlet;
#X obj 420 523 outlet~;
#X text 359 95 speed;
#X text 420 95 radius;
#X obj 420 211 delread4~ \$0-delay;
#X obj 209 115 inlet~;
#X obj 209 149 delwrite~ \$0-delay 5;
#X connect 0 0 1 0;
#X connect 0 1 2 0;
#X connect 1 0 6 0;
#X connect 2 0 6 1;
#X connect 3 0 1 1;
#X connect 4 0 2 1;
#X connect 5 0 3 0 32.................qA...fD...vZ....HA...DG....;
#X connect 5 0 4 0 32.................mA...7G...vY....+A...DG....;
#X connect 5 0 10 0 32.................1B...XK...fs....1B...bL....;
#X connect 5 1 11 0;
#X connect 6 0 7 0;
#X connect 6 0 8 0;
#X connect 7 0 14 0;
#X connect 8 0 9 0;
#X connect 9 0 7 1;
#X connect 10 0 9 1;
#X connect 11 0 17 0;
#X connect 12 0 5 1;
#X connect 13 0 5 0;
#X connect 17 0 0 0;
#X connect 18 0 19 0;
