#N canvas 827 239 527 327 12;
#X obj 41 218 adc~, f 18;
#X obj 41 435 lop~ 800;
#X obj 228 423 hip~ 800;
#X obj 41 585 hilbert~, f 13;
#X obj 382 553 hilbert~, f 21;
#X obj 41 951 +~, f 10;
#X obj 382 723 +~, f 11;
#X obj 436 585 utility/blend.angular.sig~, f 24;
#X obj 614 330 cos~;
#X obj 41 279 utility/thru~;
#X obj 41 1003 dac~, f 21;
#X obj 812 552 hilbert~, f 20;
#X obj 812 694 +~, f 11;
#X obj 867 585 utility/blend.angular.sig~, f 23;
#X obj 1004 341 cos~;
#X obj 166 951 +~, f 10;
#X obj 614 303 phasor~ 1;
#X obj 1069 72 knob 50 0 100 0 0 empty empty #E4E4E4 #B7B7B7 #4D4D4D 1 0 0 0 1 270 0 0 0;
#X obj 1069 150 / 100;
#X obj 614 72 knob 50 1 100 0 0 empty empty #E4E4E4 #B7B7B7 #4D4D4D 1 0 0 0 1 270 0 0 1;
#X obj 614 135 / 100;
#X obj 812 390 *~;
#X obj 473 387 *~;
#X obj 614 488 *~ 0.5;
#X obj 448 53 loadbang;
#X obj 41 391 lop~ 800;
#X obj 228 391 hip~ 800;
#X obj 823 303 pow 0.2;
#X obj 1069 449 * 0.25;
#X obj 614 517 +~ 0.25;
#X obj 1004 545 +~ 0.25;
#X obj 1004 509 *~ -0.5;
#X obj 1004 310 phasor~ 1.2;
#X obj 1069 476 * -1;
#X obj 1004 269 * 1.1;
#X obj 614 218 * 8;
#X obj 1069 269 pow 2;
#X obj 448 113 s \$0-freq;
#X obj 291 341 r \$0-freq;
#X obj 119 362 r \$0-freq;
#X obj 228 341 *~ -1;
#X obj 940 72 knob 50 0 100 0 0 empty empty #E4E4E4 #B7B7B7 #4D4D4D 1 0 0 0 1 270 0 0 0;
#X obj 940 135 / 100;
#X obj 940 167 s \$0-am-depth;
#X obj 689 544 r \$0-am-depth;
#X obj 382 665 *~;
#X obj 812 636 *~;
#X obj 436 663 *~;
#X obj 689 575 !- 1;
#X obj 689 631 sqrt;
#X obj 689 600 / 2;
#X obj 689 659 + 1;
#X obj 867 663 *~;
#X obj 41 621 utility/blend.angular.sig~, f 23;
#X floatatom 179 585 11 0 0 0 - - - 12;
#X msg 448 78 800;
#X text 614 52 SPEED;
#X text 180 549 LOW END \; PHASE;
#X text 289 302 Treble correction;
#X text 481 734 CROSSTALK;
#X text 336 71 Crossover freq. \; Seems good;
#X obj 823 330 * 24;
#X obj 382 813 delay~ 48 7;
#X obj 41 545 delay~ 96 21;
#X obj 228 509 s~ \$0-rot-dry;
#X obj 382 461 r~ \$0-rot-dry;
#X obj 473 357 abs~;
#X obj 812 360 abs~;
#X obj 812 423 utility/sample2ms~;
#X obj 473 413 utility/sample2ms~;
#X obj 382 488 allpass~ 3, f 29;
#X obj 473 461 lop~ 14;
#X obj 770 461 r~ \$0-rot-dry;
#X obj 770 488 allpass~ 3, f 29;
#X obj 861 461 lop~ 14;
#X text 927 52 AM DEPTH;
#X text 1069 52 DEPTH;
#X obj 1069 236 loadmess 1;
#X obj 565 461 loadmess 0.5;
#X obj 770 78 knob 50 0 100 0 0 empty empty #E4E4E4 #B7B7B7 #4D4D4D 1 0 0 0 1 270 0 0 0;
#X obj 770 135 / 100;
#X obj 770 165 s \$0-head-dry;
#X obj 261 149 r \$0-head-dry;
#X obj 261 214 sqrt;
#X obj 338 187 !- 1;
#X obj 338 214 sqrt;
#X obj 119 488 *~;
#X obj 228 473 *~;
#X text 758 50 HEAD MIX;
#X text -376 -2 TODO: \; [ ] - Check gains for perfect compensation and least coloration \; [ ] - Encapsulate stuff \; [ ] - Depth should remove delay feedback \; [x] - Try allpasses instead of simple delay lines in rotors \; [x] - Delays are broken !!!!!!;
#X obj 382 517 lop~ 5000;
#X obj 770 517 lop~ 5000;
#X connect 0 0 9 0;
#X connect 1 0 63 0;
#X connect 2 0 87 0;
#X connect 2 0 86 0;
#X connect 3 0 53 0;
#X connect 3 1 53 1;
#X connect 4 0 7 0;
#X connect 4 0 45 0;
#X connect 4 1 7 1;
#X connect 5 0 10 0;
#X connect 6 0 62 0;
#X connect 7 0 47 0;
#X connect 8 0 66 0;
#X connect 8 0 23 0;
#X connect 9 0 25 0;
#X connect 9 0 40 0;
#X connect 11 0 46 0;
#X connect 11 0 13 0;
#X connect 11 1 13 1;
#X connect 12 0 15 1;
#X connect 13 0 52 0;
#X connect 14 0 67 0;
#X connect 14 0 31 0;
#X connect 15 0 10 1;
#X connect 16 0 8 0;
#X connect 17 0 18 0;
#X connect 18 0 36 0;
#X connect 19 0 20 0;
#X connect 20 0 35 0;
#X connect 21 0 68 0;
#X connect 22 0 69 0;
#X connect 23 0 29 0;
#X connect 24 0 55 0;
#X connect 25 0 1 0;
#X connect 26 0 2 0;
#X connect 27 0 61 0;
#X connect 28 0 23 1;
#X connect 28 0 33 0;
#X connect 29 0 7 2;
#X connect 30 0 13 2;
#X connect 31 0 30 0;
#X connect 32 0 14 0;
#X connect 33 0 31 1;
#X connect 34 0 32 0;
#X connect 35 0 16 0;
#X connect 35 0 34 0;
#X connect 36 0 28 0;
#X connect 36 0 27 0;
#X connect 38 0 26 1;
#X connect 38 0 2 1;
#X connect 39 0 1 1;
#X connect 39 0 25 1;
#X connect 40 0 26 0;
#X connect 41 0 42 0;
#X connect 42 0 43 0;
#X connect 44 0 48 0;
#X connect 44 0 45 1;
#X connect 44 0 46 1;
#X connect 45 0 6 0;
#X connect 46 0 12 0;
#X connect 47 0 6 1;
#X connect 48 0 50 0;
#X connect 49 0 51 0;
#X connect 50 0 49 0;
#X connect 51 0 47 1;
#X connect 51 0 52 1;
#X connect 52 0 12 1;
#X connect 53 0 15 0;
#X connect 53 0 5 0;
#X connect 54 0 53 2;
#X connect 55 0 37 0;
#X connect 61 0 21 1;
#X connect 61 0 22 1;
#X connect 62 0 5 1;
#X connect 63 0 3 0;
#X connect 65 0 70 0;
#X connect 66 0 22 0;
#X connect 67 0 21 0;
#X connect 68 0 74 0;
#X connect 69 0 71 0;
#X connect 70 0 90 0;
#X connect 71 0 70 1;
#X connect 72 0 73 0;
#X connect 73 0 91 0;
#X connect 74 0 73 1;
#X connect 77 0 36 0;
#X connect 78 0 70 2;
#X connect 78 0 73 2;
#X connect 79 0 80 0;
#X connect 80 0 81 0;
#X connect 82 0 83 0;
#X connect 82 0 84 0;
#X connect 83 0 87 1;
#X connect 84 0 85 0;
#X connect 85 0 86 1;
#X connect 86 0 63 0;
#X connect 87 0 64 0;
#X connect 90 0 4 0;
#X connect 91 0 11 0;
