#N canvas 827 239 527 327 12;
#X text 301 78 Circonference;
#X text 40 78 Speed;
#X obj 151 210 cos~;
#X obj 91 171 phasor~;
#X obj 151 239 expr~ 2-2*$v1;
#X obj 151 272 sqrt~;
#X obj 151 313 *~, f 17;
#X obj 91 142 sig~;
#X floatatom 245 210 10 0 0 0 - - - 12;
#X obj 91 374 outlet~;
#X obj 151 374 outlet~;
#X text 40 395 Spkr Orientation;
#X text 151 394 Spkr Distance;
#X obj 91 109 inlet;
#X obj 245 177 inlet;
#X obj 151 345 lop~ 7;
#X connect 2 0 4 0;
#X connect 3 0 2 0;
#X connect 3 0 9 0;
#X connect 4 0 5 0;
#X connect 5 0 6 0;
#X connect 6 0 15 0;
#X connect 7 0 3 0;
#X connect 8 0 6 1;
#X connect 13 0 7 0;
#X connect 14 0 8 0;
#X connect 15 0 10 0;
