#N canvas 827 239 527 327 12;
#X obj 258 50 cnv 15 219 74 empty empty empty 20 12 0 14 #e6e6e6 #373737 0;
#X obj 258 127 cnv 15 219 163 empty empty empty 20 12 0 14 #e6e6e6 #373737 0;
#X obj 32 50 cnv 15 223 113 empty empty empty 20 12 0 14 #eaffff #373737 0;
#X obj 32 168 cnv 15 223 122 empty empty empty 20 12 0 14 #d6ffd6 #373737 0;
#X obj -1 -96 loadbang;
#X obj -1 -66 bng 25 250 50 0 empty empty empty 17 7 0 10 #e4e4e4 #4d4d4d #4d4d4d;
#X obj 921 8 adc~ 1;
#X obj 43 80 knob 59 0.1 8 0 1 empty empty #e4e4e4 #a8a8a8 #4d4d4d 1 0 0 0 1 270 0 0 0.1;
#X obj 938 563 dac~;
#X text 51 62 Rate;
#X obj 150 928 s~ \$0-lfo1;
#X obj -1 -30 send \$0-loadbang;
#X obj 1213 164 r~ \$0-lfo1;
#X obj 165 740 r \$0-lfo1-selector;
#X obj 188 80 knob 59 -100 100 0 0 empty empty #E4E4E4 #B7B7B7 #4D4D4D 1 0 0 0 1 270 0 0 0.01;
#X text 191 62 Envelop;
#X obj 606 255 +~, f 24;
#X obj 606 463 s~ \$0-audio-env;
#X obj 844 849 r~ \$0-audio-env;
#X obj 931 738 r \$0-param-freq;
#X text 657 189 Envelop Dection;
#X text 150 688 LFO VIBE;
#X obj 632 380 r \$0-env-sens;
#X obj 921 185 hilbert~, f 24;
#X text 125 48 LFO, f 5;
#N canvas 733 172 450 300 lfo-send 0;
#X obj 89 125 s \$0-param-freq;
#X obj 288 239 s \$0-phase-modulation;
#X obj 579 125 s \$0-env-sens;
#X obj 89 86 inlet;
#X obj 579 86 inlet;
#X obj 288 210 loadmess 0;
#X obj 404 149 s \$0-param-pm-mode;
#X obj 239 86 inlet;
#X obj 239 125 s \$0-param-cycles;
#X obj 404 119 > 2;
#X connect 3 0 0 0;
#X connect 4 0 2 0;
#X connect 5 0 1 0;
#X connect 7 0 8 0;
#X connect 7 0 9 0;
#X connect 9 0 6 0;
#X restore -166 171 pd lfo-send;
#X f 24;
#N canvas 733 172 450 300 preamp 0;
#X obj 1378 -155 circuit~ \; voltage $s1 1 0 \; voltage 9 9 0 \; resistor 22000 1 2 \; resistor 47000 2 0 \; capacitor 1e-06 2 3 \; resistor 1e+06 3 4 \; capacitor 1e-06 4 0 \; resistor 6800 4 0 \; bjt 0 3 5 6 -model BC549C \; resistor 1e+06 6 7 \; capacitor 1e-06 7 0 \; resistor 1200 5 0 \; bjt 0 6 4 8 -model BC549C \; resistor 47000 8 9 \; resistor 100000 9 7 \; capacitor 3.3e-10 8 0 \; bjt 0 8 10 11 -model BC549C \; resistor 3300 10 5 \; resistor 4700 11 9 \; capacitor 1e-06 10 12 \; potmeter $s2 100000 12 13 0 \; probe 13 0 \;;
#X obj 1378 -186 inlet~;
#X obj 1540 -186 inlet~;
#X obj 1378 203 outlet~;
#X obj 1244 -186 loadmess enable 1;
#X connect 0 0 3 0;
#X connect 1 0 0 0;
#X connect 2 0 0 1;
#X connect 4 0 0 0;
#X restore 921 156 pd preamp;
#X obj 921 40 *~ 1, f 23;
#X obj 606 288 sqrt~;
#X obj 606 224 pow~ 2;
#X obj 751 224 pow~ 2;
#X obj 722 289 loadmess 0.005;
#X obj 838 288 loadmess 0.5;
#X obj 606 351 fexpr~ $x1[0]-$x[-1]+0.99999*$y1[-1];
#X text 764 371 DC Removal;
#X obj 606 435 *~ 1, f 7;
#X obj 825 710 noise~;
#X obj 825 736 lop~ 3;
#X obj 41 200 knob 59 0 0.5 0.5 0 empty empty #E4E4E4 #B7B7B7 #4D4D4D 1 0 0 0 1 270 0 0 0;
#X obj 113 80 knob 59 0.5 2.5 0 0.5 empty empty #E4E4E4 #B7B7B7 #4D4D4D 1 0 5 1 1 291 0 0 0.5;
#N canvas 733 172 450 300 param-pm 0;
#X obj 72 204 s \$0-param-pm-color;
#X obj 72 177 inlet;
#X obj 390 204 s \$0-in-vol;
#X obj 243 204 s \$0-param-stages;
#X obj 243 177 inlet;
#X obj 390 177 inlet;
#X connect 1 0 0 0;
#X connect 4 0 3 0;
#X connect 5 0 2 0;
#X restore 41 291 pd param-pm;
#X f 25;
#X obj 1378 164 phasor~;
#X obj 1213 197 select~, f 27;
#X obj 1117 156 r \$0-param-pm-mode, f 12;
#X obj 1117 197 + 1;
#X obj 1233 498 r \$0-param-pm-color;
#X obj 1117 466 fexpr~ $x1[-1]-$f2*$x1[0]+$f2*$y1[-1];
#X obj 1085 378 select~;
#X obj 1085 435 select~;
#X obj 1085 498 select~;
#X obj 955 466 r \$0-param-stage-1;
#X obj 955 407 r \$0-param-stage-2;
#X obj 955 350 r \$0-param-stage-3;
#X obj 530 839 s \$0-param-stage-3;
#X obj 494 815 s \$0-param-stage-2;
#X obj 455 790 s \$0-param-stage-1;
#X obj 955 378 + 1;
#X obj 955 435 + 1;
#X obj 955 498 + 1;
#N canvas 733 172 450 300 thru 0;
#X obj 29 14 inlet~;
#X obj 29 38 outlet~;
#X connect 0 0 1 0;
#X restore 1085 261 pd thru;
#X text 54 183 Mix;
#X obj 1117 407 fexpr~ $x1[-1]-$f2*$x1[0]+$f2*$y1[-1];
#X obj 1117 350 fexpr~ $x1[-1]-$f2*$x1[0]+$f2*$y1[-1];
#X obj 1348 261 loadmess 0.96;
#X obj 1117 289 fexpr~ $x1[-1]-$f2*$x1[0]+$f2*$y1[-1];
#X obj 567 863 s \$0-param-stage-4;
#X obj 1085 318 select~;
#X obj 956 318 + 1;
#X text 116 183 Stages;
#X obj 116 200 knob 59 0 4 0 0 empty empty #E4E4E4 #B7B7B7 #4D4D4D 1 0 5 1 1 270 0 0 0;
#X floatatom 116 261 8 0 0 0 - - - 12;
#X text 87 167 Phase Modulation;
#X obj 455 709 r \$0-param-stages;
#X obj 455 760 > 0;
#X obj 494 760 > 1;
#X obj 530 760 > 2;
#X obj 567 760 > 3;
#X floatatom 40 261 6 0 0 0 - - - 12;
#X floatatom 189 261 5 0 0 0 - - - 12;
#X obj 973 121 sig~ 0;
#X obj 921 121 *~ 1;
#X obj 933 67 r \$0-in-vol;
#X text 200 184 Gain;
#X obj 502 159 r \$0-loadbang;
#X obj 235 -30 r \$0-loadbang;
#X obj 956 289 r \$0-param-stage-4;
#X obj 189 200 knob 59 -6 6 0 0 empty empty #E4E4E4 #B7B7B7 #4D4D4D 1 0 0 0 1 270 0 0 0;
#X text 341 67 Wobbles;
#X obj 150 893 wrap2~ 0 1, f 11;
#X obj 162 827 r \$0-param-cycles;
#X obj 932 792 / 1, f 27;
#X obj 1048 646 r \$0-param-cycles;
#X obj 1048 706 t b f;
#X obj 825 907 s~ \$0-freq;
#X obj 150 713 r~ \$0-freq;
#X obj 825 824 +~ 0, f 18;
#X obj 825 762 *~ 20;
#X obj 1048 678 clip 1 4;
#X obj 825 876 +~, f 6;
#X obj 75 740 loadbang;
#X obj 263 154 cnv 15 209 130 empty empty empty 20 12 0 14 #c9c9c9 #373737 0;
#X floatatom 43 141 5 0 0 0 - - - 12;
#X text 79 141 Hz;
#X floatatom 188 141 6 0 0 0 - - - 12;
#X text 229 141 %;
#X text 80 261 %;
#X obj -19 264 * 200;
#X text 224 261 dB;
#X msg 75 770 3;
#X obj 181 770 loadmess 0, f 11;
#X obj 1059 8 loadmess 0.44;
#X obj 1481 227 s~ \$0-lfoctrl, f 7;
#X obj 1378 100 r~ \$0-freq;
#X obj 1117 709 + 1;
#X obj 1081 737 t b b f, f 9;
#X obj 1117 679 < 0.5;
#X obj 1102 768 / 1, f 6;
#X obj 516 27 r~ \$0-lfoctrl, f 7;
#X text 547 209 LFO;
#X obj 372 162 knob 103 0 1 0 0 empty empty #E4E4E4 #B7B7B7 #4D4D4D 0 0 0 0 0 360 0 0 0;
#X obj 516 93 sig2float~;
#X text 413 253 0°;
#X text 406 159 180°;
#X text 261 267 0°;
#X text 366 267 0°;
#X text 307 267 180°;
#X obj 268 160 oscope~ 109 107 256 3 128 0 1 0 0 0 0 77 77 77 228 228 228 183 183 183 0 empty;
#X msg 507 188 fgcolor \$1;
#X text 313 129 Phase Visualization, f 17;
#X text 342 67 Wobbles;
#X text 341 67 Wobbles;
#X text 343 67 Wobbles;
#X text 126 48 LFO, f 5;
#X text 88 167 Phase Modulation;
#X text 314 129 Phase Visualization, f 17;
#X text 292 84 Tremolo - Phasor - Vibrato;
#X obj 326 438 r \$0-param-cycles;
#X obj 394 608 s \$0-max-phase;
#X obj -106 64 r \$0-max-phase;
#X obj 150 860 *~ 1;
#X obj 1378 132 *~ 4;
#X obj 394 577 prepend set;
#X obj 377 490 > 2;
#X obj 376 517 route 0 1;
#X obj 315 538 f;
#X listbox 113 141 8 0 0 0 - - - 12;
#X msg 395 546 inf;
#X obj 632 407 / 5;
#X text 117 62 Cycles;
#X obj 933 95 db2lin;
#X obj 938 529 utility/blend.sqrt~, f 45;
#X obj 606 322 filter/ar-filter~, f 36;
#X obj 150 797 modulation/lfo~, f 16;
#X obj 938 227 utility/blend.angular.sig~, f 42;
#X connect 4 0 5 0;
#X connect 5 0 11 0;
#X connect 6 0 27 0;
#X connect 7 0 101 0;
#X connect 12 0 42 0;
#X connect 13 0 152 1;
#X connect 14 0 103 0;
#X connect 16 0 28 0;
#X connect 18 0 98 1;
#X connect 19 0 90 0;
#X connect 22 0 147 0;
#X connect 23 0 29 0 32.................H....7o+++OB....e5+++aA....;
#X connect 23 0 59 0 32.................x....PJ...fL....jB...fC....;
#X connect 23 0 153 0 32.................Q....DA...PD....Q....XA....;
#X connect 23 1 30 0 32.................K....3o++++B....d5+++aA....;
#X connect 23 1 153 1;
#X connect 26 0 23 0;
#X connect 27 0 80 0;
#X connect 28 0 151 0;
#X connect 29 0 16 0;
#X connect 30 0 16 1;
#X connect 31 0 151 1;
#X connect 32 0 151 2;
#X connect 33 0 35 0;
#X connect 35 0 17 0;
#X connect 36 0 37 0;
#X connect 37 0 96 0;
#X connect 38 0 40 0;
#X connect 38 0 106 0 32......................T7+++O.....E++++W.....;
#X connect 39 0 25 1;
#X connect 41 0 42 1;
#X connect 42 0 111 0;
#X connect 42 0 153 2;
#X connect 43 0 44 0;
#X connect 44 0 42 0;
#X connect 45 0 150 2;
#X connect 46 0 49 1;
#X connect 47 0 48 0;
#X connect 47 0 61 0 32.................E.....B...PA....f....j.....;
#X connect 48 0 49 0;
#X connect 48 0 46 0 32.................F.....B...fA....f....r.....;
#X connect 49 0 150 1;
#X connect 50 0 58 0;
#X connect 51 0 57 0;
#X connect 52 0 56 0;
#X connect 56 0 47 0 48.................E....DD...PA....AA...f9+++uf....n++++KH...P6++++;
#X connect 57 0 48 0 48.................E....DD...PA....AA...f9+++uf....n++++KH...P6++++;
#X connect 58 0 49 0 48.................F....DD...fA....AA...f9+++uf....n++++KH...P6++++;
#X connect 59 0 66 0;
#X connect 59 0 64 0 32.................D.....B....A....f....f.....;
#X connect 61 0 48 1;
#X connect 62 0 47 1;
#X connect 63 0 46 1 32.................1B...v7+++us....L++++uK....;
#X connect 63 0 61 1 32.................7A...v7+++Oe....L++++CH....;
#X connect 63 0 62 1 32.................AA...v7+++eP....L++++eD....;
#X connect 63 0 64 1 32.................G....v7++++A....L++++q.....;
#X connect 64 0 66 1;
#X connect 66 0 47 0;
#X connect 66 0 62 0 32.................F.....B...fA....f....v.....;
#X connect 67 0 66 0 48.................F....rB...fA....q....f9+++ef....n++++GH...P6++++;
#X connect 69 0 70 0;
#X connect 70 0 40 1;
#X connect 72 0 73 0;
#X connect 72 0 74 0;
#X connect 72 0 75 0;
#X connect 72 0 76 0;
#X connect 73 0 55 0;
#X connect 74 0 54 0;
#X connect 75 0 53 0;
#X connect 76 0 65 0;
#X connect 78 0 40 2;
#X connect 79 0 26 1;
#X connect 80 0 26 0;
#X connect 81 0 149 0;
#X connect 83 0 86 0 32.................G....z6++++A....89+++uA....;
#X connect 83 0 38 0 32.................G....vx++++A....r7+++uA....;
#X connect 83 0 69 0 32.................G....P2++++A....z8+++uA....;
#X connect 84 0 14 0 32.................SA...X9++++T....l+++++F....;
#X connect 84 0 7 0 32.................NA...P0+++uS....T8++++F....;
#X connect 84 0 39 0 32.................PA...n4+++OT....Z9+++qE....;
#X connect 85 0 67 0;
#X connect 86 0 78 0;
#X connect 88 0 10 0;
#X connect 89 0 139 1;
#X connect 90 0 95 1;
#X connect 91 0 97 0;
#X connect 91 0 115 0;
#X connect 92 0 90 0 32.................v....z3+++OL....M9+++OD....;
#X connect 92 1 116 0 32.................j....nB....I....p....nB....;
#X connect 94 0 152 0;
#X connect 95 0 98 0;
#X connect 96 0 95 0;
#X connect 97 0 92 0;
#X connect 98 0 93 0;
#X connect 99 0 108 0;
#X connect 101 0 25 0;
#X connect 103 0 25 2;
#X connect 106 0 77 0 48.................F....TB...fA....k....f9+++OO....n++++yC...v5++++;
#X connect 108 0 152 1;
#X connect 109 0 152 2;
#X connect 110 0 27 1;
#X connect 112 0 140 0;
#X connect 113 0 114 0;
#X connect 114 0 90 0 48.................K....f9++++B....n++++aA...PZ++++V....j1+++OI....;
#X connect 114 1 116 0;
#X connect 114 2 116 1;
#X connect 115 0 113 0;
#X connect 116 0 90 1;
#X connect 117 0 120 0;
#X connect 117 0 126 1;
#X connect 120 0 119 0;
#X connect 136 0 144 1;
#X connect 136 0 142 0;
#X connect 138 0 145 0;
#X connect 139 0 88 0;
#X connect 140 0 41 0;
#X connect 141 0 137 0;
#X connect 142 0 143 0;
#X connect 143 0 144 0;
#X connect 143 1 146 0;
#X connect 144 0 141 0;
#X connect 146 0 141 0;
#X connect 147 0 35 1;
#X connect 149 0 80 1;
#X connect 150 0 8 0;
#X connect 150 0 8 1;
#X connect 151 0 33 0;
#X connect 152 0 139 0;
#X connect 153 0 150 0;
