#N canvas 827 239 527 327 12;
#X obj 360 158 inlet;
#X obj 360 201 route resize, f 17;
#X msg 360 238 resize \$1;
#X obj 460 288 clone math/absolute 5;
#X obj 460 342 outlet;
#X connect 0 0 1 0;
#X connect 1 0 2 0;
#X connect 1 1 3 0;
#X connect 2 0 3 0;
#X connect 3 0 4 0;
