#N canvas 827 239 527 327 12;
#X obj 296 136 clone math/product 5;
#X obj 224 20 inlet;
#X msg 296 95 all \$1;
#X obj 296 177 outlet;
#X obj 224 59 route resize, f 13;
#X msg 224 95 resize \$1;
#X connect 0 0 3 0;
#X connect 1 0 4 0;
#X connect 2 0 0 0;
#X connect 4 0 5 0;
#X connect 4 1 2 0;
#X connect 5 0 0 0;
