#N canvas 827 239 527 327 12;
#X obj 129 104 inlet;
#X obj 201 247 outlet;
#X obj 201 209 clone math/cosinus 5;
#X obj 129 141 route resize, f 13;
#X msg 129 171 resize \$1;
#X connect 0 0 3 0;
#X connect 2 0 1 0;
#X connect 3 0 4 0;
#X connect 3 1 2 0;
#X connect 4 0 2 0;
