#N canvas 827 239 527 327 12;
#X obj 345 190 inlet;
#X obj 345 258 *;
#X obj 409 190 loadbang;
#X obj 409 222 f \$1;
#X obj 345 302 outlet;
#X obj 409 258 + 1;
#X connect 0 0 1 0;
#X connect 1 0 4 0;
#X connect 2 0 3 0;
#X connect 3 0 5 0;
#X connect 5 0 1 1;
