#N canvas 827 239 527 327 12;
#X obj 531 236 samplerate~;
#X msg 177 277 0;
#X obj 145 160 delay 500, f 15;
#X obj 176 436 line~, f 11;
#X obj 145 245 t b b, f 7;
#X obj 145 313 pack;
#X msg 147 277 1;
#X obj 438 236 / 1000;
#X obj 219 246 min, f 12;
#X obj 438 277 *, f 16;
#X obj 219 313 *, f 18;
#X obj 371 277 / 1000;
#X obj 176 501 +~;
#X obj 176 465 *~;
#X obj 277 465 *, f 17;
#X obj 176 553 wrap2~ 0, f 41;
#X msg 308 523 0;
#X obj 219 406 *, f 9;
#X obj 242 367 t b f;
#X obj 122 640 *~, f 11;
#X obj 249 283 s \$0-len;
#X obj 11 39 inlet;
#X text 14 13 Delay time (ms);
#X obj 365 39 inlet;
#X text 365 13 Playback rate;
#X obj 139 39 inlet;
#X text 135 13 Length;
#X obj 262 39 inlet;
#X text 262 11 Position (ms);
#X obj 531 32 inlet;
#X text 531 13 Window;
#N canvas 733 172 450 300 window 0;
#X obj 235 129 tri~;
#X obj 161 22 r \$0-len;
#X obj 161 58 expr 1000 / $f1;
#X obj 89 243 +~ 1;
#X obj 89 276 *~ 0.5;
#X obj 307 129 osc~;
#X msg 327 93 0;
#X obj 162 129 square~;
#X obj 162 163 lop~ 7;
#X obj 89 163 sig~ 1;
#X obj 162 103 * 0.5;
#X obj 89 209 select~ 4, f 34;
#X obj 28 163 inlet~;
#X obj 89 314 outlet~;
#X obj 326 58 inlet;
#X connect 0 0 11 2;
#X connect 1 0 2 0;
#X connect 2 0 0 0;
#X connect 2 0 5 0;
#X connect 2 0 10 0;
#X connect 3 0 4 0;
#X connect 4 0 13 0;
#X connect 5 0 11 3;
#X connect 6 0 5 1;
#X connect 6 0 0 1;
#X connect 6 0 7 2;
#X connect 7 0 8 0;
#X connect 8 0 11 1;
#X connect 9 0 11 0;
#X connect 10 0 7 0;
#X connect 11 0 3 0;
#X connect 12 0 11 0;
#X connect 14 0 6 0;
#X restore 32 605 pd window;
#X f 16;
#X obj 176 587 tabread~ \$1;
#X obj 122 674 outlet~;
#X obj 438 160 t b b, f 16;
#X obj 145 125 r \$1-sync;
#X obj 32 574 + 1;
#X text 623 20 0.No env. \; 1.Smooth square \; 2.Linear \; 3.Raised Cosine, f 17;
#X obj 438 126 r \$1-array;
#X obj 438 194 array size \$1, f 29;
#X obj 11 66 s \$0-delaytime;
#X obj 228 125 r \$0-delaytime;
#X obj 219 209 r \$0-length;
#X obj 139 66 s \$0-length;
#X obj 365 66 s \$0-playbackrate;
#X obj 242 340 r \$0-playbackrate;
#X obj 277 436 r \$0-position;
#X obj 262 66 s \$0-position;
#X obj 531 66 s \$0-window;
#X obj 32 543 r \$0-window;
#X obj 307 495 loadbang;
#X connect 0 0 9 1;
#X connect 0 0 11 0;
#X connect 1 0 3 0;
#X connect 2 0 4 0;
#X connect 2 0 31 1 32.................T....T7+++OE....E++++qY....;
#X connect 3 0 13 0;
#X connect 4 0 6 0;
#X connect 4 1 1 0;
#X connect 5 0 3 0;
#X connect 6 0 5 0;
#X connect 7 0 9 0;
#X connect 8 0 10 0;
#X connect 8 0 5 1;
#X connect 8 0 20 0;
#X connect 9 0 15 2;
#X connect 10 0 17 0;
#X connect 11 0 10 1;
#X connect 11 0 14 1;
#X connect 12 0 15 0;
#X connect 13 0 12 0;
#X connect 14 0 12 1;
#X connect 15 0 32 0;
#X connect 16 0 15 1;
#X connect 17 0 13 1;
#X connect 18 0 17 0;
#X connect 18 1 17 1;
#X connect 19 0 33 0;
#X connect 21 0 40 0;
#X connect 23 0 44 0;
#X connect 25 0 43 0;
#X connect 27 0 47 0;
#X connect 29 0 48 0;
#X connect 31 0 19 0;
#X connect 32 0 19 1;
#X connect 34 0 39 0;
#X connect 34 1 0 0;
#X connect 35 0 2 0;
#X connect 36 0 31 0;
#X connect 38 0 34 0;
#X connect 39 0 7 0;
#X connect 39 0 8 1;
#X connect 41 0 2 1;
#X connect 42 0 8 0;
#X connect 45 0 18 0;
#X connect 46 0 14 0;
#X connect 49 0 36 0;
#X connect 50 0 16 0;
