#N canvas 827 239 527 327 12;
#X msg 269 357 start;
#X obj 269 200 metro, f 8;
#X obj 601 219 t f b, f 17;
#X msg 364 357 stop;
#X obj 601 249 expr 1-$f1;
#X obj 269 326 spigot, f 15;
#X obj 269 33 loadbang;
#X obj 379 152 f \$2;
#X obj 392 123 inlet;
#X obj 601 123 inlet;
#X text 601 99 Freeze;
#X obj 189 357 inlet~;
#X obj 269 405 tabwrite~ \$1;
#X text 389 90 Buffer Size (ms), f 17;
#X obj 269 4 array define \$1;
#X obj 392 257 array size \$1;
#X obj 299 257 s \$1-sync;
#X obj 601 149 f 0;
#X obj 490 123 samplerate~;
#X obj 490 152 * 0.001;
#X obj 379 200 *, f 19;
#X obj 379 287 s \$1-array;
#X obj 379 227 t b f;
#X obj 269 62 t b b b b, f 51;
#X connect 0 0 12 0;
#X connect 1 0 5 0;
#X connect 1 0 16 0;
#X connect 2 0 4 0;
#X connect 2 1 3 0 32.................vA...Lq+++Ob....y5+++aG....;
#X connect 3 0 12 0;
#X connect 4 0 5 1 32.................w....bv+++eL....G7+++mC....;
#X connect 5 0 0 0;
#X connect 6 0 23 0;
#X connect 7 0 1 1;
#X connect 7 0 20 0;
#X connect 8 0 7 1;
#X connect 9 0 17 0;
#X connect 11 0 12 0;
#X connect 17 0 2 0;
#X connect 18 0 19 0;
#X connect 19 0 20 1;
#X connect 20 0 22 0;
#X connect 22 0 21 0;
#X connect 22 1 15 0;
#X connect 23 0 1 0;
#X connect 23 1 7 0;
#X connect 23 2 18 0;
#X connect 23 3 17 0;
