#N canvas 827 239 527 327 12;
#X obj 341 65 osc~ 110;
#X obj 149 421 oscope~ 130 130 15 3 58 -2 2 0 0 0 0 77 77 77 228 228 228 183 183 183 0 empty;
#X obj 239 329 dac~;
#X obj 355 160 *~;
#X floatatom 419 119 5 0 0 0 - - - 12;
#X obj 419 147 sig~;
#X obj 471 83 saw~ 4;
#X obj 471 160 lop~ 200;
#X obj 224 254 fexpr~ $x1/((abs($x1)+1));
#X obj 114 222 fexpr~ $x1/((1+abs(($y1[-1])/($x1+1e-10)))*(abs($x1)+1));
#X obj 181 144 gate~ 2;
#X obj 179 89 + 1;
#X obj 209 22 tgl 25 0 empty empty empty 17 7 0 10 #e4e4e4 #4d4d4d #373737 0 1;
#X obj 119 179 *~ 1.6;
#X obj 272 160 *~;
#X floatatom 269 91 5 0 0 0 - - - 12;
#X obj 269 119 sig~;
#X connect 0 0 3 0;
#X connect 3 0 14 0;
#X connect 4 0 5 0;
#X connect 5 0 7 0;
#X connect 6 0 7 0;
#X connect 7 0 3 1;
#X connect 8 0 2 0;
#X connect 8 0 2 1;
#X connect 8 0 1 0;
#X connect 9 0 1 0;
#X connect 9 0 2 0;
#X connect 9 0 2 1;
#X connect 10 0 13 0;
#X connect 10 1 8 0;
#X connect 11 0 10 0;
#X connect 12 0 11 0;
#X connect 13 0 9 0;
#X connect 14 0 10 1;
#X connect 15 0 16 0;
#X connect 16 0 14 1;
