#N canvas 827 239 527 327 12;
#X obj 239 134 car2pol~, f 10;
#X obj 239 296 pol2car~;
#X obj 239 103 inlet~;
#X obj 288 103 inlet~;
#X obj 473 134 f \$1;
#X obj 239 339 outlet~;
#X obj 300 339 outlet~;
#X obj 473 165 sig~;
#X obj 288 263 +~;
#X obj 473 198 lop~ 7;
#X obj 451 103 inlet~;
#X obj 451 232 select~ 2 0;
#X obj 348 134 f \$2;
#X msg 350 198 1;
#X obj 348 165 route -float;
#X obj 348 103 loadbang;
#X connect 0 0 1 0;
#X connect 0 1 8 0;
#X connect 1 0 5 0;
#X connect 1 1 6 0;
#X connect 2 0 0 0;
#X connect 3 0 0 1;
#X connect 4 0 7 0;
#X connect 7 0 9 0;
#X connect 8 0 1 1;
#X connect 9 0 11 1;
#X connect 10 0 11 0;
#X connect 10 1 4 0;
#X connect 11 0 8 1;
#X connect 12 0 14 0;
#X connect 13 0 11 0;
#X connect 14 0 13 0;
#X connect 15 0 12 0;
