#N canvas 827 239 527 327 12;
#X obj 293 300 pow~;
#X obj 315 264 pow, f 19;
#X obj 315 231 loadmess 2;
#X obj 415 199 inlet;
#X obj 415 231 t b f;
#X obj 293 199 inlet~;
#X obj 293 337 outlet~;
#X connect 0 0 6 0;
#X connect 1 0 0 1;
#X connect 2 0 1 0;
#X connect 3 0 4 0;
#X connect 4 0 1 0;
#X connect 4 1 1 1;
#X connect 5 0 0 0;
