#N canvas 827 239 527 327 12;
#X obj 227 370 +~;
#X obj 227 334 *~;
#X obj 293 334 *~;
#X obj 293 197 inlet~;
#X obj 227 197 inlet~;
#X obj 227 404 outlet~;
#X obj 247 298 -;
#X obj 247 241 t b f;
#X msg 247 270 1;
#X obj 379 197 inlet;
#X connect 0 0 5 0;
#X connect 1 0 0 0;
#X connect 2 0 0 1;
#X connect 3 0 2 0;
#X connect 4 0 1 0;
#X connect 6 0 1 1;
#X connect 7 0 8 0;
#X connect 7 1 6 1;
#X connect 8 0 6 0;
#X connect 9 0 7 0;
#X connect 9 0 2 1;
