#N canvas 827 239 527 327 12;
#X obj 71 283 *~, f 12;
#X obj 195 283 *~, f 10;
#X obj 71 252 inlet~;
#X obj 195 252 inlet~;
#X obj 71 319 +~, f 21;
#X obj 71 356 outlet~;
#X text 20 10 Basic blend object \, using cos/sin functions to interpolate between two sigs.;
#X obj 240 89 inlet~;
#X obj 131 219 cos~;
#X obj 240 219 sin~;
#X connect 0 0 4 0;
#X connect 1 0 4 1;
#X connect 2 0 0 0;
#X connect 3 0 1 0;
#X connect 4 0 5 0;
#X connect 7 0 9 0;
#X connect 7 0 8 0;
#X connect 8 0 0 1;
#X connect 9 0 1 1;
