#N canvas 827 239 527 327 12;
#X obj 71 283 *~, f 12;
#X obj 195 283 *~, f 10;
#X obj 317 89 loadbang;
#X obj 242 89 inlet;
#X obj 71 252 inlet~;
#X obj 195 252 inlet~;
#X obj 71 319 +~, f 21;
#X obj 71 356 outlet~;
#X obj 317 121 pi 2;
#X obj 242 153 *;
#X obj 131 189 cos;
#X obj 240 189 sin;
#X text 20 10 Basic blend object \, using cos/sin functions to interpolate between two sigs.;
#X obj 242 219 sig~;
#X obj 131 219 sig~;
#X obj 131 252 lop~ 7;
#X obj 242 252 lop~ 7;
#X connect 0 0 6 0;
#X connect 1 0 6 1;
#X connect 2 0 8 0;
#X connect 3 0 9 0;
#X connect 4 0 0 0;
#X connect 5 0 1 0;
#X connect 6 0 7 0;
#X connect 8 0 9 1;
#X connect 9 0 10 0;
#X connect 9 0 11 0;
#X connect 10 0 14 0;
#X connect 11 0 13 0;
#X connect 13 0 16 0;
#X connect 14 0 15 0;
#X connect 15 0 0 1;
#X connect 16 0 1 1;
