#N canvas 827 239 527 327 12;
#X obj 71 283 *~, f 12;
#X obj 195 283 *~, f 10;
#X obj 240 71 inlet;
#X obj 71 252 inlet~;
#X obj 195 252 inlet~;
#X obj 71 319 +~, f 21;
#X obj 71 356 outlet~;
#X obj 131 219 sqrt;
#X obj 240 219 sqrt;
#X obj 131 184 -, f 7;
#X obj 131 124 t b f, f 6;
#X msg 133 154 1;
#X text 8 9 Basic blend object \, using sqrt function to interpolate between two sigs.;
#X connect 0 0 5 0;
#X connect 1 0 5 1;
#X connect 2 0 8 0;
#X connect 2 0 10 0;
#X connect 3 0 0 0;
#X connect 4 0 1 0;
#X connect 5 0 6 0;
#X connect 7 0 0 1;
#X connect 8 0 1 1;
#X connect 9 0 7 0;
#X connect 10 0 11 0;
#X connect 10 1 9 1;
#X connect 11 0 9 0;
