#N canvas 827 239 527 327 12;
#X obj 464 539 +;
#X obj 464 493 *;
#X obj 512 304 loadbang;
#X obj 512 390 dbtoa;
#X obj 571 390 dbtoa;
#X obj 512 416 -, f 12;
#X floatatom 512 445 5 0 0 0 - - - 12;
#X obj 512 333 t b b;
#X obj 464 445 inlet;
#X obj 464 581 outlet;
#X text 508 234 \$1 is max in dB \; \$2 is min in dB;
#X obj 512 363 f \$2;
#X obj 571 363 f \$3;
#X connect 0 0 9 0;
#X connect 1 0 0 0;
#X connect 2 0 7 0;
#X connect 3 0 5 0;
#X connect 4 0 5 1;
#X connect 4 0 0 1;
#X connect 5 0 6 0;
#X connect 5 0 1 1;
#X connect 7 0 11 0;
#X connect 7 1 12 0;
#X connect 8 0 1 0;
#X connect 11 0 3 0;
#X connect 12 0 4 0;
