#N canvas 827 239 527 327 12;
#X obj 669 140 inlet;
#X obj 764 179 samplerate~;
#X obj 669 272 outlet;
#X obj 669 226 /;
#X obj 669 179 / 1000;
#X obj 764 140 loadbang;
#X connect 0 0 4 0;
#X connect 1 0 3 1;
#X connect 3 0 2 0;
#X connect 4 0 3 0;
#X connect 5 0 1 0;
