#N canvas 827 239 527 327 12;
#X obj 150 85 samplerate~;
#X obj 150 46 loadbang;
#X obj 59 149 inlet~;
#X obj 59 191 *~ 0.001;
#X obj 150 191 /, f 7;
#X obj 150 119 t b f, f 7;
#X msg 152 155 1;
#X obj 59 239 *~;
#X obj 59 284 outlet~;
#X connect 0 0 5 0;
#X connect 1 0 0 0;
#X connect 2 0 3 0;
#X connect 3 0 7 0;
#X connect 4 0 7 1;
#X connect 5 0 6 0;
#X connect 5 1 4 1;
#X connect 6 0 4 0;
#X connect 7 0 8 0;
