#N canvas 827 239 527 327 12;
#X obj 230 214 clone utility/timestwo 1;
#X obj 104 151 f \$1;
#X obj 104 121 loadbang;
#X msg 104 179 resize \$1;
#X obj 230 121 inlet;
#X msg 311 179 all \$1;
#X obj 230 249 outlet;
#X obj 230 151 route resize, f 14;
#X msg 230 179 resize \$1;
#X connect 0 0 6 0;
#X connect 1 0 3 0;
#X connect 2 0 1 0;
#X connect 3 0 0 0;
#X connect 4 0 7 0;
#X connect 5 0 0 0;
#X connect 7 0 8 0;
#X connect 7 1 5 0;
#X connect 8 0 0 0;
