#N canvas 827 239 527 327 12;
#X obj 29 96 == 0;
#X obj 86 96 == 1;
#X obj 144 96 == 2;
#X obj 202 96 == 3;
#X obj 29 14 inlet;
#X obj 29 181 outlet;
#X obj 29 138 pack f f f f, f 28;
#X obj 29 54 t f f f f, f 28;
#X connect 0 0 6 0;
#X connect 1 0 6 1;
#X connect 2 0 6 2;
#X connect 3 0 6 3;
#X connect 4 0 7 0;
#X connect 6 0 5 0;
#X connect 7 0 0 0;
#X connect 7 1 1 0;
#X connect 7 2 2 0;
#X connect 7 3 3 0;
