#N canvas 827 239 527 327 12;
#X obj 142 149 samplerate~;
#X obj 142 110 loadbang;
#X obj 59 149 inlet~;
#X obj 59 284 outlet~;
#X obj 59 239 /~;
#X obj 142 194 / 1000;
#X connect 0 0 5 0;
#X connect 1 0 0 0;
#X connect 2 0 4 0;
#X connect 4 0 3 0;
#X connect 5 0 4 1;
