#N canvas 827 239 527 327 12;
#X obj 303 161 inlet~;
#X obj 303 252 outlet~;
#X obj 395 111 loadbang;
#X obj 395 142 f \$1;
#X msg 395 174 resize \$1;
#X obj 303 212 clone -do utility/thru~ 8;
#X connect 0 0 5 0;
#X connect 2 0 3 0;
#X connect 3 0 4 0;
#X connect 4 0 5 0;
#X connect 5 0 1 0;
