#N canvas 827 239 127 207 12;
#X obj 572 347 timer, f 16;
#X msg 473 274 0;
#X obj 572 274 gate 2, f 12;
#X msg 572 212 1;
#X obj 572 245 + 1;
#X text 359 43 The whole patch work as follow: \; Tap on the main button regularly to get a time ellapsed \; If you wait more than 2 second \, between two presses \, the timer reset. \; So it allows for tempo over 30 bpm, f 46;
#X obj 698 274 count;
#X floatatom 632 489 12 0 0 0 - - - 16;
#X obj 572 403 accum;
#X obj 572 376 t b f;
#X obj 572 430 /, f 21;
#X obj 632 460 f;
#X obj 632 309 t b b b;
#X obj 746 489 !/ 60000;
#X obj 632 597 outlet;
#X obj 746 597 outlet;
#X text 565 596 ms output;
#X text 792 596 bpm output;
#X obj 771 544 s \$0-display-bpm;
#X obj 401 140 r \$0-param-tap;
#X obj 386 242 loadbang;
#X msg 473 212 stop;
#X obj 473 245 delay 2000;
#X obj 401 174 t b b b b b, f 45;
#X obj 698 347 - 1;
#X obj 698 388 clip 1 1000;
#X obj 819 119 loadbang;
#N canvas 733 172 450 300 ratio 0;
#X obj 307 489 i;
#X obj 431 489 i;
#X obj 307 558 /, f 22;
#X obj 431 516 t b f;
#X obj 307 609 * 4;
#X obj 307 673 outlet;
#X obj 307 459 r \$0-num;
#X obj 431 460 r \$0-denom;
#X connect 0 0 2 0;
#X connect 1 0 3 0;
#X connect 2 0 4 0;
#X connect 3 0 2 0;
#X connect 3 1 2 1;
#X connect 4 0 5 0;
#X connect 6 0 0 0;
#X connect 7 0 1 0;
#X restore 556 524 pd ratio;
#X obj 632 557 *;
#X obj 632 524 t b f;
#X obj 771 517 i;
#X obj 348 144 inlet;
#X obj 819 174 f \$1;
#X obj 945 174 f \$2;
#X obj 833 144 inlet;
#X obj 959 149 inlet;
#X obj 819 209 s \$0-num;
#X obj 945 209 s \$0-denom;
#X connect 0 0 9 0;
#X connect 1 0 4 0;
#X connect 1 0 8 0;
#X connect 1 0 6 0;
#X connect 2 0 0 0;
#X connect 2 1 12 0;
#X connect 3 0 4 0;
#X connect 4 0 2 0;
#X connect 6 0 24 0;
#X connect 7 0 29 0;
#X connect 8 0 10 0;
#X connect 9 0 8 0;
#X connect 9 1 8 1;
#X connect 10 0 11 1;
#X connect 11 0 13 0;
#X connect 11 0 7 0;
#X connect 12 0 11 0;
#X connect 12 1 0 0;
#X connect 12 2 0 1;
#X connect 13 0 15 0;
#X connect 13 0 30 0;
#X connect 19 0 23 0;
#X connect 20 0 1 0;
#X connect 21 0 22 0;
#X connect 22 0 1 0;
#X connect 23 0 22 0;
#X connect 23 1 21 0;
#X connect 23 2 3 0;
#X connect 23 3 2 1;
#X connect 23 4 6 0;
#X connect 24 0 25 0;
#X connect 25 0 10 1;
#X connect 26 0 32 0;
#X connect 26 0 33 0;
#X connect 27 0 28 0;
#X connect 28 0 14 0;
#X connect 29 0 28 0;
#X connect 29 1 28 1;
#X connect 30 0 18 0;
#X connect 31 0 23 0;
#X connect 32 0 36 0;
#X connect 33 0 37 0;
#X connect 34 0 32 0;
#X connect 35 0 33 0;
#X coords 0 0 1 1 201 154 0;
