#N canvas 827 239 527 327 12;
#X obj 404 361 / 1000;
#X obj 404 395 expr exp(-1/($f1*$f2));
#X obj 404 296 inlet;
#X obj 404 429 outlet;
#X text 404 266 Input a time constant (seconds) and output the corresponding pole;
#X obj 521 329 loadbang;
#X obj 521 361 samplerate~;
#X obj 404 329 + 9.94922e-30;
#X connect 0 0 1 0;
#X connect 1 0 3 0;
#X connect 2 0 7 0;
#X connect 5 0 6 0;
#X connect 6 0 1 1;
#X connect 7 0 0 0;
