#N canvas 827 239 527 327 12;
#X obj 316 224 * 2;
#X obj 316 80 inlet;
#X obj 316 267 outlet;
#X obj 419 144 f \$1;
#X obj 389 173 pow;
#X msg 390 144 2;
#X obj 389 80 loadbang;
#X obj 389 110 t b b;
#X connect 0 0 2 0;
#X connect 1 0 0 0;
#X connect 3 0 4 1;
#X connect 4 0 0 1;
#X connect 5 0 4 0;
#X connect 6 0 7 0;
#X connect 7 0 5 0;
#X connect 7 1 3 0;
