#N canvas 827 239 527 327 12;
#X obj 299 365 f \$1;
#X obj 299 394 * 0.0254;
#X obj 397 394 pi;
#X obj 397 365 loadbang;
#X obj 299 424 *, f 17;
#X obj 299 479 !/ 340;
#X obj 299 450 + 1e-14;
#X obj 508 382 bng 25 250 50 0 empty empty empty 17 7 0 10 #e4e4e4 #4d4d4d #373737;
#X text 357 448 At this point we have the frequency limit of "correct" directivity, f 21;
#X floatatom 299 537 7 0 0 0 - - - 12;
#X obj 390 508 * 2;
#X floatatom 390 537 8 0 0 0 - - - 12;
#X obj 482 508 * 2;
#X floatatom 482 537 8 0 0 0 - - - 12;
#X obj 210 508 * 0.5;
#X floatatom 210 537 7 0 0 0 - - - 12;
#X floatatom 804 105 5 0 1 0 - - - 12;
#X obj 804 133 *, f 11;
#X obj 856 105 pi 2;
#X obj 856 73 bng 25 250 50 0 empty empty empty 17 7 0 10 #e4e4e4 #4d4d4d #373737;
#X obj 856 44 loadbang;
#X obj 804 44 inlet;
#X obj 804 164 cos;
#X obj 1125 576 atodb;
#X obj 1045 546 atodb;
#X obj 979 494 atodb;
#X obj 923 441 atodb;
#X obj 867 380 atodb;
#X obj 804 332 atodb;
#X obj 804 235 abs;
#X obj 176 291 loadbang;
#X obj 616 246 inlet~;
#X obj 616 720 outlet~;
#X obj 616 408 eq~, f 30;
#X obj 616 465 eq~, f 39;
#X obj 616 517 eq~, f 47;
#X obj 616 572 eq~, f 55;
#X obj 804 357 sig~;
#X obj 867 408 sig~;
#X obj 923 465 sig~;
#X obj 979 519 sig~;
#X obj 1045 572 sig~;
#X obj 616 634 highshelf~, f 64;
#X obj 1028 371 abs;
#X obj 1196 371 abs;
#X obj 1419 371 abs;
#X obj 1125 604 sig~;
#X obj 804 295 expr 0.5+0.5*abs($f1);
#X obj 1028 204 pow 2;
#X obj 1370 204 pow 2;
#X obj 1748 204 pow 2;
#X obj 1028 266 expr 1.5*$f1-0.5;
#X obj 1638 204 pow 3;
#X obj 1196 272 expr 4.375*$f2-3.75*$f1+0.375;
#X obj 1419 295 expr 50.27*$f4-93.84*$f3+54.14*$f2-9.844*$f1+0.2734, f 50;
#X obj 210 564 s \$0-f0;
#X obj 678 372 r \$0-f0;
#X obj 299 564 s \$0-f1;
#X obj 390 564 s \$0-f2;
#X obj 482 564 s \$0-f3;
#X obj 759 602 r \$0-f3;
#X obj 737 545 r \$0-f3;
#X obj 176 392 s \$0-q;
#X obj 783 433 r \$0-q;
#X obj 902 602 r \$0-q;
#X obj 858 545 r \$0-q;
#X obj 820 489 r \$0-q;
#X obj 741 372 r \$0-q;
#X obj 699 433 r \$0-f1;
#X obj 718 489 r \$0-f2;
#X obj 616 680 highshelf~ 500 0.3 0, f 76;
#X obj 176 327 t b b, f 20;
#X obj 804 266 t f f f;
#X obj 1028 229 t f f f f f;
#X obj 1370 229 t f f f;
#X obj 1148 103 + 1;
#X obj 1148 163 pow 2;
#X obj 1315 163 pow 2;
#X obj 1538 163 pow 2;
#X obj 1148 133 * 0.5;
#X obj 1028 332 expr 0.5*($f1+$f2), f 20;
#X obj 1196 332 expr 0.5*($f1+$f2), f 20;
#X obj 1419 332 expr 0.5*($f1+$f2), f 20;
#X obj 804 198 t f f f;
#X obj 1795 163 sqrt;
#X obj 1795 288 expr $f1*0.5+0.5;
#X msg 173 363 1.5;
#X obj 638 279 route get;
#X obj 638 308 s \$0-get;
#X obj 36 504 r \$0-get;
#X obj 36 537 route f0 f1 f2 f3, f 19;
#X obj 239 599 f;
#X obj 320 599 f;
#X obj 413 599 f;
#X obj 508 599 f;
#X obj 38 566 b;
#X obj 65 566 b;
#X obj 92 566 b;
#X obj 119 566 b;
#X msg 239 628 f0 \$1;
#X msg 320 628 f1 \$1;
#X msg 413 628 f2 \$1;
#X msg 508 628 f3 \$1;
#X obj 239 665 s \$0-data;
#X obj 732 720 r \$0-data;
#X obj 732 752 outlet;
#X obj 1125 634 lop~ 12;
#X obj 1045 602 lop~ 12;
#X obj 979 545 lop~ 12;
#X obj 923 489 lop~ 12;
#X obj 867 433 lop~ 12;
#X obj 804 381 lop~ 12;
#X obj 1028 401 max 0.3;
#X obj 1196 395 max 0.3;
#X obj 1419 395 max 0.3;
#X obj 867 343 max 0.3;
#X obj 1795 332 max 0.3;
#X connect 0 0 1 0;
#X connect 1 0 4 0;
#X connect 2 0 4 1;
#X connect 3 0 2 0;
#X connect 4 0 6 0;
#X connect 5 0 9 0;
#X connect 5 0 10 0;
#X connect 5 0 14 0;
#X connect 6 0 5 0;
#X connect 7 0 2 0;
#X connect 9 0 57 0;
#X connect 9 0 92 1;
#X connect 10 0 11 0;
#X connect 10 0 12 0;
#X connect 11 0 58 0;
#X connect 11 0 93 1;
#X connect 12 0 13 0;
#X connect 13 0 59 0;
#X connect 13 0 94 1;
#X connect 14 0 15 0;
#X connect 15 0 55 0;
#X connect 15 0 91 1;
#X connect 16 0 17 0;
#X connect 17 0 22 0;
#X connect 18 0 17 1;
#X connect 19 0 18 0;
#X connect 20 0 19 0;
#X connect 21 0 16 0;
#X connect 22 0 83 0;
#X connect 23 0 46 0;
#X connect 24 0 41 0;
#X connect 25 0 40 0;
#X connect 26 0 39 0;
#X connect 27 0 38 0;
#X connect 28 0 37 0;
#X connect 29 0 72 0;
#X connect 30 0 71 0;
#X connect 31 0 33 0;
#X connect 31 1 87 0;
#X connect 33 0 34 0;
#X connect 34 0 35 0;
#X connect 35 0 36 0;
#X connect 36 0 42 0;
#X connect 37 0 111 0;
#X connect 38 0 110 0;
#X connect 39 0 109 0;
#X connect 40 0 108 0;
#X connect 41 0 107 0;
#X connect 42 0 70 0;
#X connect 43 0 112 0;
#X connect 44 0 113 0;
#X connect 45 0 114 0;
#X connect 46 0 106 0;
#X connect 47 0 28 0;
#X connect 48 0 73 0;
#X connect 49 0 74 0;
#X connect 50 0 54 3;
#X connect 51 0 80 0;
#X connect 52 0 54 2;
#X connect 53 0 81 0;
#X connect 54 0 82 0;
#X connect 56 0 33 1;
#X connect 60 0 42 1;
#X connect 61 0 36 1;
#X connect 63 0 34 2;
#X connect 64 0 42 2;
#X connect 65 0 36 2;
#X connect 66 0 35 2;
#X connect 67 0 33 2;
#X connect 68 0 34 1;
#X connect 69 0 35 1;
#X connect 70 0 32 0;
#X connect 71 0 86 0;
#X connect 71 1 0 0;
#X connect 72 0 47 0;
#X connect 72 1 115 0;
#X connect 72 2 48 0;
#X connect 73 0 51 0;
#X connect 73 1 53 0;
#X connect 73 2 54 0;
#X connect 73 3 49 0;
#X connect 73 4 52 0;
#X connect 74 0 53 1;
#X connect 74 1 54 1;
#X connect 74 2 50 0;
#X connect 75 0 79 0;
#X connect 76 0 77 0;
#X connect 76 0 80 1;
#X connect 77 0 78 0;
#X connect 77 0 81 1;
#X connect 78 0 82 1;
#X connect 79 0 76 0;
#X connect 79 0 84 0;
#X connect 80 0 43 0;
#X connect 81 0 44 0;
#X connect 82 0 45 0;
#X connect 83 0 29 0;
#X connect 83 2 75 0;
#X connect 84 0 85 0;
#X connect 85 0 116 0;
#X connect 86 0 62 0;
#X connect 87 0 88 0;
#X connect 89 0 90 0;
#X connect 90 0 95 0;
#X connect 90 1 96 0;
#X connect 90 2 97 0;
#X connect 90 3 98 0;
#X connect 91 0 99 0;
#X connect 92 0 100 0;
#X connect 93 0 101 0;
#X connect 94 0 102 0;
#X connect 95 0 91 0;
#X connect 96 0 92 0;
#X connect 97 0 93 0;
#X connect 98 0 94 0;
#X connect 99 0 103 0;
#X connect 100 0 103 0;
#X connect 101 0 103 0;
#X connect 102 0 103 0;
#X connect 104 0 105 0;
#X connect 106 0 70 3;
#X connect 107 0 42 3;
#X connect 108 0 36 3;
#X connect 109 0 35 3;
#X connect 110 0 34 3;
#X connect 111 0 33 3;
#X connect 112 0 26 0;
#X connect 113 0 25 0;
#X connect 114 0 24 0;
#X connect 115 0 27 0;
#X connect 116 0 23 0;
