#N canvas 827 239 527 327 12;
#X obj 191 407 filter/phase_rotator~, f 29;
#X obj 191 342 sig~;
#X obj 202 232 * 0.01;
#X obj 191 268 *, f 5;
#X obj 558 102 == 0;
#X obj 202 193 inlet;
#X obj 273 14 inlet;
#X obj 24 342 inlet~;
#X obj 369 232 / 127;
#X obj 479 130 loadbang;
#X obj 369 375 pow 0.25;
#X obj 558 130 route 1 0;
#X obj 369 193 lfo 0 0 20 -sine;
#X obj 273 45 s \$0-mod.freq;
#X obj 602 324 r \$0-mod.freq;
#X obj 558 72 r \$0-mod.freq;
#X obj 369 72 r \$0-mod.freq;
#X obj 191 711 outlet~;
#X msg 479 164 0.25;
#X obj 602 385 / 6;
#X obj 602 412 clip 0 1;
#X obj 24 375 delwrite~ \$0-del 40;
#X obj 191 375 delread4~ \$0-del;
#X obj 191 305 / 340;
#X obj 602 354 abs;
#X text -1 560 Tuned for 12" spkr \; highshelves 600 \; eq 1200;
#X obj 63 407 loadbang;
#X obj 191 451 speaker.dir~ \$1, f 45;
#X obj 63 437 t b b, f 10;
#X msg 63 470 get f2;
#X msg 120 470 get f3;
#X obj 602 444 pow 0.35;
#X obj 698 72 * 0.1;
#X obj 698 14 inlet;
#X obj 369 164 +, f 6;
#X obj 388 102 r \$0-mod.random;
#X obj 388 129 t b f;
#X obj 698 45 rand.f -1 1;
#X obj 698 102 s \$0-mod.random;
#X msg 559 163 0;
#X obj 191 548 highshelf~ 500 0.5 6, f 22;
#X floatatom 554 273 5 0 0 0 - - - 12;
#X obj 191 604 eq~ 2000 0.5 2;
#X obj 485 486 route f1 f3;
#X obj 602 486 * 6;
#X obj 191 650 *~;
#X obj 705 578 sig~;
#X obj 602 576 print;
#X obj 705 533 dbtoa;
#X obj 652 486 * 1.8;
#X obj 705 486 * 6;
#X obj 705 614 lop~ 7;
#X connect 0 0 27 0;
#X connect 1 0 22 0;
#X connect 2 0 3 1;
#X connect 3 0 23 0;
#X connect 4 0 11 0;
#X connect 5 0 2 0;
#X connect 6 0 13 0;
#X connect 7 0 21 0;
#X connect 8 0 10 0;
#X connect 8 0 3 0;
#X connect 8 0 27 1;
#X connect 9 0 18 0;
#X connect 10 0 0 1;
#X connect 11 0 18 0;
#X connect 11 0 39 0;
#X connect 12 0 8 0;
#X connect 14 0 24 0;
#X connect 15 0 4 0;
#X connect 16 0 34 0;
#X connect 18 0 12 1;
#X connect 19 0 20 0;
#X connect 20 0 31 0;
#X connect 22 0 0 0;
#X connect 23 0 1 0;
#X connect 24 0 19 0;
#X connect 26 0 28 0;
#X connect 27 0 40 0;
#X connect 27 1 43 0;
#X connect 28 0 29 0;
#X connect 28 1 30 0;
#X connect 29 0 27 0;
#X connect 30 0 27 0;
#X connect 31 0 44 0;
#X connect 31 0 49 0;
#X connect 31 0 50 0;
#X connect 32 0 38 0;
#X connect 33 0 37 0;
#X connect 34 0 12 0;
#X connect 35 0 36 0;
#X connect 36 0 34 0;
#X connect 36 1 34 1;
#X connect 37 0 32 0;
#X connect 39 0 32 0;
#X connect 40 0 42 0;
#X connect 42 0 45 0;
#X connect 43 0 40 1;
#X connect 43 1 42 1;
#X connect 44 0 40 3;
#X connect 44 0 47 0;
#X connect 45 0 17 0;
#X connect 46 0 51 0;
#X connect 48 0 46 0;
#X connect 49 0 42 3;
#X connect 50 0 48 0;
#X connect 51 0 45 1;
