#N canvas 827 239 527 327 12;
#X obj 271 251 count 0 128, f 24;
#X obj 271 30 inlet;
#X obj 271 64 t f f, f 21;
#X msg 272 126 0;
#X msg 299 126 1;
#X obj 393 97 !/ 1;
#X obj 494 59 * 1000;
#X obj 271 97 route 0, f 11;
#X msg 381 30 5;
#X msg 341 28 0;
#X obj 271 183 metro 1 1 second, f 20;
#X obj 393 150 * 0.25;
#X text 449 148 sampling periode = (1/4)*T;
#X obj 393 126 t f f f;
#X obj 206 251 print;
#X obj 420 183 /;
#X msg 420 216 \$1 0;
#X obj 271 371 cos;
#X obj 271 338 *, f 24;
#X obj 411 311 pi 2;
#X obj 411 282 loadbang;
#X msg 430 31 3;
#X obj 271 311 pow, f 7;
#X obj 298 282 rand.f 0.9 1.1;
#X obj 271 399 sig~;
#X obj 271 430 lop.bw~ 10 2;
#X obj 271 483 oscope~ 130 130 256 3 128 -1 1 0 0 0 0 77 77 77 228 228 228 183 183 183 0 empty;
#X connect 0 0 14 0;
#X connect 0 0 22 0;
#X connect 1 0 2 0;
#X connect 2 0 7 0;
#X connect 2 1 5 0;
#X connect 3 0 10 0;
#X connect 4 0 10 0;
#X connect 5 0 13 0;
#X connect 7 0 3 0;
#X connect 7 1 4 0;
#X connect 8 0 2 0;
#X connect 9 0 2 0;
#X connect 10 0 0 0;
#X connect 10 0 23 0;
#X connect 11 0 10 1;
#X connect 11 0 15 0;
#X connect 13 0 11 0;
#X connect 13 1 15 1;
#X connect 15 0 16 0;
#X connect 16 0 0 1;
#X connect 17 0 24 0;
#X connect 18 0 17 0;
#X connect 19 0 18 1;
#X connect 20 0 19 0;
#X connect 21 0 2 0;
#X connect 22 0 18 0;
#X connect 23 0 22 1;
#X connect 24 0 25 0;
#X connect 25 0 26 0;
