#N canvas 827 239 527 327 12;
#X obj 100 153 f \$1;
#X obj 222 152 f \$2;
#X obj 100 278 line 1000;
#X obj 100 190 f;
#X obj 100 225 t f b;
#X floatatom 113 253 8 0 0 0 Ramptime - - 10;
#X obj 166 47 inlet;
#X obj 222 47 inlet;
#X obj 279 47 inlet;
#X obj 279 153 f \$3;
#X obj 74 44 inlet;
#X obj 100 313 outlet;
#X obj 74 78 route 0 1 2, f 13;
#X msg 75 153 0;
#X text 353 43 \$1 is slow speed \; \$2 is fast speed \; \$3 is ramp time is ms;
#X obj 338 114 loadbang;
#X connect 0 0 3 0;
#X connect 1 0 3 0 32.................I....b3+++eB....G9+++KA....;
#X connect 2 0 11 0;
#X connect 3 0 4 0;
#X connect 4 0 2 0;
#X connect 4 1 5 0;
#X connect 5 0 2 1;
#X connect 6 0 0 0;
#X connect 7 0 1 0;
#X connect 8 0 9 0;
#X connect 9 0 5 0 32.................LA...r0+++OS....a8+++CE....;
#X connect 10 0 12 0;
#X connect 12 0 13 0;
#X connect 12 1 0 0;
#X connect 12 2 1 0;
#X connect 13 0 4 0;
#X connect 15 0 9 0;
#X connect 15 0 1 0;
#X connect 15 0 0 0;
